<svg xmlns="http://www.w3.org/2000/svg" viewBox="-0.5 -0.5 17.541 9.0692" width="2631" height="1360">
  <g id="field" transform="scale(1 -1) translate(0 -8.0692)">
        <defs>
            <filter id="dark">
                <feComponentTransfer>
                    <feFuncR type="linear" slope="0.5"></feFuncR>
                    <feFuncG type="linear" slope="0.5"></feFuncG>
                    <feFuncB type="linear" slope="0.5"></feFuncB>
                </feComponentTransfer>
            </filter>
            <circle id="fuel" cx="0.07619999999999999" cy="0.07619999999999999"
                r="0.07505699999999998" fill="#B1902F"></circle>
            <g id="blueRampTrench">
                <rect height="0.3055620000000001" width="1.193852" x="-4.2426200000000005"
                    y="2.450338" fill="currentColor" filter="url(#dark)"></rect>
                <rect x="-4.208718" y="0.5940749999999999" width="0.563024" height="1.856263"
                    fill="currentColor"></rect>
                <rect x="-3.645694" y="0.5940749999999999" width="0.563024" height="1.856263"
                    fill="currentColor"></rect>
                <line x1="-3.645694" y1="0.5940749999999999" x2="-3.645694" y2="2.450338"
                    stroke="black" stroke-width="0.01"></line>
                <line x1="-3.645694" y1="2.7559" x2="-3.645694" y2="4.0346"
                    stroke="currentColor" stroke-width="0.1524"></line>
            </g>
            <g id="blueSide">
                <g transform="translate(7.3561000000000005 4.0600000000000005)">
                    <use href="#fuel" x="0" y="0"></use>
                    <use href="#fuel" x="0" y="0.15239999999999998"></use>
                    <use href="#fuel" x="0" y="0.30479999999999996"></use>
                    <use href="#fuel" x="0" y="0.45719999999999994"></use>
                    <use href="#fuel" x="0" y="0.6095999999999999"></use>
                    <use href="#fuel" x="0" y="0.7619999999999999"></use>
                    <use href="#fuel" x="0" y="0.9143999999999999"></use>
                    <use href="#fuel" x="0" y="1.0667999999999997"></use>
                    <use href="#fuel" x="0" y="1.2191999999999998"></use>
                    <use href="#fuel" x="0" y="1.3716"></use>
                    <use href="#fuel" x="0" y="1.5239999999999998"></use>
                    <use href="#fuel" x="0" y="1.6763999999999997"></use>
                    <use href="#fuel" x="0" y="1.8287999999999998"></use>
                    <use href="#fuel" x="0" y="1.9811999999999999"></use>
                    <use href="#fuel" x="0" y="2.1335999999999995"></use>
                    <use href="#fuel" x="0.15239999999999998" y="0"></use>
                    <use href="#fuel" x="0.15239999999999998" y="0.15239999999999998"></use>
                    <use href="#fuel" x="0.15239999999999998" y="0.30479999999999996"></use>
                    <use href="#fuel" x="0.15239999999999998" y="0.45719999999999994"></use>
                    <use href="#fuel" x="0.15239999999999998" y="0.6095999999999999"></use>
                    <use href="#fuel" x="0.15239999999999998" y="0.7619999999999999"></use>
                    <use href="#fuel" x="0.15239999999999998" y="0.9143999999999999"></use>
                    <use href="#fuel" x="0.15239999999999998" y="1.0667999999999997"></use>
                    <use href="#fuel" x="0.15239999999999998" y="1.2191999999999998"></use>
                    <use href="#fuel" x="0.15239999999999998" y="1.3716"></use>
                    <use href="#fuel" x="0.15239999999999998" y="1.5239999999999998"></use>
                    <use href="#fuel" x="0.15239999999999998" y="1.6763999999999997"></use>
                    <use href="#fuel" x="0.15239999999999998" y="1.8287999999999998"></use>
                    <use href="#fuel" x="0.15239999999999998" y="1.9811999999999999"></use>
                    <use href="#fuel" x="0.15239999999999998" y="2.1335999999999995"></use>
                    <use href="#fuel" x="0.30479999999999996" y="0"></use>
                    <use href="#fuel" x="0.30479999999999996" y="0.15239999999999998"></use>
                    <use href="#fuel" x="0.30479999999999996" y="0.30479999999999996"></use>
                    <use href="#fuel" x="0.30479999999999996" y="0.45719999999999994"></use>
                    <use href="#fuel" x="0.30479999999999996" y="0.6095999999999999"></use>
                    <use href="#fuel" x="0.30479999999999996" y="0.7619999999999999"></use>
                    <use href="#fuel" x="0.30479999999999996" y="0.9143999999999999"></use>
                    <use href="#fuel" x="0.30479999999999996" y="1.0667999999999997"></use>
                    <use href="#fuel" x="0.30479999999999996" y="1.2191999999999998"></use>
                    <use href="#fuel" x="0.30479999999999996" y="1.3716"></use>
                    <use href="#fuel" x="0.30479999999999996" y="1.5239999999999998"></use>
                    <use href="#fuel" x="0.30479999999999996" y="1.6763999999999997"></use>
                    <use href="#fuel" x="0.30479999999999996" y="1.8287999999999998"></use>
                    <use href="#fuel" x="0.30479999999999996" y="1.9811999999999999"></use>
                    <use href="#fuel" x="0.30479999999999996" y="2.1335999999999995"></use>
                    <use href="#fuel" x="0.45719999999999994" y="0"></use>
                    <use href="#fuel" x="0.45719999999999994" y="0.15239999999999998"></use>
                    <use href="#fuel" x="0.45719999999999994" y="0.30479999999999996"></use>
                    <use href="#fuel" x="0.45719999999999994" y="0.45719999999999994"></use>
                    <use href="#fuel" x="0.45719999999999994" y="0.6095999999999999"></use>
                    <use href="#fuel" x="0.45719999999999994" y="0.7619999999999999"></use>
                    <use href="#fuel" x="0.45719999999999994" y="0.9143999999999999"></use>
                    <use href="#fuel" x="0.45719999999999994" y="1.0667999999999997"></use>
                    <use href="#fuel" x="0.45719999999999994" y="1.2191999999999998"></use>
                    <use href="#fuel" x="0.45719999999999994" y="1.3716"></use>
                    <use href="#fuel" x="0.45719999999999994" y="1.5239999999999998"></use>
                    <use href="#fuel" x="0.45719999999999994" y="1.6763999999999997"></use>
                    <use href="#fuel" x="0.45719999999999994" y="1.8287999999999998"></use>
                    <use href="#fuel" x="0.45719999999999994" y="1.9811999999999999"></use>
                    <use href="#fuel" x="0.45719999999999994" y="2.1335999999999995"></use>
                    <use href="#fuel" x="0.6095999999999999" y="0"></use>
                    <use href="#fuel" x="0.6095999999999999" y="0.15239999999999998"></use>
                    <use href="#fuel" x="0.6095999999999999" y="0.30479999999999996"></use>
                    <use href="#fuel" x="0.6095999999999999" y="0.45719999999999994"></use>
                    <use href="#fuel" x="0.6095999999999999" y="0.6095999999999999"></use>
                    <use href="#fuel" x="0.6095999999999999" y="0.7619999999999999"></use>
                    <use href="#fuel" x="0.6095999999999999" y="0.9143999999999999"></use>
                    <use href="#fuel" x="0.6095999999999999" y="1.0667999999999997"></use>
                    <use href="#fuel" x="0.6095999999999999" y="1.2191999999999998"></use>
                    <use href="#fuel" x="0.6095999999999999" y="1.3716"></use>
                    <use href="#fuel" x="0.6095999999999999" y="1.5239999999999998"></use>
                    <use href="#fuel" x="0.6095999999999999" y="1.6763999999999997"></use>
                    <use href="#fuel" x="0.6095999999999999" y="1.8287999999999998"></use>
                    <use href="#fuel" x="0.6095999999999999" y="1.9811999999999999"></use>
                    <use href="#fuel" x="0.6095999999999999" y="2.1335999999999995"></use>
                    <use href="#fuel" x="0.7619999999999999" y="0"></use>
                    <use href="#fuel" x="0.7619999999999999" y="0.15239999999999998"></use>
                    <use href="#fuel" x="0.7619999999999999" y="0.30479999999999996"></use>
                    <use href="#fuel" x="0.7619999999999999" y="0.45719999999999994"></use>
                    <use href="#fuel" x="0.7619999999999999" y="0.6095999999999999"></use>
                    <use href="#fuel" x="0.7619999999999999" y="0.7619999999999999"></use>
                    <use href="#fuel" x="0.7619999999999999" y="0.9143999999999999"></use>
                    <use href="#fuel" x="0.7619999999999999" y="1.0667999999999997"></use>
                    <use href="#fuel" x="0.7619999999999999" y="1.2191999999999998"></use>
                    <use href="#fuel" x="0.7619999999999999" y="1.3716"></use>
                    <use href="#fuel" x="0.7619999999999999" y="1.5239999999999998"></use>
                    <use href="#fuel" x="0.7619999999999999" y="1.6763999999999997"></use>
                    <use href="#fuel" x="0.7619999999999999" y="1.8287999999999998"></use>
                    <use href="#fuel" x="0.7619999999999999" y="1.9811999999999999"></use>
                    <use href="#fuel" x="0.7619999999999999" y="2.1335999999999995"></use>
                    <use href="#fuel" x="0.9143999999999999" y="0"></use>
                    <use href="#fuel" x="0.9143999999999999" y="0.15239999999999998"></use>
                    <use href="#fuel" x="0.9143999999999999" y="0.30479999999999996"></use>
                    <use href="#fuel" x="0.9143999999999999" y="0.45719999999999994"></use>
                    <use href="#fuel" x="0.9143999999999999" y="0.6095999999999999"></use>
                    <use href="#fuel" x="0.9143999999999999" y="0.7619999999999999"></use>
                    <use href="#fuel" x="0.9143999999999999" y="0.9143999999999999"></use>
                    <use href="#fuel" x="0.9143999999999999" y="1.0667999999999997"></use>
                    <use href="#fuel" x="0.9143999999999999" y="1.2191999999999998"></use>
                    <use href="#fuel" x="0.9143999999999999" y="1.3716"></use>
                    <use href="#fuel" x="0.9143999999999999" y="1.5239999999999998"></use>
                    <use href="#fuel" x="0.9143999999999999" y="1.6763999999999997"></use>
                    <use href="#fuel" x="0.9143999999999999" y="1.8287999999999998"></use>
                    <use href="#fuel" x="0.9143999999999999" y="1.9811999999999999"></use>
                    <use href="#fuel" x="0.9143999999999999" y="2.1335999999999995"></use>
                    <use href="#fuel" x="1.0667999999999997" y="0"></use>
                    <use href="#fuel" x="1.0667999999999997" y="0.15239999999999998"></use>
                    <use href="#fuel" x="1.0667999999999997" y="0.30479999999999996"></use>
                    <use href="#fuel" x="1.0667999999999997" y="0.45719999999999994"></use>
                    <use href="#fuel" x="1.0667999999999997" y="0.6095999999999999"></use>
                    <use href="#fuel" x="1.0667999999999997" y="0.7619999999999999"></use>
                    <use href="#fuel" x="1.0667999999999997" y="0.9143999999999999"></use>
                    <use href="#fuel" x="1.0667999999999997" y="1.0667999999999997"></use>
                    <use href="#fuel" x="1.0667999999999997" y="1.2191999999999998"></use>
                    <use href="#fuel" x="1.0667999999999997" y="1.3716"></use>
                    <use href="#fuel" x="1.0667999999999997" y="1.5239999999999998"></use>
                    <use href="#fuel" x="1.0667999999999997" y="1.6763999999999997"></use>
                    <use href="#fuel" x="1.0667999999999997" y="1.8287999999999998"></use>
                    <use href="#fuel" x="1.0667999999999997" y="1.9811999999999999"></use>
                    <use href="#fuel" x="1.0667999999999997" y="2.1335999999999995"></use>
                    <use href="#fuel" x="1.2191999999999998" y="0"></use>
                    <use href="#fuel" x="1.2191999999999998" y="0.15239999999999998"></use>
                    <use href="#fuel" x="1.2191999999999998" y="0.30479999999999996"></use>
                    <use href="#fuel" x="1.2191999999999998" y="0.45719999999999994"></use>
                    <use href="#fuel" x="1.2191999999999998" y="0.6095999999999999"></use>
                    <use href="#fuel" x="1.2191999999999998" y="0.7619999999999999"></use>
                    <use href="#fuel" x="1.2191999999999998" y="0.9143999999999999"></use>
                    <use href="#fuel" x="1.2191999999999998" y="1.0667999999999997"></use>
                    <use href="#fuel" x="1.2191999999999998" y="1.2191999999999998"></use>
                    <use href="#fuel" x="1.2191999999999998" y="1.3716"></use>
                    <use href="#fuel" x="1.2191999999999998" y="1.5239999999999998"></use>
                    <use href="#fuel" x="1.2191999999999998" y="1.6763999999999997"></use>
                    <use href="#fuel" x="1.2191999999999998" y="1.8287999999999998"></use>
                    <use href="#fuel" x="1.2191999999999998" y="1.9811999999999999"></use>
                    <use href="#fuel" x="1.2191999999999998" y="2.1335999999999995"></use>
                    <use href="#fuel" x="1.3716" y="0"></use>
                    <use href="#fuel" x="1.3716" y="0.15239999999999998"></use>
                    <use href="#fuel" x="1.3716" y="0.30479999999999996"></use>
                    <use href="#fuel" x="1.3716" y="0.45719999999999994"></use>
                    <use href="#fuel" x="1.3716" y="0.6095999999999999"></use>
                    <use href="#fuel" x="1.3716" y="0.7619999999999999"></use>
                    <use href="#fuel" x="1.3716" y="0.9143999999999999"></use>
                    <use href="#fuel" x="1.3716" y="1.0667999999999997"></use>
                    <use href="#fuel" x="1.3716" y="1.2191999999999998"></use>
                    <use href="#fuel" x="1.3716" y="1.3716"></use>
                    <use href="#fuel" x="1.3716" y="1.5239999999999998"></use>
                    <use href="#fuel" x="1.3716" y="1.6763999999999997"></use>
                    <use href="#fuel" x="1.3716" y="1.8287999999999998"></use>
                    <use href="#fuel" x="1.3716" y="1.9811999999999999"></use>
                    <use href="#fuel" x="1.3716" y="2.1335999999999995"></use>
                    <use href="#fuel" x="1.5239999999999998" y="0"></use>
                    <use href="#fuel" x="1.5239999999999998" y="0.15239999999999998"></use>
                    <use href="#fuel" x="1.5239999999999998" y="0.30479999999999996"></use>
                    <use href="#fuel" x="1.5239999999999998" y="0.45719999999999994"></use>
                    <use href="#fuel" x="1.5239999999999998" y="0.6095999999999999"></use>
                    <use href="#fuel" x="1.5239999999999998" y="0.7619999999999999"></use>
                    <use href="#fuel" x="1.5239999999999998" y="0.9143999999999999"></use>
                    <use href="#fuel" x="1.5239999999999998" y="1.0667999999999997"></use>
                    <use href="#fuel" x="1.5239999999999998" y="1.2191999999999998"></use>
                    <use href="#fuel" x="1.5239999999999998" y="1.3716"></use>
                    <use href="#fuel" x="1.5239999999999998" y="1.5239999999999998"></use>
                    <use href="#fuel" x="1.5239999999999998" y="1.6763999999999997"></use>
                    <use href="#fuel" x="1.5239999999999998" y="1.8287999999999998"></use>
                    <use href="#fuel" x="1.5239999999999998" y="1.9811999999999999"></use>
                    <use href="#fuel" x="1.5239999999999998" y="2.1335999999999995"></use>
                    <use href="#fuel" x="1.6763999999999997" y="0"></use>
                    <use href="#fuel" x="1.6763999999999997" y="0.15239999999999998"></use>
                    <use href="#fuel" x="1.6763999999999997" y="0.30479999999999996"></use>
                    <use href="#fuel" x="1.6763999999999997" y="0.45719999999999994"></use>
                    <use href="#fuel" x="1.6763999999999997" y="0.6095999999999999"></use>
                    <use href="#fuel" x="1.6763999999999997" y="0.7619999999999999"></use>
                    <use href="#fuel" x="1.6763999999999997" y="0.9143999999999999"></use>
                    <use href="#fuel" x="1.6763999999999997" y="1.0667999999999997"></use>
                    <use href="#fuel" x="1.6763999999999997" y="1.2191999999999998"></use>
                    <use href="#fuel" x="1.6763999999999997" y="1.3716"></use>
                    <use href="#fuel" x="1.6763999999999997" y="1.5239999999999998"></use>
                    <use href="#fuel" x="1.6763999999999997" y="1.6763999999999997"></use>
                    <use href="#fuel" x="1.6763999999999997" y="1.8287999999999998"></use>
                    <use href="#fuel" x="1.6763999999999997" y="1.9811999999999999"></use>
                    <use href="#fuel" x="1.6763999999999997" y="2.1335999999999995"></use>
                </g>
                <line x1="4.003326" x2="4.003326" y1="0" y2="8.0692" stroke="currentColor"
                    stroke-width="0.0508"></line>
                <g>
                    <rect x="0" y="5.431631" width="0.609" height="0.0762" fill="currentColor"></rect>
                    <rect x="0" y="6.422231" width="0.609" height="0.0762" fill="currentColor"></rect>
                    <rect x="0.609" y="5.431631" width="0.0762" height="1.0668"
                        fill="currentColor"></rect>
                    <g transform="translate(0 5.507831)">
                        <use href="#fuel" x="0" y="0"></use>
                        <use href="#fuel" x="0" y="0.15239999999999998"></use>
                        <use href="#fuel" x="0" y="0.30479999999999996"></use>
                        <use href="#fuel" x="0" y="0.45719999999999994"></use>
                        <use href="#fuel" x="0" y="0.6095999999999999"></use>
                        <use href="#fuel" x="0" y="0.7619999999999999"></use>
                        <use href="#fuel" x="0.15239999999999998" y="0"></use>
                        <use href="#fuel" x="0.15239999999999998" y="0.15239999999999998"></use>
                        <use href="#fuel" x="0.15239999999999998" y="0.30479999999999996"></use>
                        <use href="#fuel" x="0.15239999999999998" y="0.45719999999999994"></use>
                        <use href="#fuel" x="0.15239999999999998" y="0.6095999999999999"></use>
                        <use href="#fuel" x="0.15239999999999998" y="0.7619999999999999"></use>
                        <use href="#fuel" x="0.30479999999999996" y="0"></use>
                        <use href="#fuel" x="0.30479999999999996" y="0.15239999999999998"></use>
                        <use href="#fuel" x="0.30479999999999996" y="0.30479999999999996"></use>
                        <use href="#fuel" x="0.30479999999999996" y="0.45719999999999994"></use>
                        <use href="#fuel" x="0.30479999999999996" y="0.6095999999999999"></use>
                        <use href="#fuel" x="0.30479999999999996" y="0.7619999999999999"></use>
                        <use href="#fuel" x="0.45719999999999994" y="0"></use>
                        <use href="#fuel" x="0.45719999999999994" y="0.15239999999999998"></use>
                        <use href="#fuel" x="0.45719999999999994" y="0.30479999999999996"></use>
                        <use href="#fuel" x="0.45719999999999994" y="0.45719999999999994"></use>
                        <use href="#fuel" x="0.45719999999999994" y="0.6095999999999999"></use>
                        <use href="#fuel" x="0.45719999999999994" y="0.7619999999999999"></use>
                    </g>
                </g>
                <g transform="translate(8.2705 4.0346)">
                    <use href="#blueRampTrench"></use>
                    <g transform="scale(1 -1)">
                        <use href="#blueRampTrench"></use>
                    </g>
                    <rect x="-4.24215" y="-0.5969" width="1.1945589999999995" height="1.1938"
                        fill="currentColor" filter="url(#dark)"></rect>
                    <polygon
                        points="-3.033074,0 -3.340112,-0.527908 -3.949688,-0.527908 -4.254476,0 -3.949688,0.527908 -3.340112,0.527908"
                        stroke="gray" fill="transparent" stroke-width="0.0254"></polygon>
                    <circle r="0.2" stroke="gray" stroke-width="0.02" fill="transparent"
                        cx="-3.645694" cy="0"></circle>
                    <circle r="0.1" stroke="gray" stroke-width="0.02" fill="transparent"
                        cx="-3.645694" cy="0"></circle>
                    <rect x="-8.271493" y="-0.784225" width="1.1455549999999999"
                        height="0.9905999999999999" fill="black"></rect>
                    <line x1="-7.208488" y1="-0.885825" x2="-7.208488" y2="0.307975"
                        stroke="currentColor" stroke-width="0.042164"></line>
                    <rect x="-7.252938" y="0.12065000000000001" height="0.0381" width="0.0889"
                        fill="currentColor"></rect>
                    <rect x="-7.252938" y="-0.7366" height="0.0381" width="0.0889"
                        fill="currentColor"></rect>
                </g>
                <line x1="0" y1="0.259556" x2="-0.2" y2="0.259556" stroke="white"
                    stroke-width="0.0254"></line>
                <line x1="0" y1="1.072356" x2="-0.2" y2="1.072356" stroke="white"
                    stroke-width="0.0254"></line>
                <g transform="translate(-0.15239999999999998 0.285)">
                    <use href="#fuel" x="0" y="0"></use>
                    <use href="#fuel" x="0" y="0.15239999999999998"></use>
                    <use href="#fuel" x="0" y="0.30479999999999996"></use>
                    <use href="#fuel" x="0" y="0.45719999999999994"></use>
                    <use href="#fuel" x="0" y="0.6095999999999999"></use>
                </g>
            </g>
        </defs>
        <g id="tape">
            <line id="centerline" x1="8.2705" x2="8.2705" y1="0" y2="8.0692" stroke="white"
                stroke-width="0.0508"></line>
            <line id="midline" x1="0" x2="16.541" y1="4.0346" y2="4.0346" stroke="black"
                stroke-width="0.1016"></line>
        </g>
        <use x="0" y="0" width="16.541" height="8.0692" href="#blueSide" color="#1c1c99ff"></use>
        <g id="redSide" transform="translate(16.541 8.0692) rotate(180)">
            <use x="0" y="0" width="16.541" height="8.0692" href="#blueSide" color="#9e2323ff"></use>
        </g>
        <rect id="wall" x="-0.0254" y="-0.0254" width="16.5918" height="8.120000000000001"
            stroke="white" stroke-width="0.0508" fill="transparent"></rect>

    </g>
  <g transform="scale(1 -1) translate(0 -8.0692)">
    <line x1="4.5346" y1="0.5906" x2="4.5631" y2="0.5904" stroke="hsl(146.95, 100%, 50%)" stroke-width="0.05"/>
    <line x1="4.5631" y1="0.5904" x2="4.6303" y2="0.5900" stroke="hsl(53.21, 100%, 50%)" stroke-width="0.05"/>
    <line x1="4.6303" y1="0.5900" x2="4.7183" y2="0.5899" stroke="hsl(53.19, 100%, 50%)" stroke-width="0.05"/>
    <line x1="4.7183" y1="0.5899" x2="4.8268" y2="0.5902" stroke="hsl(53.17, 100%, 50%)" stroke-width="0.05"/>
    <line x1="4.8268" y1="0.5902" x2="4.9559" y2="0.5915" stroke="hsl(53.12, 100%, 50%)" stroke-width="0.05"/>
    <line x1="4.9559" y1="0.5915" x2="5.1055" y2="0.5940" stroke="hsl(53.05, 100%, 50%)" stroke-width="0.05"/>
    <line x1="5.1055" y1="0.5940" x2="5.2756" y2="0.5985" stroke="hsl(52.91, 100%, 50%)" stroke-width="0.05"/>
    <line x1="5.2756" y1="0.5985" x2="5.4660" y2="0.6058" stroke="hsl(52.64, 100%, 50%)" stroke-width="0.05"/>
    <line x1="5.4660" y1="0.6058" x2="5.5960" y2="0.6121" stroke="hsl(49.09, 100%, 50%)" stroke-width="0.05"/>
    <line x1="5.5960" y1="0.6121" x2="5.7334" y2="0.6201" stroke="hsl(49.35, 100%, 50%)" stroke-width="0.05"/>
    <line x1="5.7334" y1="0.6201" x2="5.8783" y2="0.6298" stroke="hsl(49.58, 100%, 50%)" stroke-width="0.05"/>
    <line x1="5.8783" y1="0.6298" x2="6.0306" y2="0.6412" stroke="hsl(49.76, 100%, 50%)" stroke-width="0.05"/>
    <line x1="6.0306" y1="0.6412" x2="6.1903" y2="0.6543" stroke="hsl(49.09, 100%, 50%)" stroke-width="0.05"/>
    <line x1="6.1903" y1="0.6543" x2="6.3569" y2="0.6693" stroke="hsl(43.29, 100%, 50%)" stroke-width="0.05"/>
    <line x1="6.3569" y1="0.6693" x2="6.5272" y2="0.6877" stroke="hsl(32.63, 100%, 50%)" stroke-width="0.05"/>
    <line x1="6.5272" y1="0.6877" x2="6.6928" y2="0.7136" stroke="hsl(94.89, 100%, 50%)" stroke-width="0.05"/>
    <line x1="6.6928" y1="0.7136" x2="6.8476" y2="0.7472" stroke="hsl(80.34, 100%, 50%)" stroke-width="0.05"/>
    <line x1="6.8476" y1="0.7472" x2="6.9915" y2="0.7840" stroke="hsl(69.16, 100%, 50%)" stroke-width="0.05"/>
    <line x1="6.9915" y1="0.7840" x2="7.1249" y2="0.8214" stroke="hsl(67.57, 100%, 50%)" stroke-width="0.05"/>
    <line x1="7.1249" y1="0.8214" x2="7.2478" y2="0.8587" stroke="hsl(67.77, 100%, 50%)" stroke-width="0.05"/>
    <line x1="7.2478" y1="0.8587" x2="7.3603" y2="0.8957" stroke="hsl(68.75, 100%, 50%)" stroke-width="0.05"/>
    <line x1="7.3603" y1="0.8957" x2="7.4620" y2="0.9329" stroke="hsl(70.44, 100%, 50%)" stroke-width="0.05"/>
    <line x1="7.4620" y1="0.9329" x2="7.5529" y2="0.9707" stroke="hsl(71.91, 100%, 50%)" stroke-width="0.05"/>
    <line x1="7.5529" y1="0.9707" x2="7.6326" y2="1.0098" stroke="hsl(73.13, 100%, 50%)" stroke-width="0.05"/>
    <line x1="7.6326" y1="1.0098" x2="7.7009" y2="1.0509" stroke="hsl(76.77, 100%, 50%)" stroke-width="0.05"/>
    <line x1="7.7009" y1="1.0509" x2="7.7571" y2="1.0943" stroke="hsl(83.31, 100%, 50%)" stroke-width="0.05"/>
    <line x1="7.7571" y1="1.0943" x2="7.8000" y2="1.1400" stroke="hsl(93.13, 100%, 50%)" stroke-width="0.05"/>
    <line x1="7.8000" y1="1.1400" x2="7.8291" y2="1.2134" stroke="hsl(143.82, 100%, 50%)" stroke-width="0.05"/>
    <line x1="7.8291" y1="1.2134" x2="7.8296" y2="1.2956" stroke="hsl(39.88, 100%, 50%)" stroke-width="0.05"/>
    <line x1="7.8296" y1="1.2956" x2="7.8233" y2="1.3818" stroke="hsl(9.32, 100%, 50%)" stroke-width="0.05"/>
    <line x1="7.8233" y1="1.3818" x2="7.8155" y2="1.4679" stroke="hsl(0.33, 100%, 50%)" stroke-width="0.05"/>
    <line x1="7.8155" y1="1.4679" x2="7.8076" y2="1.5539" stroke="hsl(0.00, 100%, 50%)" stroke-width="0.05"/>
    <line x1="7.8076" y1="1.5539" x2="7.8000" y2="1.6400" stroke="hsl(1.94, 100%, 50%)" stroke-width="0.05"/>
    <line x1="7.8000" y1="1.6400" x2="7.7968" y2="1.7071" stroke="hsl(31.94, 100%, 50%)" stroke-width="0.05"/>
    <line x1="7.7968" y1="1.7071" x2="7.7965" y2="1.7715" stroke="hsl(5.03, 100%, 50%)" stroke-width="0.05"/>
    <line x1="7.7965" y1="1.7715" x2="7.7964" y2="1.8355" stroke="hsl(0.19, 100%, 50%)" stroke-width="0.05"/>
    <line x1="7.7964" y1="1.8355" x2="7.7964" y2="1.8994" stroke="hsl(0.01, 100%, 50%)" stroke-width="0.05"/>
    <line x1="7.7964" y1="1.8994" x2="7.7963" y2="1.9633" stroke="hsl(0.08, 100%, 50%)" stroke-width="0.05"/>
    <line x1="7.7963" y1="1.9633" x2="7.7962" y2="2.0272" stroke="hsl(0.20, 100%, 50%)" stroke-width="0.05"/>
    <line x1="7.7962" y1="2.0272" x2="7.7960" y2="2.0911" stroke="hsl(0.30, 100%, 50%)" stroke-width="0.05"/>
    <line x1="7.7960" y1="2.0911" x2="7.7958" y2="2.1550" stroke="hsl(0.33, 100%, 50%)" stroke-width="0.05"/>
    <line x1="7.7958" y1="2.1550" x2="7.7955" y2="2.2189" stroke="hsl(0.30, 100%, 50%)" stroke-width="0.05"/>
    <line x1="7.7955" y1="2.2189" x2="7.7951" y2="2.2828" stroke="hsl(0.25, 100%, 50%)" stroke-width="0.05"/>
    <line x1="7.7951" y1="2.2828" x2="7.7947" y2="2.3466" stroke="hsl(0.17, 100%, 50%)" stroke-width="0.05"/>
    <line x1="7.7947" y1="2.3466" x2="7.7943" y2="2.4105" stroke="hsl(0.12, 100%, 50%)" stroke-width="0.05"/>
    <line x1="7.7943" y1="2.4105" x2="7.7938" y2="2.4744" stroke="hsl(0.08, 100%, 50%)" stroke-width="0.05"/>
    <line x1="7.7938" y1="2.4744" x2="7.7934" y2="2.5383" stroke="hsl(0.04, 100%, 50%)" stroke-width="0.05"/>
    <line x1="7.7934" y1="2.5383" x2="7.7929" y2="2.6022" stroke="hsl(0.02, 100%, 50%)" stroke-width="0.05"/>
    <line x1="7.7929" y1="2.6022" x2="7.7924" y2="2.6660" stroke="hsl(0.00, 100%, 50%)" stroke-width="0.05"/>
    <line x1="7.7924" y1="2.6660" x2="7.7920" y2="2.7299" stroke="hsl(0.02, 100%, 50%)" stroke-width="0.05"/>
    <line x1="7.7920" y1="2.7299" x2="7.7915" y2="2.7938" stroke="hsl(0.13, 100%, 50%)" stroke-width="0.05"/>
    <line x1="7.7915" y1="2.7938" x2="7.7910" y2="2.8577" stroke="hsl(0.30, 100%, 50%)" stroke-width="0.05"/>
    <line x1="7.7910" y1="2.8577" x2="7.7906" y2="2.9216" stroke="hsl(0.28, 100%, 50%)" stroke-width="0.05"/>
    <line x1="7.7906" y1="2.9216" x2="7.7901" y2="2.9854" stroke="hsl(0.46, 100%, 50%)" stroke-width="0.05"/>
    <line x1="7.7901" y1="2.9854" x2="7.7897" y2="3.0490" stroke="hsl(1.13, 100%, 50%)" stroke-width="0.05"/>
    <line x1="7.7897" y1="3.0490" x2="7.7894" y2="3.1123" stroke="hsl(2.35, 100%, 50%)" stroke-width="0.05"/>
    <line x1="7.7894" y1="3.1123" x2="7.7893" y2="3.1749" stroke="hsl(4.79, 100%, 50%)" stroke-width="0.05"/>
    <line x1="7.7893" y1="3.1749" x2="7.7896" y2="3.2360" stroke="hsl(9.18, 100%, 50%)" stroke-width="0.05"/>
    <line x1="7.7896" y1="3.2360" x2="7.7908" y2="3.2946" stroke="hsl(15.73, 100%, 50%)" stroke-width="0.05"/>
    <line x1="7.7908" y1="3.2946" x2="7.7935" y2="3.3493" stroke="hsl(22.40, 100%, 50%)" stroke-width="0.05"/>
    <line x1="7.7935" y1="3.3493" x2="7.7971" y2="3.3989" stroke="hsl(26.37, 100%, 50%)" stroke-width="0.05"/>
    <line x1="7.7971" y1="3.3989" x2="7.7868" y2="3.4400" stroke="hsl(142.44, 100%, 50%)" stroke-width="0.05"/>
    <line x1="7.7868" y1="3.4400" x2="7.7570" y2="3.4611" stroke="hsl(146.03, 100%, 50%)" stroke-width="0.05"/>
    <line x1="7.7570" y1="3.4611" x2="7.7212" y2="3.4609" stroke="hsl(96.91, 100%, 50%)" stroke-width="0.05"/>
    <line x1="7.7212" y1="3.4609" x2="7.6818" y2="3.4495" stroke="hsl(50.18, 100%, 50%)" stroke-width="0.05"/>
    <line x1="7.6818" y1="3.4495" x2="7.6338" y2="3.4339" stroke="hsl(50.67, 100%, 50%)" stroke-width="0.05"/>
    <line x1="7.6338" y1="3.4339" x2="7.5770" y2="3.4141" stroke="hsl(51.09, 100%, 50%)" stroke-width="0.05"/>
    <line x1="7.5770" y1="3.4141" x2="7.5115" y2="3.3899" stroke="hsl(51.48, 100%, 50%)" stroke-width="0.05"/>
    <line x1="7.5115" y1="3.3899" x2="7.4372" y2="3.3613" stroke="hsl(51.79, 100%, 50%)" stroke-width="0.05"/>
    <line x1="7.4372" y1="3.3613" x2="7.3541" y2="3.3283" stroke="hsl(52.00, 100%, 50%)" stroke-width="0.05"/>
    <line x1="7.3541" y1="3.3283" x2="7.2622" y2="3.2908" stroke="hsl(52.02, 100%, 50%)" stroke-width="0.05"/>
    <line x1="7.2622" y1="3.2908" x2="7.1615" y2="3.2486" stroke="hsl(51.85, 100%, 50%)" stroke-width="0.05"/>
    <line x1="7.1615" y1="3.2486" x2="7.0521" y2="3.2019" stroke="hsl(51.89, 100%, 50%)" stroke-width="0.05"/>
    <line x1="7.0521" y1="3.2019" x2="6.9340" y2="3.1506" stroke="hsl(51.99, 100%, 50%)" stroke-width="0.05"/>
    <line x1="6.9340" y1="3.1506" x2="6.8071" y2="3.0947" stroke="hsl(52.02, 100%, 50%)" stroke-width="0.05"/>
    <line x1="6.8071" y1="3.0947" x2="6.6715" y2="3.0341" stroke="hsl(51.90, 100%, 50%)" stroke-width="0.05"/>
    <line x1="6.6715" y1="3.0341" x2="6.5273" y2="2.9688" stroke="hsl(50.79, 100%, 50%)" stroke-width="0.05"/>
    <line x1="6.5273" y1="2.9688" x2="6.3861" y2="2.8990" stroke="hsl(79.34, 100%, 50%)" stroke-width="0.05"/>
    <line x1="6.3861" y1="2.8990" x2="6.2579" y2="2.8295" stroke="hsl(65.26, 100%, 50%)" stroke-width="0.05"/>
    <line x1="6.2579" y1="2.8295" x2="6.1406" y2="2.7656" stroke="hsl(65.63, 100%, 50%)" stroke-width="0.05"/>
    <line x1="6.1406" y1="2.7656" x2="6.0338" y2="2.7087" stroke="hsl(66.40, 100%, 50%)" stroke-width="0.05"/>
    <line x1="6.0338" y1="2.7087" x2="5.9372" y2="2.6595" stroke="hsl(67.37, 100%, 50%)" stroke-width="0.05"/>
    <line x1="5.9372" y1="2.6595" x2="5.8504" y2="2.6184" stroke="hsl(66.67, 100%, 50%)" stroke-width="0.05"/>
    <line x1="5.8504" y1="2.6184" x2="5.7723" y2="2.5855" stroke="hsl(59.09, 100%, 50%)" stroke-width="0.05"/>
    <line x1="5.7723" y1="2.5855" x2="5.7018" y2="2.5607" stroke="hsl(59.01, 100%, 50%)" stroke-width="0.05"/>
    <line x1="5.7018" y1="2.5607" x2="5.5737" y2="2.5379" stroke="hsl(47.75, 100%, 50%)" stroke-width="0.05"/>
    <line x1="5.5737" y1="2.5379" x2="5.4428" y2="2.5313" stroke="hsl(0.91, 100%, 50%)" stroke-width="0.05"/>
    <line x1="5.4428" y1="2.5313" x2="5.3118" y2="2.5249" stroke="hsl(0.08, 100%, 50%)" stroke-width="0.05"/>
    <line x1="5.3118" y1="2.5249" x2="5.1808" y2="2.5185" stroke="hsl(0.03, 100%, 50%)" stroke-width="0.05"/>
    <line x1="5.1808" y1="2.5185" x2="5.0498" y2="2.5122" stroke="hsl(0.01, 100%, 50%)" stroke-width="0.05"/>
    <line x1="5.0498" y1="2.5122" x2="4.9189" y2="2.5059" stroke="hsl(0.01, 100%, 50%)" stroke-width="0.05"/>
    <line x1="4.9189" y1="2.5059" x2="4.7879" y2="2.4996" stroke="hsl(0.01, 100%, 50%)" stroke-width="0.05"/>
    <line x1="4.7879" y1="2.4996" x2="4.6569" y2="2.4933" stroke="hsl(0.00, 100%, 50%)" stroke-width="0.05"/>
    <line x1="4.6569" y1="2.4933" x2="4.5260" y2="2.4870" stroke="hsl(0.01, 100%, 50%)" stroke-width="0.05"/>
    <line x1="4.5260" y1="2.4870" x2="4.3950" y2="2.4807" stroke="hsl(0.01, 100%, 50%)" stroke-width="0.05"/>
    <line x1="4.3950" y1="2.4807" x2="4.2640" y2="2.4744" stroke="hsl(0.02, 100%, 50%)" stroke-width="0.05"/>
    <line x1="4.2640" y1="2.4744" x2="4.1330" y2="2.4682" stroke="hsl(0.05, 100%, 50%)" stroke-width="0.05"/>
    <line x1="4.1330" y1="2.4682" x2="4.0021" y2="2.4620" stroke="hsl(0.22, 100%, 50%)" stroke-width="0.05"/>
    <line x1="4.0021" y1="2.4620" x2="3.8710" y2="2.4586" stroke="hsl(8.10, 100%, 50%)" stroke-width="0.05"/>
    <line x1="3.8710" y1="2.4586" x2="3.7605" y2="2.4581" stroke="hsl(53.14, 100%, 50%)" stroke-width="0.05"/>
    <line x1="3.7605" y1="2.4581" x2="3.6292" y2="2.4577" stroke="hsl(53.03, 100%, 50%)" stroke-width="0.05"/>
    <line x1="3.6292" y1="2.4577" x2="3.4954" y2="2.4558" stroke="hsl(41.28, 100%, 50%)" stroke-width="0.05"/>
    <line x1="3.4954" y1="2.4558" x2="3.3823" y2="2.4502" stroke="hsl(66.02, 100%, 50%)" stroke-width="0.05"/>
    <line x1="3.3823" y1="2.4502" x2="3.2949" y2="2.4398" stroke="hsl(67.32, 100%, 50%)" stroke-width="0.05"/>
    <line x1="3.2949" y1="2.4398" x2="3.2338" y2="2.4245" stroke="hsl(69.22, 100%, 50%)" stroke-width="0.05"/>
    <line x1="3.2338" y1="2.4245" x2="3.2000" y2="2.4056" stroke="hsl(71.95, 100%, 50%)" stroke-width="0.05"/>
    <line x1="3.2000" y1="2.4056" x2="3.1890" y2="2.3785" stroke="hsl(48.79, 100%, 50%)" stroke-width="0.05"/>
    <line x1="3.1890" y1="2.3785" x2="3.1892" y2="2.3468" stroke="hsl(0.02, 100%, 50%)" stroke-width="0.05"/>
    <line x1="3.1892" y1="2.3468" x2="3.1894" y2="2.3152" stroke="hsl(0.00, 100%, 50%)" stroke-width="0.05"/>
    <line x1="3.1894" y1="2.3152" x2="3.1896" y2="2.2835" stroke="hsl(0.00, 100%, 50%)" stroke-width="0.05"/>
    <line x1="3.1896" y1="2.2835" x2="3.1899" y2="2.2519" stroke="hsl(0.00, 100%, 50%)" stroke-width="0.05"/>
    <line x1="3.1899" y1="2.2519" x2="3.1901" y2="2.2202" stroke="hsl(0.00, 100%, 50%)" stroke-width="0.05"/>
    <line x1="3.1901" y1="2.2202" x2="3.1903" y2="2.1886" stroke="hsl(0.00, 100%, 50%)" stroke-width="0.05"/>
    <line x1="3.1903" y1="2.1886" x2="3.1905" y2="2.1569" stroke="hsl(0.00, 100%, 50%)" stroke-width="0.05"/>
    <line x1="3.1905" y1="2.1569" x2="3.1907" y2="2.1253" stroke="hsl(0.00, 100%, 50%)" stroke-width="0.05"/>
    <line x1="3.1907" y1="2.1253" x2="3.1909" y2="2.0936" stroke="hsl(0.00, 100%, 50%)" stroke-width="0.05"/>
    <line x1="3.1909" y1="2.0936" x2="3.1911" y2="2.0619" stroke="hsl(0.00, 100%, 50%)" stroke-width="0.05"/>
    <line x1="3.1911" y1="2.0619" x2="3.1913" y2="2.0303" stroke="hsl(0.00, 100%, 50%)" stroke-width="0.05"/>
    <line x1="3.1913" y1="2.0303" x2="3.1915" y2="1.9986" stroke="hsl(0.00, 100%, 50%)" stroke-width="0.05"/>
    <line x1="3.1915" y1="1.9986" x2="3.1917" y2="1.9670" stroke="hsl(0.00, 100%, 50%)" stroke-width="0.05"/>
    <line x1="3.1917" y1="1.9670" x2="3.1919" y2="1.9353" stroke="hsl(0.00, 100%, 50%)" stroke-width="0.05"/>
    <line x1="3.1919" y1="1.9353" x2="3.1921" y2="1.9037" stroke="hsl(0.00, 100%, 50%)" stroke-width="0.05"/>
    <line x1="3.1921" y1="1.9037" x2="3.1923" y2="1.8720" stroke="hsl(0.00, 100%, 50%)" stroke-width="0.05"/>
    <line x1="3.1923" y1="1.8720" x2="3.1926" y2="1.8404" stroke="hsl(0.00, 100%, 50%)" stroke-width="0.05"/>
    <line x1="3.1926" y1="1.8404" x2="3.1928" y2="1.8087" stroke="hsl(0.00, 100%, 50%)" stroke-width="0.05"/>
    <line x1="3.1928" y1="1.8087" x2="3.1929" y2="1.7771" stroke="hsl(0.00, 100%, 50%)" stroke-width="0.05"/>
    <line x1="3.1929" y1="1.7771" x2="3.1931" y2="1.7454" stroke="hsl(0.00, 100%, 50%)" stroke-width="0.05"/>
    <line x1="3.1931" y1="1.7454" x2="3.1933" y2="1.7138" stroke="hsl(0.00, 100%, 50%)" stroke-width="0.05"/>
    <line x1="3.1933" y1="1.7138" x2="3.1935" y2="1.6821" stroke="hsl(0.00, 100%, 50%)" stroke-width="0.05"/>
    <line x1="3.1935" y1="1.6821" x2="3.1937" y2="1.6504" stroke="hsl(0.00, 100%, 50%)" stroke-width="0.05"/>
    <line x1="3.1937" y1="1.6504" x2="3.1939" y2="1.6188" stroke="hsl(0.00, 100%, 50%)" stroke-width="0.05"/>
    <line x1="3.1939" y1="1.6188" x2="3.1941" y2="1.5871" stroke="hsl(0.00, 100%, 50%)" stroke-width="0.05"/>
    <line x1="3.1941" y1="1.5871" x2="3.1943" y2="1.5555" stroke="hsl(0.00, 100%, 50%)" stroke-width="0.05"/>
    <line x1="3.1943" y1="1.5555" x2="3.1945" y2="1.5238" stroke="hsl(0.00, 100%, 50%)" stroke-width="0.05"/>
    <line x1="3.1945" y1="1.5238" x2="3.1947" y2="1.4922" stroke="hsl(0.00, 100%, 50%)" stroke-width="0.05"/>
    <line x1="3.1947" y1="1.4922" x2="3.1949" y2="1.4605" stroke="hsl(0.00, 100%, 50%)" stroke-width="0.05"/>
    <line x1="3.1949" y1="1.4605" x2="3.1951" y2="1.4289" stroke="hsl(0.00, 100%, 50%)" stroke-width="0.05"/>
    <line x1="3.1951" y1="1.4289" x2="3.1953" y2="1.3972" stroke="hsl(0.00, 100%, 50%)" stroke-width="0.05"/>
    <line x1="3.1953" y1="1.3972" x2="3.1955" y2="1.3656" stroke="hsl(0.00, 100%, 50%)" stroke-width="0.05"/>
    <line x1="3.1955" y1="1.3656" x2="3.1957" y2="1.3339" stroke="hsl(0.00, 100%, 50%)" stroke-width="0.05"/>
    <line x1="3.1957" y1="1.3339" x2="3.1958" y2="1.3022" stroke="hsl(0.00, 100%, 50%)" stroke-width="0.05"/>
    <line x1="3.1958" y1="1.3022" x2="3.1960" y2="1.2706" stroke="hsl(0.00, 100%, 50%)" stroke-width="0.05"/>
    <line x1="3.1960" y1="1.2706" x2="3.1962" y2="1.2389" stroke="hsl(0.00, 100%, 50%)" stroke-width="0.05"/>
    <line x1="3.1962" y1="1.2389" x2="3.1964" y2="1.2073" stroke="hsl(0.00, 100%, 50%)" stroke-width="0.05"/>
    <line x1="3.1964" y1="1.2073" x2="3.1966" y2="1.1756" stroke="hsl(0.00, 100%, 50%)" stroke-width="0.05"/>
    <line x1="3.1966" y1="1.1756" x2="3.1968" y2="1.1440" stroke="hsl(0.00, 100%, 50%)" stroke-width="0.05"/>
    <line x1="3.1968" y1="1.1440" x2="3.1970" y2="1.1123" stroke="hsl(0.00, 100%, 50%)" stroke-width="0.05"/>
    <line x1="3.1970" y1="1.1123" x2="3.1972" y2="1.0807" stroke="hsl(0.00, 100%, 50%)" stroke-width="0.05"/>
    <line x1="3.1972" y1="1.0807" x2="3.1973" y2="1.0490" stroke="hsl(0.00, 100%, 50%)" stroke-width="0.05"/>
    <line x1="3.1973" y1="1.0490" x2="3.1975" y2="1.0173" stroke="hsl(0.00, 100%, 50%)" stroke-width="0.05"/>
    <line x1="3.1975" y1="1.0173" x2="3.1977" y2="0.9857" stroke="hsl(0.00, 100%, 50%)" stroke-width="0.05"/>
    <line x1="3.1977" y1="0.9857" x2="3.1979" y2="0.9540" stroke="hsl(0.00, 100%, 50%)" stroke-width="0.05"/>
    <line x1="3.1979" y1="0.9540" x2="3.1981" y2="0.9224" stroke="hsl(0.00, 100%, 50%)" stroke-width="0.05"/>
    <line x1="3.1981" y1="0.9224" x2="3.1983" y2="0.8907" stroke="hsl(0.00, 100%, 50%)" stroke-width="0.05"/>
    <line x1="3.1983" y1="0.8907" x2="3.1984" y2="0.8591" stroke="hsl(0.00, 100%, 50%)" stroke-width="0.05"/>
    <line x1="3.1984" y1="0.8591" x2="3.1986" y2="0.8274" stroke="hsl(0.00, 100%, 50%)" stroke-width="0.05"/>
    <line x1="3.1986" y1="0.8274" x2="3.1988" y2="0.7958" stroke="hsl(0.00, 100%, 50%)" stroke-width="0.05"/>
    <line x1="3.1988" y1="0.7958" x2="3.1990" y2="0.7641" stroke="hsl(0.00, 100%, 50%)" stroke-width="0.05"/>
    <line x1="3.1990" y1="0.7641" x2="3.1992" y2="0.7325" stroke="hsl(0.00, 100%, 50%)" stroke-width="0.05"/>
    <line x1="3.1992" y1="0.7325" x2="3.1994" y2="0.7008" stroke="hsl(0.00, 100%, 50%)" stroke-width="0.05"/>
    <line x1="3.1994" y1="0.7008" x2="3.1995" y2="0.6691" stroke="hsl(0.00, 100%, 50%)" stroke-width="0.05"/>
    <line x1="3.1995" y1="0.6691" x2="3.1997" y2="0.6375" stroke="hsl(0.00, 100%, 50%)" stroke-width="0.05"/>
    <line x1="3.1997" y1="0.6375" x2="3.1999" y2="0.6058" stroke="hsl(0.00, 100%, 50%)" stroke-width="0.05"/>
    <line x1="3.1999" y1="0.6058" x2="3.2000" y2="0.5900" stroke="hsl(63.95, 100%, 50%)" stroke-width="0.05"/>
    <polygon points="4.6523,1.1532 5.0971,0.4729 4.4169,0.0280 3.9720,0.7083" fill="rgba(0,0,0,0.12)" stroke="#000000" stroke-width="0.04"/><circle cx="4.5346" cy="0.5906" r="0.03" fill="#ffffff" stroke="#000000" stroke-width="0.015"/><polygon points="4.9479,0.8609 4.8660,0.8492 4.9043,0.7906" fill="#ffffff" stroke="#000000" stroke-width="0.02"/>
    <polygon points="5.5836,1.1683 6.0285,0.4881 5.3483,0.0432 4.9034,0.7234" fill="rgba(0,0,0,0.12)" stroke="#000000" stroke-width="0.04"/><circle cx="5.4660" cy="0.6058" r="0.03" fill="#ffffff" stroke="#000000" stroke-width="0.015"/><polygon points="5.8793,0.8761 5.7974,0.8643 5.8357,0.8057" fill="#ffffff" stroke="#000000" stroke-width="0.02"/>
    <polygon points="7.3936,1.5464 8.2064,1.5464 8.2064,0.7336 7.3936,0.7336" fill="rgba(0,0,0,0.12)" stroke="#000000" stroke-width="0.04"/><circle cx="7.8000" cy="1.1400" r="0.03" fill="#ffffff" stroke="#000000" stroke-width="0.015"/><polygon points="7.8000,1.6339 7.7650,1.5589 7.8350,1.5589" fill="#ffffff" stroke="#000000" stroke-width="0.02"/>
    <polygon points="7.3936,2.0464 8.2064,2.0464 8.2064,1.2336 7.3936,1.2336" fill="rgba(0,0,0,0.12)" stroke="#000000" stroke-width="0.04"/><circle cx="7.8000" cy="1.6400" r="0.03" fill="#ffffff" stroke="#000000" stroke-width="0.015"/><polygon points="7.8000,2.1339 7.7650,2.0589 7.8350,2.0589" fill="#ffffff" stroke="#000000" stroke-width="0.02"/>
    <polygon points="7.2545,3.6568 8.0036,3.9723 8.3191,3.2232 7.5701,2.9077" fill="rgba(0,0,0,0.12)" stroke="#000000" stroke-width="0.04"/><circle cx="7.7868" cy="3.4400" r="0.03" fill="#ffffff" stroke="#000000" stroke-width="0.015"/><polygon points="7.5951,3.8952 7.5920,3.8125 7.6565,3.8396" fill="#ffffff" stroke="#000000" stroke-width="0.02"/>
    <polygon points="5.5299,2.0123 5.1534,2.7327 5.8738,3.1092 6.2503,2.3888" fill="rgba(0,0,0,0.12)" stroke="#000000" stroke-width="0.04"/><circle cx="5.7018" cy="2.5607" r="0.03" fill="#ffffff" stroke="#000000" stroke-width="0.015"/><polygon points="5.2641,2.3320 5.3468,2.3357 5.3144,2.3977" fill="#ffffff" stroke="#000000" stroke-width="0.02"/>
    <polygon points="3.7125,1.9062 3.3186,2.6171 4.0295,3.0111 4.4234,2.3001" fill="rgba(0,0,0,0.12)" stroke="#000000" stroke-width="0.04"/><circle cx="3.8710" cy="2.4586" r="0.03" fill="#ffffff" stroke="#000000" stroke-width="0.015"/><polygon points="3.4390,2.2192 3.5215,2.2250 3.4876,2.2862" fill="#ffffff" stroke="#000000" stroke-width="0.02"/>
    <polygon points="3.0281,1.8572 2.6516,2.5776 3.3719,2.9540 3.7484,2.2337" fill="rgba(0,0,0,0.12)" stroke="#000000" stroke-width="0.04"/><circle cx="3.2000" cy="2.4056" r="0.03" fill="#ffffff" stroke="#000000" stroke-width="0.015"/><polygon points="2.7623,2.1768 2.8450,2.1806 2.8125,2.2426" fill="#ffffff" stroke="#000000" stroke-width="0.02"/>
    <polygon points="2.7936,0.1836 2.7936,0.9964 3.6064,0.9964 3.6064,0.1836" fill="rgba(0,0,0,0.12)" stroke="#000000" stroke-width="0.04"/><circle cx="3.2000" cy="0.5900" r="0.03" fill="#ffffff" stroke="#000000" stroke-width="0.015"/><polygon points="2.7061,0.5900 2.7811,0.5550 2.7811,0.6250" fill="#ffffff" stroke="#000000" stroke-width="0.02"/>
  </g>
  <text x="-0.4" y="-0.15" font-size="0.32" font-family="monospace" fill="white" stroke="black" stroke-width="0.02" paint-order="stroke fill">BASE  swerve-weak-high-dt · RightBump1</text>
</svg>
