<svg xmlns="http://www.w3.org/2000/svg" viewBox="-0.5 -0.5 17.541 9.0692" width="2631" height="1360">
  <g id="field" transform="scale(1 -1) translate(0 -8.0692)">
        <defs>
            <filter id="dark">
                <feComponentTransfer>
                    <feFuncR type="linear" slope="0.5"></feFuncR>
                    <feFuncG type="linear" slope="0.5"></feFuncG>
                    <feFuncB type="linear" slope="0.5"></feFuncB>
                </feComponentTransfer>
            </filter>
            <circle id="fuel" cx="0.07619999999999999" cy="0.07619999999999999"
                r="0.07505699999999998" fill="#B1902F"></circle>
            <g id="blueRampTrench">
                <rect height="0.3055620000000001" width="1.193852" x="-4.2426200000000005"
                    y="2.450338" fill="currentColor" filter="url(#dark)"></rect>
                <rect x="-4.208718" y="0.5940749999999999" width="0.563024" height="1.856263"
                    fill="currentColor"></rect>
                <rect x="-3.645694" y="0.5940749999999999" width="0.563024" height="1.856263"
                    fill="currentColor"></rect>
                <line x1="-3.645694" y1="0.5940749999999999" x2="-3.645694" y2="2.450338"
                    stroke="black" stroke-width="0.01"></line>
                <line x1="-3.645694" y1="2.7559" x2="-3.645694" y2="4.0346"
                    stroke="currentColor" stroke-width="0.1524"></line>
            </g>
            <g id="blueSide">
                <g transform="translate(7.3561000000000005 4.0600000000000005)">
                    <use href="#fuel" x="0" y="0"></use>
                    <use href="#fuel" x="0" y="0.15239999999999998"></use>
                    <use href="#fuel" x="0" y="0.30479999999999996"></use>
                    <use href="#fuel" x="0" y="0.45719999999999994"></use>
                    <use href="#fuel" x="0" y="0.6095999999999999"></use>
                    <use href="#fuel" x="0" y="0.7619999999999999"></use>
                    <use href="#fuel" x="0" y="0.9143999999999999"></use>
                    <use href="#fuel" x="0" y="1.0667999999999997"></use>
                    <use href="#fuel" x="0" y="1.2191999999999998"></use>
                    <use href="#fuel" x="0" y="1.3716"></use>
                    <use href="#fuel" x="0" y="1.5239999999999998"></use>
                    <use href="#fuel" x="0" y="1.6763999999999997"></use>
                    <use href="#fuel" x="0" y="1.8287999999999998"></use>
                    <use href="#fuel" x="0" y="1.9811999999999999"></use>
                    <use href="#fuel" x="0" y="2.1335999999999995"></use>
                    <use href="#fuel" x="0.15239999999999998" y="0"></use>
                    <use href="#fuel" x="0.15239999999999998" y="0.15239999999999998"></use>
                    <use href="#fuel" x="0.15239999999999998" y="0.30479999999999996"></use>
                    <use href="#fuel" x="0.15239999999999998" y="0.45719999999999994"></use>
                    <use href="#fuel" x="0.15239999999999998" y="0.6095999999999999"></use>
                    <use href="#fuel" x="0.15239999999999998" y="0.7619999999999999"></use>
                    <use href="#fuel" x="0.15239999999999998" y="0.9143999999999999"></use>
                    <use href="#fuel" x="0.15239999999999998" y="1.0667999999999997"></use>
                    <use href="#fuel" x="0.15239999999999998" y="1.2191999999999998"></use>
                    <use href="#fuel" x="0.15239999999999998" y="1.3716"></use>
                    <use href="#fuel" x="0.15239999999999998" y="1.5239999999999998"></use>
                    <use href="#fuel" x="0.15239999999999998" y="1.6763999999999997"></use>
                    <use href="#fuel" x="0.15239999999999998" y="1.8287999999999998"></use>
                    <use href="#fuel" x="0.15239999999999998" y="1.9811999999999999"></use>
                    <use href="#fuel" x="0.15239999999999998" y="2.1335999999999995"></use>
                    <use href="#fuel" x="0.30479999999999996" y="0"></use>
                    <use href="#fuel" x="0.30479999999999996" y="0.15239999999999998"></use>
                    <use href="#fuel" x="0.30479999999999996" y="0.30479999999999996"></use>
                    <use href="#fuel" x="0.30479999999999996" y="0.45719999999999994"></use>
                    <use href="#fuel" x="0.30479999999999996" y="0.6095999999999999"></use>
                    <use href="#fuel" x="0.30479999999999996" y="0.7619999999999999"></use>
                    <use href="#fuel" x="0.30479999999999996" y="0.9143999999999999"></use>
                    <use href="#fuel" x="0.30479999999999996" y="1.0667999999999997"></use>
                    <use href="#fuel" x="0.30479999999999996" y="1.2191999999999998"></use>
                    <use href="#fuel" x="0.30479999999999996" y="1.3716"></use>
                    <use href="#fuel" x="0.30479999999999996" y="1.5239999999999998"></use>
                    <use href="#fuel" x="0.30479999999999996" y="1.6763999999999997"></use>
                    <use href="#fuel" x="0.30479999999999996" y="1.8287999999999998"></use>
                    <use href="#fuel" x="0.30479999999999996" y="1.9811999999999999"></use>
                    <use href="#fuel" x="0.30479999999999996" y="2.1335999999999995"></use>
                    <use href="#fuel" x="0.45719999999999994" y="0"></use>
                    <use href="#fuel" x="0.45719999999999994" y="0.15239999999999998"></use>
                    <use href="#fuel" x="0.45719999999999994" y="0.30479999999999996"></use>
                    <use href="#fuel" x="0.45719999999999994" y="0.45719999999999994"></use>
                    <use href="#fuel" x="0.45719999999999994" y="0.6095999999999999"></use>
                    <use href="#fuel" x="0.45719999999999994" y="0.7619999999999999"></use>
                    <use href="#fuel" x="0.45719999999999994" y="0.9143999999999999"></use>
                    <use href="#fuel" x="0.45719999999999994" y="1.0667999999999997"></use>
                    <use href="#fuel" x="0.45719999999999994" y="1.2191999999999998"></use>
                    <use href="#fuel" x="0.45719999999999994" y="1.3716"></use>
                    <use href="#fuel" x="0.45719999999999994" y="1.5239999999999998"></use>
                    <use href="#fuel" x="0.45719999999999994" y="1.6763999999999997"></use>
                    <use href="#fuel" x="0.45719999999999994" y="1.8287999999999998"></use>
                    <use href="#fuel" x="0.45719999999999994" y="1.9811999999999999"></use>
                    <use href="#fuel" x="0.45719999999999994" y="2.1335999999999995"></use>
                    <use href="#fuel" x="0.6095999999999999" y="0"></use>
                    <use href="#fuel" x="0.6095999999999999" y="0.15239999999999998"></use>
                    <use href="#fuel" x="0.6095999999999999" y="0.30479999999999996"></use>
                    <use href="#fuel" x="0.6095999999999999" y="0.45719999999999994"></use>
                    <use href="#fuel" x="0.6095999999999999" y="0.6095999999999999"></use>
                    <use href="#fuel" x="0.6095999999999999" y="0.7619999999999999"></use>
                    <use href="#fuel" x="0.6095999999999999" y="0.9143999999999999"></use>
                    <use href="#fuel" x="0.6095999999999999" y="1.0667999999999997"></use>
                    <use href="#fuel" x="0.6095999999999999" y="1.2191999999999998"></use>
                    <use href="#fuel" x="0.6095999999999999" y="1.3716"></use>
                    <use href="#fuel" x="0.6095999999999999" y="1.5239999999999998"></use>
                    <use href="#fuel" x="0.6095999999999999" y="1.6763999999999997"></use>
                    <use href="#fuel" x="0.6095999999999999" y="1.8287999999999998"></use>
                    <use href="#fuel" x="0.6095999999999999" y="1.9811999999999999"></use>
                    <use href="#fuel" x="0.6095999999999999" y="2.1335999999999995"></use>
                    <use href="#fuel" x="0.7619999999999999" y="0"></use>
                    <use href="#fuel" x="0.7619999999999999" y="0.15239999999999998"></use>
                    <use href="#fuel" x="0.7619999999999999" y="0.30479999999999996"></use>
                    <use href="#fuel" x="0.7619999999999999" y="0.45719999999999994"></use>
                    <use href="#fuel" x="0.7619999999999999" y="0.6095999999999999"></use>
                    <use href="#fuel" x="0.7619999999999999" y="0.7619999999999999"></use>
                    <use href="#fuel" x="0.7619999999999999" y="0.9143999999999999"></use>
                    <use href="#fuel" x="0.7619999999999999" y="1.0667999999999997"></use>
                    <use href="#fuel" x="0.7619999999999999" y="1.2191999999999998"></use>
                    <use href="#fuel" x="0.7619999999999999" y="1.3716"></use>
                    <use href="#fuel" x="0.7619999999999999" y="1.5239999999999998"></use>
                    <use href="#fuel" x="0.7619999999999999" y="1.6763999999999997"></use>
                    <use href="#fuel" x="0.7619999999999999" y="1.8287999999999998"></use>
                    <use href="#fuel" x="0.7619999999999999" y="1.9811999999999999"></use>
                    <use href="#fuel" x="0.7619999999999999" y="2.1335999999999995"></use>
                    <use href="#fuel" x="0.9143999999999999" y="0"></use>
                    <use href="#fuel" x="0.9143999999999999" y="0.15239999999999998"></use>
                    <use href="#fuel" x="0.9143999999999999" y="0.30479999999999996"></use>
                    <use href="#fuel" x="0.9143999999999999" y="0.45719999999999994"></use>
                    <use href="#fuel" x="0.9143999999999999" y="0.6095999999999999"></use>
                    <use href="#fuel" x="0.9143999999999999" y="0.7619999999999999"></use>
                    <use href="#fuel" x="0.9143999999999999" y="0.9143999999999999"></use>
                    <use href="#fuel" x="0.9143999999999999" y="1.0667999999999997"></use>
                    <use href="#fuel" x="0.9143999999999999" y="1.2191999999999998"></use>
                    <use href="#fuel" x="0.9143999999999999" y="1.3716"></use>
                    <use href="#fuel" x="0.9143999999999999" y="1.5239999999999998"></use>
                    <use href="#fuel" x="0.9143999999999999" y="1.6763999999999997"></use>
                    <use href="#fuel" x="0.9143999999999999" y="1.8287999999999998"></use>
                    <use href="#fuel" x="0.9143999999999999" y="1.9811999999999999"></use>
                    <use href="#fuel" x="0.9143999999999999" y="2.1335999999999995"></use>
                    <use href="#fuel" x="1.0667999999999997" y="0"></use>
                    <use href="#fuel" x="1.0667999999999997" y="0.15239999999999998"></use>
                    <use href="#fuel" x="1.0667999999999997" y="0.30479999999999996"></use>
                    <use href="#fuel" x="1.0667999999999997" y="0.45719999999999994"></use>
                    <use href="#fuel" x="1.0667999999999997" y="0.6095999999999999"></use>
                    <use href="#fuel" x="1.0667999999999997" y="0.7619999999999999"></use>
                    <use href="#fuel" x="1.0667999999999997" y="0.9143999999999999"></use>
                    <use href="#fuel" x="1.0667999999999997" y="1.0667999999999997"></use>
                    <use href="#fuel" x="1.0667999999999997" y="1.2191999999999998"></use>
                    <use href="#fuel" x="1.0667999999999997" y="1.3716"></use>
                    <use href="#fuel" x="1.0667999999999997" y="1.5239999999999998"></use>
                    <use href="#fuel" x="1.0667999999999997" y="1.6763999999999997"></use>
                    <use href="#fuel" x="1.0667999999999997" y="1.8287999999999998"></use>
                    <use href="#fuel" x="1.0667999999999997" y="1.9811999999999999"></use>
                    <use href="#fuel" x="1.0667999999999997" y="2.1335999999999995"></use>
                    <use href="#fuel" x="1.2191999999999998" y="0"></use>
                    <use href="#fuel" x="1.2191999999999998" y="0.15239999999999998"></use>
                    <use href="#fuel" x="1.2191999999999998" y="0.30479999999999996"></use>
                    <use href="#fuel" x="1.2191999999999998" y="0.45719999999999994"></use>
                    <use href="#fuel" x="1.2191999999999998" y="0.6095999999999999"></use>
                    <use href="#fuel" x="1.2191999999999998" y="0.7619999999999999"></use>
                    <use href="#fuel" x="1.2191999999999998" y="0.9143999999999999"></use>
                    <use href="#fuel" x="1.2191999999999998" y="1.0667999999999997"></use>
                    <use href="#fuel" x="1.2191999999999998" y="1.2191999999999998"></use>
                    <use href="#fuel" x="1.2191999999999998" y="1.3716"></use>
                    <use href="#fuel" x="1.2191999999999998" y="1.5239999999999998"></use>
                    <use href="#fuel" x="1.2191999999999998" y="1.6763999999999997"></use>
                    <use href="#fuel" x="1.2191999999999998" y="1.8287999999999998"></use>
                    <use href="#fuel" x="1.2191999999999998" y="1.9811999999999999"></use>
                    <use href="#fuel" x="1.2191999999999998" y="2.1335999999999995"></use>
                    <use href="#fuel" x="1.3716" y="0"></use>
                    <use href="#fuel" x="1.3716" y="0.15239999999999998"></use>
                    <use href="#fuel" x="1.3716" y="0.30479999999999996"></use>
                    <use href="#fuel" x="1.3716" y="0.45719999999999994"></use>
                    <use href="#fuel" x="1.3716" y="0.6095999999999999"></use>
                    <use href="#fuel" x="1.3716" y="0.7619999999999999"></use>
                    <use href="#fuel" x="1.3716" y="0.9143999999999999"></use>
                    <use href="#fuel" x="1.3716" y="1.0667999999999997"></use>
                    <use href="#fuel" x="1.3716" y="1.2191999999999998"></use>
                    <use href="#fuel" x="1.3716" y="1.3716"></use>
                    <use href="#fuel" x="1.3716" y="1.5239999999999998"></use>
                    <use href="#fuel" x="1.3716" y="1.6763999999999997"></use>
                    <use href="#fuel" x="1.3716" y="1.8287999999999998"></use>
                    <use href="#fuel" x="1.3716" y="1.9811999999999999"></use>
                    <use href="#fuel" x="1.3716" y="2.1335999999999995"></use>
                    <use href="#fuel" x="1.5239999999999998" y="0"></use>
                    <use href="#fuel" x="1.5239999999999998" y="0.15239999999999998"></use>
                    <use href="#fuel" x="1.5239999999999998" y="0.30479999999999996"></use>
                    <use href="#fuel" x="1.5239999999999998" y="0.45719999999999994"></use>
                    <use href="#fuel" x="1.5239999999999998" y="0.6095999999999999"></use>
                    <use href="#fuel" x="1.5239999999999998" y="0.7619999999999999"></use>
                    <use href="#fuel" x="1.5239999999999998" y="0.9143999999999999"></use>
                    <use href="#fuel" x="1.5239999999999998" y="1.0667999999999997"></use>
                    <use href="#fuel" x="1.5239999999999998" y="1.2191999999999998"></use>
                    <use href="#fuel" x="1.5239999999999998" y="1.3716"></use>
                    <use href="#fuel" x="1.5239999999999998" y="1.5239999999999998"></use>
                    <use href="#fuel" x="1.5239999999999998" y="1.6763999999999997"></use>
                    <use href="#fuel" x="1.5239999999999998" y="1.8287999999999998"></use>
                    <use href="#fuel" x="1.5239999999999998" y="1.9811999999999999"></use>
                    <use href="#fuel" x="1.5239999999999998" y="2.1335999999999995"></use>
                    <use href="#fuel" x="1.6763999999999997" y="0"></use>
                    <use href="#fuel" x="1.6763999999999997" y="0.15239999999999998"></use>
                    <use href="#fuel" x="1.6763999999999997" y="0.30479999999999996"></use>
                    <use href="#fuel" x="1.6763999999999997" y="0.45719999999999994"></use>
                    <use href="#fuel" x="1.6763999999999997" y="0.6095999999999999"></use>
                    <use href="#fuel" x="1.6763999999999997" y="0.7619999999999999"></use>
                    <use href="#fuel" x="1.6763999999999997" y="0.9143999999999999"></use>
                    <use href="#fuel" x="1.6763999999999997" y="1.0667999999999997"></use>
                    <use href="#fuel" x="1.6763999999999997" y="1.2191999999999998"></use>
                    <use href="#fuel" x="1.6763999999999997" y="1.3716"></use>
                    <use href="#fuel" x="1.6763999999999997" y="1.5239999999999998"></use>
                    <use href="#fuel" x="1.6763999999999997" y="1.6763999999999997"></use>
                    <use href="#fuel" x="1.6763999999999997" y="1.8287999999999998"></use>
                    <use href="#fuel" x="1.6763999999999997" y="1.9811999999999999"></use>
                    <use href="#fuel" x="1.6763999999999997" y="2.1335999999999995"></use>
                </g>
                <line x1="4.003326" x2="4.003326" y1="0" y2="8.0692" stroke="currentColor"
                    stroke-width="0.0508"></line>
                <g>
                    <rect x="0" y="5.431631" width="0.609" height="0.0762" fill="currentColor"></rect>
                    <rect x="0" y="6.422231" width="0.609" height="0.0762" fill="currentColor"></rect>
                    <rect x="0.609" y="5.431631" width="0.0762" height="1.0668"
                        fill="currentColor"></rect>
                    <g transform="translate(0 5.507831)">
                        <use href="#fuel" x="0" y="0"></use>
                        <use href="#fuel" x="0" y="0.15239999999999998"></use>
                        <use href="#fuel" x="0" y="0.30479999999999996"></use>
                        <use href="#fuel" x="0" y="0.45719999999999994"></use>
                        <use href="#fuel" x="0" y="0.6095999999999999"></use>
                        <use href="#fuel" x="0" y="0.7619999999999999"></use>
                        <use href="#fuel" x="0.15239999999999998" y="0"></use>
                        <use href="#fuel" x="0.15239999999999998" y="0.15239999999999998"></use>
                        <use href="#fuel" x="0.15239999999999998" y="0.30479999999999996"></use>
                        <use href="#fuel" x="0.15239999999999998" y="0.45719999999999994"></use>
                        <use href="#fuel" x="0.15239999999999998" y="0.6095999999999999"></use>
                        <use href="#fuel" x="0.15239999999999998" y="0.7619999999999999"></use>
                        <use href="#fuel" x="0.30479999999999996" y="0"></use>
                        <use href="#fuel" x="0.30479999999999996" y="0.15239999999999998"></use>
                        <use href="#fuel" x="0.30479999999999996" y="0.30479999999999996"></use>
                        <use href="#fuel" x="0.30479999999999996" y="0.45719999999999994"></use>
                        <use href="#fuel" x="0.30479999999999996" y="0.6095999999999999"></use>
                        <use href="#fuel" x="0.30479999999999996" y="0.7619999999999999"></use>
                        <use href="#fuel" x="0.45719999999999994" y="0"></use>
                        <use href="#fuel" x="0.45719999999999994" y="0.15239999999999998"></use>
                        <use href="#fuel" x="0.45719999999999994" y="0.30479999999999996"></use>
                        <use href="#fuel" x="0.45719999999999994" y="0.45719999999999994"></use>
                        <use href="#fuel" x="0.45719999999999994" y="0.6095999999999999"></use>
                        <use href="#fuel" x="0.45719999999999994" y="0.7619999999999999"></use>
                    </g>
                </g>
                <g transform="translate(8.2705 4.0346)">
                    <use href="#blueRampTrench"></use>
                    <g transform="scale(1 -1)">
                        <use href="#blueRampTrench"></use>
                    </g>
                    <rect x="-4.24215" y="-0.5969" width="1.1945589999999995" height="1.1938"
                        fill="currentColor" filter="url(#dark)"></rect>
                    <polygon
                        points="-3.033074,0 -3.340112,-0.527908 -3.949688,-0.527908 -4.254476,0 -3.949688,0.527908 -3.340112,0.527908"
                        stroke="gray" fill="transparent" stroke-width="0.0254"></polygon>
                    <circle r="0.2" stroke="gray" stroke-width="0.02" fill="transparent"
                        cx="-3.645694" cy="0"></circle>
                    <circle r="0.1" stroke="gray" stroke-width="0.02" fill="transparent"
                        cx="-3.645694" cy="0"></circle>
                    <rect x="-8.271493" y="-0.784225" width="1.1455549999999999"
                        height="0.9905999999999999" fill="black"></rect>
                    <line x1="-7.208488" y1="-0.885825" x2="-7.208488" y2="0.307975"
                        stroke="currentColor" stroke-width="0.042164"></line>
                    <rect x="-7.252938" y="0.12065000000000001" height="0.0381" width="0.0889"
                        fill="currentColor"></rect>
                    <rect x="-7.252938" y="-0.7366" height="0.0381" width="0.0889"
                        fill="currentColor"></rect>
                </g>
                <line x1="0" y1="0.259556" x2="-0.2" y2="0.259556" stroke="white"
                    stroke-width="0.0254"></line>
                <line x1="0" y1="1.072356" x2="-0.2" y2="1.072356" stroke="white"
                    stroke-width="0.0254"></line>
                <g transform="translate(-0.15239999999999998 0.285)">
                    <use href="#fuel" x="0" y="0"></use>
                    <use href="#fuel" x="0" y="0.15239999999999998"></use>
                    <use href="#fuel" x="0" y="0.30479999999999996"></use>
                    <use href="#fuel" x="0" y="0.45719999999999994"></use>
                    <use href="#fuel" x="0" y="0.6095999999999999"></use>
                </g>
            </g>
        </defs>
        <g id="tape">
            <line id="centerline" x1="8.2705" x2="8.2705" y1="0" y2="8.0692" stroke="white"
                stroke-width="0.0508"></line>
            <line id="midline" x1="0" x2="16.541" y1="4.0346" y2="4.0346" stroke="black"
                stroke-width="0.1016"></line>
        </g>
        <use x="0" y="0" width="16.541" height="8.0692" href="#blueSide" color="#1c1c99ff"></use>
        <g id="redSide" transform="translate(16.541 8.0692) rotate(180)">
            <use x="0" y="0" width="16.541" height="8.0692" href="#blueSide" color="#9e2323ff"></use>
        </g>
        <rect id="wall" x="-0.0254" y="-0.0254" width="16.5918" height="8.120000000000001"
            stroke="white" stroke-width="0.0508" fill="transparent"></rect>

    </g>
  <g transform="scale(1 -1) translate(0 -8.0692)">
    <line x1="3.5500" y1="4.0500" x2="3.5491" y2="4.0500" stroke="hsl(149.64, 100%, 50%)" stroke-width="0.05"/>
    <line x1="3.5491" y1="4.0500" x2="3.5465" y2="4.0500" stroke="hsl(149.03, 100%, 50%)" stroke-width="0.05"/>
    <line x1="3.5465" y1="4.0500" x2="3.5421" y2="4.0500" stroke="hsl(148.97, 100%, 50%)" stroke-width="0.05"/>
    <line x1="3.5421" y1="4.0500" x2="3.5359" y2="4.0500" stroke="hsl(148.90, 100%, 50%)" stroke-width="0.05"/>
    <line x1="3.5359" y1="4.0500" x2="3.5280" y2="4.0500" stroke="hsl(148.83, 100%, 50%)" stroke-width="0.05"/>
    <line x1="3.5280" y1="4.0500" x2="3.5184" y2="4.0500" stroke="hsl(148.75, 100%, 50%)" stroke-width="0.05"/>
    <line x1="3.5184" y1="4.0500" x2="3.5070" y2="4.0500" stroke="hsl(148.64, 100%, 50%)" stroke-width="0.05"/>
    <line x1="3.5070" y1="4.0500" x2="3.4938" y2="4.0500" stroke="hsl(148.46, 100%, 50%)" stroke-width="0.05"/>
    <line x1="3.4938" y1="4.0500" x2="3.4789" y2="4.0500" stroke="hsl(147.67, 100%, 50%)" stroke-width="0.05"/>
    <line x1="3.4789" y1="4.0500" x2="3.4623" y2="4.0500" stroke="hsl(143.13, 100%, 50%)" stroke-width="0.05"/>
    <line x1="3.4623" y1="4.0500" x2="3.4440" y2="4.0500" stroke="hsl(137.78, 100%, 50%)" stroke-width="0.05"/>
    <line x1="3.4440" y1="4.0500" x2="3.4242" y2="4.0500" stroke="hsl(132.77, 100%, 50%)" stroke-width="0.05"/>
    <line x1="3.4242" y1="4.0500" x2="3.4028" y2="4.0500" stroke="hsl(128.11, 100%, 50%)" stroke-width="0.05"/>
    <line x1="3.4028" y1="4.0500" x2="3.3799" y2="4.0500" stroke="hsl(123.78, 100%, 50%)" stroke-width="0.05"/>
    <line x1="3.3799" y1="4.0500" x2="3.3556" y2="4.0500" stroke="hsl(119.75, 100%, 50%)" stroke-width="0.05"/>
    <line x1="3.3556" y1="4.0500" x2="3.3299" y2="4.0500" stroke="hsl(115.98, 100%, 50%)" stroke-width="0.05"/>
    <line x1="3.3299" y1="4.0500" x2="3.3028" y2="4.0500" stroke="hsl(112.46, 100%, 50%)" stroke-width="0.05"/>
    <line x1="3.3028" y1="4.0500" x2="3.2745" y2="4.0500" stroke="hsl(109.15, 100%, 50%)" stroke-width="0.05"/>
    <line x1="3.2745" y1="4.0500" x2="3.2448" y2="4.0500" stroke="hsl(106.03, 100%, 50%)" stroke-width="0.05"/>
    <line x1="3.2448" y1="4.0500" x2="3.2140" y2="4.0500" stroke="hsl(103.08, 100%, 50%)" stroke-width="0.05"/>
    <line x1="3.2140" y1="4.0500" x2="3.1819" y2="4.0500" stroke="hsl(100.29, 100%, 50%)" stroke-width="0.05"/>
    <line x1="3.1819" y1="4.0500" x2="3.1487" y2="4.0500" stroke="hsl(97.64, 100%, 50%)" stroke-width="0.05"/>
    <line x1="3.1487" y1="4.0500" x2="3.1144" y2="4.0500" stroke="hsl(95.11, 100%, 50%)" stroke-width="0.05"/>
    <line x1="3.1144" y1="4.0500" x2="3.0789" y2="4.0500" stroke="hsl(92.69, 100%, 50%)" stroke-width="0.05"/>
    <line x1="3.0789" y1="4.0500" x2="3.0424" y2="4.0500" stroke="hsl(90.35, 100%, 50%)" stroke-width="0.05"/>
    <line x1="3.0424" y1="4.0500" x2="3.0048" y2="4.0500" stroke="hsl(88.08, 100%, 50%)" stroke-width="0.05"/>
    <line x1="3.0048" y1="4.0500" x2="2.9662" y2="4.0500" stroke="hsl(85.87, 100%, 50%)" stroke-width="0.05"/>
    <line x1="2.9662" y1="4.0500" x2="2.9266" y2="4.0500" stroke="hsl(83.67, 100%, 50%)" stroke-width="0.05"/>
    <line x1="2.9266" y1="4.0500" x2="2.8860" y2="4.0500" stroke="hsl(81.47, 100%, 50%)" stroke-width="0.05"/>
    <line x1="2.8860" y1="4.0500" x2="2.8445" y2="4.0500" stroke="hsl(79.20, 100%, 50%)" stroke-width="0.05"/>
    <line x1="2.8445" y1="4.0500" x2="2.8020" y2="4.0500" stroke="hsl(76.79, 100%, 50%)" stroke-width="0.05"/>
    <line x1="2.8020" y1="4.0500" x2="2.7587" y2="4.0500" stroke="hsl(74.08, 100%, 50%)" stroke-width="0.05"/>
    <line x1="2.7587" y1="4.0500" x2="2.7145" y2="4.0500" stroke="hsl(70.75, 100%, 50%)" stroke-width="0.05"/>
    <line x1="2.7145" y1="4.0500" x2="2.6695" y2="4.0500" stroke="hsl(66.03, 100%, 50%)" stroke-width="0.05"/>
    <line x1="2.6695" y1="4.0500" x2="2.6238" y2="4.0500" stroke="hsl(57.38, 100%, 50%)" stroke-width="0.05"/>
    <line x1="2.6238" y1="4.0500" x2="2.5775" y2="4.0500" stroke="hsl(32.34, 100%, 50%)" stroke-width="0.05"/>
    <line x1="2.5775" y1="4.0500" x2="2.5315" y2="4.0500" stroke="hsl(77.57, 100%, 50%)" stroke-width="0.05"/>
    <line x1="2.5315" y1="4.0500" x2="2.4869" y2="4.0500" stroke="hsl(143.50, 100%, 50%)" stroke-width="0.05"/>
    <line x1="2.4869" y1="4.0500" x2="2.4440" y2="4.0500" stroke="hsl(157.16, 100%, 50%)" stroke-width="0.05"/>
    <line x1="2.4440" y1="4.0500" x2="2.4029" y2="4.0500" stroke="hsl(162.39, 100%, 50%)" stroke-width="0.05"/>
    <line x1="2.4029" y1="4.0500" x2="2.3638" y2="4.0500" stroke="hsl(165.08, 100%, 50%)" stroke-width="0.05"/>
    <line x1="2.3638" y1="4.0500" x2="2.3267" y2="4.0500" stroke="hsl(166.70, 100%, 50%)" stroke-width="0.05"/>
    <line x1="2.3267" y1="4.0500" x2="2.2915" y2="4.0500" stroke="hsl(167.78, 100%, 50%)" stroke-width="0.05"/>
    <line x1="2.2915" y1="4.0500" x2="2.2583" y2="4.0500" stroke="hsl(168.55, 100%, 50%)" stroke-width="0.05"/>
    <line x1="2.2583" y1="4.0500" x2="2.2271" y2="4.0500" stroke="hsl(169.12, 100%, 50%)" stroke-width="0.05"/>
    <line x1="2.2271" y1="4.0500" x2="2.1979" y2="4.0500" stroke="hsl(169.57, 100%, 50%)" stroke-width="0.05"/>
    <line x1="2.1979" y1="4.0500" x2="2.1707" y2="4.0500" stroke="hsl(169.92, 100%, 50%)" stroke-width="0.05"/>
    <line x1="2.1707" y1="4.0500" x2="2.1455" y2="4.0500" stroke="hsl(170.21, 100%, 50%)" stroke-width="0.05"/>
    <line x1="2.1455" y1="4.0500" x2="2.1223" y2="4.0500" stroke="hsl(170.45, 100%, 50%)" stroke-width="0.05"/>
    <line x1="2.1223" y1="4.0500" x2="2.1011" y2="4.0500" stroke="hsl(170.65, 100%, 50%)" stroke-width="0.05"/>
    <line x1="2.1011" y1="4.0500" x2="2.0819" y2="4.0500" stroke="hsl(170.83, 100%, 50%)" stroke-width="0.05"/>
    <line x1="2.0819" y1="4.0500" x2="2.0647" y2="4.0500" stroke="hsl(170.98, 100%, 50%)" stroke-width="0.05"/>
    <line x1="2.0647" y1="4.0500" x2="2.0496" y2="4.0500" stroke="hsl(171.11, 100%, 50%)" stroke-width="0.05"/>
    <line x1="2.0496" y1="4.0500" x2="2.0364" y2="4.0500" stroke="hsl(171.22, 100%, 50%)" stroke-width="0.05"/>
    <line x1="2.0364" y1="4.0500" x2="2.0253" y2="4.0500" stroke="hsl(171.33, 100%, 50%)" stroke-width="0.05"/>
    <line x1="2.0253" y1="4.0500" x2="2.0162" y2="4.0500" stroke="hsl(171.45, 100%, 50%)" stroke-width="0.05"/>
    <line x1="2.0162" y1="4.0500" x2="2.0091" y2="4.0500" stroke="hsl(171.72, 100%, 50%)" stroke-width="0.05"/>
    <line x1="2.0091" y1="4.0500" x2="2.0040" y2="4.0500" stroke="hsl(172.11, 100%, 50%)" stroke-width="0.05"/>
    <line x1="2.0040" y1="4.0500" x2="2.0010" y2="4.0500" stroke="hsl(172.26, 100%, 50%)" stroke-width="0.05"/>
    <line x1="2.0010" y1="4.0500" x2="2.0000" y2="4.0500" stroke="hsl(172.37, 100%, 50%)" stroke-width="0.05"/>
    <polygon points="3.9564,4.4564 3.9564,3.6436 3.1436,3.6436 3.1436,4.4564" fill="rgba(0,0,0,0.12)" stroke="#000000" stroke-width="0.04"/><circle cx="3.5500" cy="4.0500" r="0.03" fill="#ffffff" stroke="#000000" stroke-width="0.015"/><polygon points="4.0439,4.0500 3.9689,4.0850 3.9689,4.0150" fill="#ffffff" stroke="#000000" stroke-width="0.02"/>
    <polygon points="2.4064,4.4564 2.4064,3.6436 1.5936,3.6436 1.5936,4.4564" fill="rgba(0,0,0,0.12)" stroke="#000000" stroke-width="0.04"/><circle cx="2.0000" cy="4.0500" r="0.03" fill="#ffffff" stroke="#000000" stroke-width="0.015"/><polygon points="2.4939,4.0500 2.4189,4.0850 2.4189,4.0150" fill="#ffffff" stroke="#000000" stroke-width="0.02"/>
  </g>
  <text x="-0.4" y="-0.15" font-size="0.32" font-family="monospace" fill="white" stroke="black" stroke-width="0.02" paint-order="stroke fill">PR  swerve-fast-extra-low-dt · DriveBackAndShoot</text>
</svg>
