<svg xmlns="http://www.w3.org/2000/svg" viewBox="-0.5 -0.5 17.541 9.0692" width="2631" height="1360">
  <g id="field" transform="scale(1 -1) translate(0 -8.0692)">
        <defs>
            <filter id="dark">
                <feComponentTransfer>
                    <feFuncR type="linear" slope="0.5"></feFuncR>
                    <feFuncG type="linear" slope="0.5"></feFuncG>
                    <feFuncB type="linear" slope="0.5"></feFuncB>
                </feComponentTransfer>
            </filter>
            <circle id="fuel" cx="0.07619999999999999" cy="0.07619999999999999"
                r="0.07505699999999998" fill="#B1902F"></circle>
            <g id="blueRampTrench">
                <rect height="0.3055620000000001" width="1.193852" x="-4.2426200000000005"
                    y="2.450338" fill="currentColor" filter="url(#dark)"></rect>
                <rect x="-4.208718" y="0.5940749999999999" width="0.563024" height="1.856263"
                    fill="currentColor"></rect>
                <rect x="-3.645694" y="0.5940749999999999" width="0.563024" height="1.856263"
                    fill="currentColor"></rect>
                <line x1="-3.645694" y1="0.5940749999999999" x2="-3.645694" y2="2.450338"
                    stroke="black" stroke-width="0.01"></line>
                <line x1="-3.645694" y1="2.7559" x2="-3.645694" y2="4.0346"
                    stroke="currentColor" stroke-width="0.1524"></line>
            </g>
            <g id="blueSide">
                <g transform="translate(7.3561000000000005 4.0600000000000005)">
                    <use href="#fuel" x="0" y="0"></use>
                    <use href="#fuel" x="0" y="0.15239999999999998"></use>
                    <use href="#fuel" x="0" y="0.30479999999999996"></use>
                    <use href="#fuel" x="0" y="0.45719999999999994"></use>
                    <use href="#fuel" x="0" y="0.6095999999999999"></use>
                    <use href="#fuel" x="0" y="0.7619999999999999"></use>
                    <use href="#fuel" x="0" y="0.9143999999999999"></use>
                    <use href="#fuel" x="0" y="1.0667999999999997"></use>
                    <use href="#fuel" x="0" y="1.2191999999999998"></use>
                    <use href="#fuel" x="0" y="1.3716"></use>
                    <use href="#fuel" x="0" y="1.5239999999999998"></use>
                    <use href="#fuel" x="0" y="1.6763999999999997"></use>
                    <use href="#fuel" x="0" y="1.8287999999999998"></use>
                    <use href="#fuel" x="0" y="1.9811999999999999"></use>
                    <use href="#fuel" x="0" y="2.1335999999999995"></use>
                    <use href="#fuel" x="0.15239999999999998" y="0"></use>
                    <use href="#fuel" x="0.15239999999999998" y="0.15239999999999998"></use>
                    <use href="#fuel" x="0.15239999999999998" y="0.30479999999999996"></use>
                    <use href="#fuel" x="0.15239999999999998" y="0.45719999999999994"></use>
                    <use href="#fuel" x="0.15239999999999998" y="0.6095999999999999"></use>
                    <use href="#fuel" x="0.15239999999999998" y="0.7619999999999999"></use>
                    <use href="#fuel" x="0.15239999999999998" y="0.9143999999999999"></use>
                    <use href="#fuel" x="0.15239999999999998" y="1.0667999999999997"></use>
                    <use href="#fuel" x="0.15239999999999998" y="1.2191999999999998"></use>
                    <use href="#fuel" x="0.15239999999999998" y="1.3716"></use>
                    <use href="#fuel" x="0.15239999999999998" y="1.5239999999999998"></use>
                    <use href="#fuel" x="0.15239999999999998" y="1.6763999999999997"></use>
                    <use href="#fuel" x="0.15239999999999998" y="1.8287999999999998"></use>
                    <use href="#fuel" x="0.15239999999999998" y="1.9811999999999999"></use>
                    <use href="#fuel" x="0.15239999999999998" y="2.1335999999999995"></use>
                    <use href="#fuel" x="0.30479999999999996" y="0"></use>
                    <use href="#fuel" x="0.30479999999999996" y="0.15239999999999998"></use>
                    <use href="#fuel" x="0.30479999999999996" y="0.30479999999999996"></use>
                    <use href="#fuel" x="0.30479999999999996" y="0.45719999999999994"></use>
                    <use href="#fuel" x="0.30479999999999996" y="0.6095999999999999"></use>
                    <use href="#fuel" x="0.30479999999999996" y="0.7619999999999999"></use>
                    <use href="#fuel" x="0.30479999999999996" y="0.9143999999999999"></use>
                    <use href="#fuel" x="0.30479999999999996" y="1.0667999999999997"></use>
                    <use href="#fuel" x="0.30479999999999996" y="1.2191999999999998"></use>
                    <use href="#fuel" x="0.30479999999999996" y="1.3716"></use>
                    <use href="#fuel" x="0.30479999999999996" y="1.5239999999999998"></use>
                    <use href="#fuel" x="0.30479999999999996" y="1.6763999999999997"></use>
                    <use href="#fuel" x="0.30479999999999996" y="1.8287999999999998"></use>
                    <use href="#fuel" x="0.30479999999999996" y="1.9811999999999999"></use>
                    <use href="#fuel" x="0.30479999999999996" y="2.1335999999999995"></use>
                    <use href="#fuel" x="0.45719999999999994" y="0"></use>
                    <use href="#fuel" x="0.45719999999999994" y="0.15239999999999998"></use>
                    <use href="#fuel" x="0.45719999999999994" y="0.30479999999999996"></use>
                    <use href="#fuel" x="0.45719999999999994" y="0.45719999999999994"></use>
                    <use href="#fuel" x="0.45719999999999994" y="0.6095999999999999"></use>
                    <use href="#fuel" x="0.45719999999999994" y="0.7619999999999999"></use>
                    <use href="#fuel" x="0.45719999999999994" y="0.9143999999999999"></use>
                    <use href="#fuel" x="0.45719999999999994" y="1.0667999999999997"></use>
                    <use href="#fuel" x="0.45719999999999994" y="1.2191999999999998"></use>
                    <use href="#fuel" x="0.45719999999999994" y="1.3716"></use>
                    <use href="#fuel" x="0.45719999999999994" y="1.5239999999999998"></use>
                    <use href="#fuel" x="0.45719999999999994" y="1.6763999999999997"></use>
                    <use href="#fuel" x="0.45719999999999994" y="1.8287999999999998"></use>
                    <use href="#fuel" x="0.45719999999999994" y="1.9811999999999999"></use>
                    <use href="#fuel" x="0.45719999999999994" y="2.1335999999999995"></use>
                    <use href="#fuel" x="0.6095999999999999" y="0"></use>
                    <use href="#fuel" x="0.6095999999999999" y="0.15239999999999998"></use>
                    <use href="#fuel" x="0.6095999999999999" y="0.30479999999999996"></use>
                    <use href="#fuel" x="0.6095999999999999" y="0.45719999999999994"></use>
                    <use href="#fuel" x="0.6095999999999999" y="0.6095999999999999"></use>
                    <use href="#fuel" x="0.6095999999999999" y="0.7619999999999999"></use>
                    <use href="#fuel" x="0.6095999999999999" y="0.9143999999999999"></use>
                    <use href="#fuel" x="0.6095999999999999" y="1.0667999999999997"></use>
                    <use href="#fuel" x="0.6095999999999999" y="1.2191999999999998"></use>
                    <use href="#fuel" x="0.6095999999999999" y="1.3716"></use>
                    <use href="#fuel" x="0.6095999999999999" y="1.5239999999999998"></use>
                    <use href="#fuel" x="0.6095999999999999" y="1.6763999999999997"></use>
                    <use href="#fuel" x="0.6095999999999999" y="1.8287999999999998"></use>
                    <use href="#fuel" x="0.6095999999999999" y="1.9811999999999999"></use>
                    <use href="#fuel" x="0.6095999999999999" y="2.1335999999999995"></use>
                    <use href="#fuel" x="0.7619999999999999" y="0"></use>
                    <use href="#fuel" x="0.7619999999999999" y="0.15239999999999998"></use>
                    <use href="#fuel" x="0.7619999999999999" y="0.30479999999999996"></use>
                    <use href="#fuel" x="0.7619999999999999" y="0.45719999999999994"></use>
                    <use href="#fuel" x="0.7619999999999999" y="0.6095999999999999"></use>
                    <use href="#fuel" x="0.7619999999999999" y="0.7619999999999999"></use>
                    <use href="#fuel" x="0.7619999999999999" y="0.9143999999999999"></use>
                    <use href="#fuel" x="0.7619999999999999" y="1.0667999999999997"></use>
                    <use href="#fuel" x="0.7619999999999999" y="1.2191999999999998"></use>
                    <use href="#fuel" x="0.7619999999999999" y="1.3716"></use>
                    <use href="#fuel" x="0.7619999999999999" y="1.5239999999999998"></use>
                    <use href="#fuel" x="0.7619999999999999" y="1.6763999999999997"></use>
                    <use href="#fuel" x="0.7619999999999999" y="1.8287999999999998"></use>
                    <use href="#fuel" x="0.7619999999999999" y="1.9811999999999999"></use>
                    <use href="#fuel" x="0.7619999999999999" y="2.1335999999999995"></use>
                    <use href="#fuel" x="0.9143999999999999" y="0"></use>
                    <use href="#fuel" x="0.9143999999999999" y="0.15239999999999998"></use>
                    <use href="#fuel" x="0.9143999999999999" y="0.30479999999999996"></use>
                    <use href="#fuel" x="0.9143999999999999" y="0.45719999999999994"></use>
                    <use href="#fuel" x="0.9143999999999999" y="0.6095999999999999"></use>
                    <use href="#fuel" x="0.9143999999999999" y="0.7619999999999999"></use>
                    <use href="#fuel" x="0.9143999999999999" y="0.9143999999999999"></use>
                    <use href="#fuel" x="0.9143999999999999" y="1.0667999999999997"></use>
                    <use href="#fuel" x="0.9143999999999999" y="1.2191999999999998"></use>
                    <use href="#fuel" x="0.9143999999999999" y="1.3716"></use>
                    <use href="#fuel" x="0.9143999999999999" y="1.5239999999999998"></use>
                    <use href="#fuel" x="0.9143999999999999" y="1.6763999999999997"></use>
                    <use href="#fuel" x="0.9143999999999999" y="1.8287999999999998"></use>
                    <use href="#fuel" x="0.9143999999999999" y="1.9811999999999999"></use>
                    <use href="#fuel" x="0.9143999999999999" y="2.1335999999999995"></use>
                    <use href="#fuel" x="1.0667999999999997" y="0"></use>
                    <use href="#fuel" x="1.0667999999999997" y="0.15239999999999998"></use>
                    <use href="#fuel" x="1.0667999999999997" y="0.30479999999999996"></use>
                    <use href="#fuel" x="1.0667999999999997" y="0.45719999999999994"></use>
                    <use href="#fuel" x="1.0667999999999997" y="0.6095999999999999"></use>
                    <use href="#fuel" x="1.0667999999999997" y="0.7619999999999999"></use>
                    <use href="#fuel" x="1.0667999999999997" y="0.9143999999999999"></use>
                    <use href="#fuel" x="1.0667999999999997" y="1.0667999999999997"></use>
                    <use href="#fuel" x="1.0667999999999997" y="1.2191999999999998"></use>
                    <use href="#fuel" x="1.0667999999999997" y="1.3716"></use>
                    <use href="#fuel" x="1.0667999999999997" y="1.5239999999999998"></use>
                    <use href="#fuel" x="1.0667999999999997" y="1.6763999999999997"></use>
                    <use href="#fuel" x="1.0667999999999997" y="1.8287999999999998"></use>
                    <use href="#fuel" x="1.0667999999999997" y="1.9811999999999999"></use>
                    <use href="#fuel" x="1.0667999999999997" y="2.1335999999999995"></use>
                    <use href="#fuel" x="1.2191999999999998" y="0"></use>
                    <use href="#fuel" x="1.2191999999999998" y="0.15239999999999998"></use>
                    <use href="#fuel" x="1.2191999999999998" y="0.30479999999999996"></use>
                    <use href="#fuel" x="1.2191999999999998" y="0.45719999999999994"></use>
                    <use href="#fuel" x="1.2191999999999998" y="0.6095999999999999"></use>
                    <use href="#fuel" x="1.2191999999999998" y="0.7619999999999999"></use>
                    <use href="#fuel" x="1.2191999999999998" y="0.9143999999999999"></use>
                    <use href="#fuel" x="1.2191999999999998" y="1.0667999999999997"></use>
                    <use href="#fuel" x="1.2191999999999998" y="1.2191999999999998"></use>
                    <use href="#fuel" x="1.2191999999999998" y="1.3716"></use>
                    <use href="#fuel" x="1.2191999999999998" y="1.5239999999999998"></use>
                    <use href="#fuel" x="1.2191999999999998" y="1.6763999999999997"></use>
                    <use href="#fuel" x="1.2191999999999998" y="1.8287999999999998"></use>
                    <use href="#fuel" x="1.2191999999999998" y="1.9811999999999999"></use>
                    <use href="#fuel" x="1.2191999999999998" y="2.1335999999999995"></use>
                    <use href="#fuel" x="1.3716" y="0"></use>
                    <use href="#fuel" x="1.3716" y="0.15239999999999998"></use>
                    <use href="#fuel" x="1.3716" y="0.30479999999999996"></use>
                    <use href="#fuel" x="1.3716" y="0.45719999999999994"></use>
                    <use href="#fuel" x="1.3716" y="0.6095999999999999"></use>
                    <use href="#fuel" x="1.3716" y="0.7619999999999999"></use>
                    <use href="#fuel" x="1.3716" y="0.9143999999999999"></use>
                    <use href="#fuel" x="1.3716" y="1.0667999999999997"></use>
                    <use href="#fuel" x="1.3716" y="1.2191999999999998"></use>
                    <use href="#fuel" x="1.3716" y="1.3716"></use>
                    <use href="#fuel" x="1.3716" y="1.5239999999999998"></use>
                    <use href="#fuel" x="1.3716" y="1.6763999999999997"></use>
                    <use href="#fuel" x="1.3716" y="1.8287999999999998"></use>
                    <use href="#fuel" x="1.3716" y="1.9811999999999999"></use>
                    <use href="#fuel" x="1.3716" y="2.1335999999999995"></use>
                    <use href="#fuel" x="1.5239999999999998" y="0"></use>
                    <use href="#fuel" x="1.5239999999999998" y="0.15239999999999998"></use>
                    <use href="#fuel" x="1.5239999999999998" y="0.30479999999999996"></use>
                    <use href="#fuel" x="1.5239999999999998" y="0.45719999999999994"></use>
                    <use href="#fuel" x="1.5239999999999998" y="0.6095999999999999"></use>
                    <use href="#fuel" x="1.5239999999999998" y="0.7619999999999999"></use>
                    <use href="#fuel" x="1.5239999999999998" y="0.9143999999999999"></use>
                    <use href="#fuel" x="1.5239999999999998" y="1.0667999999999997"></use>
                    <use href="#fuel" x="1.5239999999999998" y="1.2191999999999998"></use>
                    <use href="#fuel" x="1.5239999999999998" y="1.3716"></use>
                    <use href="#fuel" x="1.5239999999999998" y="1.5239999999999998"></use>
                    <use href="#fuel" x="1.5239999999999998" y="1.6763999999999997"></use>
                    <use href="#fuel" x="1.5239999999999998" y="1.8287999999999998"></use>
                    <use href="#fuel" x="1.5239999999999998" y="1.9811999999999999"></use>
                    <use href="#fuel" x="1.5239999999999998" y="2.1335999999999995"></use>
                    <use href="#fuel" x="1.6763999999999997" y="0"></use>
                    <use href="#fuel" x="1.6763999999999997" y="0.15239999999999998"></use>
                    <use href="#fuel" x="1.6763999999999997" y="0.30479999999999996"></use>
                    <use href="#fuel" x="1.6763999999999997" y="0.45719999999999994"></use>
                    <use href="#fuel" x="1.6763999999999997" y="0.6095999999999999"></use>
                    <use href="#fuel" x="1.6763999999999997" y="0.7619999999999999"></use>
                    <use href="#fuel" x="1.6763999999999997" y="0.9143999999999999"></use>
                    <use href="#fuel" x="1.6763999999999997" y="1.0667999999999997"></use>
                    <use href="#fuel" x="1.6763999999999997" y="1.2191999999999998"></use>
                    <use href="#fuel" x="1.6763999999999997" y="1.3716"></use>
                    <use href="#fuel" x="1.6763999999999997" y="1.5239999999999998"></use>
                    <use href="#fuel" x="1.6763999999999997" y="1.6763999999999997"></use>
                    <use href="#fuel" x="1.6763999999999997" y="1.8287999999999998"></use>
                    <use href="#fuel" x="1.6763999999999997" y="1.9811999999999999"></use>
                    <use href="#fuel" x="1.6763999999999997" y="2.1335999999999995"></use>
                </g>
                <line x1="4.003326" x2="4.003326" y1="0" y2="8.0692" stroke="currentColor"
                    stroke-width="0.0508"></line>
                <g>
                    <rect x="0" y="5.431631" width="0.609" height="0.0762" fill="currentColor"></rect>
                    <rect x="0" y="6.422231" width="0.609" height="0.0762" fill="currentColor"></rect>
                    <rect x="0.609" y="5.431631" width="0.0762" height="1.0668"
                        fill="currentColor"></rect>
                    <g transform="translate(0 5.507831)">
                        <use href="#fuel" x="0" y="0"></use>
                        <use href="#fuel" x="0" y="0.15239999999999998"></use>
                        <use href="#fuel" x="0" y="0.30479999999999996"></use>
                        <use href="#fuel" x="0" y="0.45719999999999994"></use>
                        <use href="#fuel" x="0" y="0.6095999999999999"></use>
                        <use href="#fuel" x="0" y="0.7619999999999999"></use>
                        <use href="#fuel" x="0.15239999999999998" y="0"></use>
                        <use href="#fuel" x="0.15239999999999998" y="0.15239999999999998"></use>
                        <use href="#fuel" x="0.15239999999999998" y="0.30479999999999996"></use>
                        <use href="#fuel" x="0.15239999999999998" y="0.45719999999999994"></use>
                        <use href="#fuel" x="0.15239999999999998" y="0.6095999999999999"></use>
                        <use href="#fuel" x="0.15239999999999998" y="0.7619999999999999"></use>
                        <use href="#fuel" x="0.30479999999999996" y="0"></use>
                        <use href="#fuel" x="0.30479999999999996" y="0.15239999999999998"></use>
                        <use href="#fuel" x="0.30479999999999996" y="0.30479999999999996"></use>
                        <use href="#fuel" x="0.30479999999999996" y="0.45719999999999994"></use>
                        <use href="#fuel" x="0.30479999999999996" y="0.6095999999999999"></use>
                        <use href="#fuel" x="0.30479999999999996" y="0.7619999999999999"></use>
                        <use href="#fuel" x="0.45719999999999994" y="0"></use>
                        <use href="#fuel" x="0.45719999999999994" y="0.15239999999999998"></use>
                        <use href="#fuel" x="0.45719999999999994" y="0.30479999999999996"></use>
                        <use href="#fuel" x="0.45719999999999994" y="0.45719999999999994"></use>
                        <use href="#fuel" x="0.45719999999999994" y="0.6095999999999999"></use>
                        <use href="#fuel" x="0.45719999999999994" y="0.7619999999999999"></use>
                    </g>
                </g>
                <g transform="translate(8.2705 4.0346)">
                    <use href="#blueRampTrench"></use>
                    <g transform="scale(1 -1)">
                        <use href="#blueRampTrench"></use>
                    </g>
                    <rect x="-4.24215" y="-0.5969" width="1.1945589999999995" height="1.1938"
                        fill="currentColor" filter="url(#dark)"></rect>
                    <polygon
                        points="-3.033074,0 -3.340112,-0.527908 -3.949688,-0.527908 -4.254476,0 -3.949688,0.527908 -3.340112,0.527908"
                        stroke="gray" fill="transparent" stroke-width="0.0254"></polygon>
                    <circle r="0.2" stroke="gray" stroke-width="0.02" fill="transparent"
                        cx="-3.645694" cy="0"></circle>
                    <circle r="0.1" stroke="gray" stroke-width="0.02" fill="transparent"
                        cx="-3.645694" cy="0"></circle>
                    <rect x="-8.271493" y="-0.784225" width="1.1455549999999999"
                        height="0.9905999999999999" fill="black"></rect>
                    <line x1="-7.208488" y1="-0.885825" x2="-7.208488" y2="0.307975"
                        stroke="currentColor" stroke-width="0.042164"></line>
                    <rect x="-7.252938" y="0.12065000000000001" height="0.0381" width="0.0889"
                        fill="currentColor"></rect>
                    <rect x="-7.252938" y="-0.7366" height="0.0381" width="0.0889"
                        fill="currentColor"></rect>
                </g>
                <line x1="0" y1="0.259556" x2="-0.2" y2="0.259556" stroke="white"
                    stroke-width="0.0254"></line>
                <line x1="0" y1="1.072356" x2="-0.2" y2="1.072356" stroke="white"
                    stroke-width="0.0254"></line>
                <g transform="translate(-0.15239999999999998 0.285)">
                    <use href="#fuel" x="0" y="0"></use>
                    <use href="#fuel" x="0" y="0.15239999999999998"></use>
                    <use href="#fuel" x="0" y="0.30479999999999996"></use>
                    <use href="#fuel" x="0" y="0.45719999999999994"></use>
                    <use href="#fuel" x="0" y="0.6095999999999999"></use>
                </g>
            </g>
        </defs>
        <g id="tape">
            <line id="centerline" x1="8.2705" x2="8.2705" y1="0" y2="8.0692" stroke="white"
                stroke-width="0.0508"></line>
            <line id="midline" x1="0" x2="16.541" y1="4.0346" y2="4.0346" stroke="black"
                stroke-width="0.1016"></line>
        </g>
        <use x="0" y="0" width="16.541" height="8.0692" href="#blueSide" color="#1c1c99ff"></use>
        <g id="redSide" transform="translate(16.541 8.0692) rotate(180)">
            <use x="0" y="0" width="16.541" height="8.0692" href="#blueSide" color="#9e2323ff"></use>
        </g>
        <rect id="wall" x="-0.0254" y="-0.0254" width="16.5918" height="8.120000000000001"
            stroke="white" stroke-width="0.0508" fill="transparent"></rect>

    </g>
  <g transform="scale(1 -1) translate(0 -8.0692)">
    <line x1="3.6449" y1="2.0938" x2="3.6554" y2="2.0958" stroke="hsl(143.03, 100%, 50%)" stroke-width="0.05"/>
    <line x1="3.6554" y1="2.0958" x2="3.6871" y2="2.1020" stroke="hsl(142.73, 100%, 50%)" stroke-width="0.05"/>
    <line x1="3.6871" y1="2.1020" x2="3.7389" y2="2.1122" stroke="hsl(129.19, 100%, 50%)" stroke-width="0.05"/>
    <line x1="3.7389" y1="2.1122" x2="3.8087" y2="2.1258" stroke="hsl(113.41, 100%, 50%)" stroke-width="0.05"/>
    <line x1="3.8087" y1="2.1258" x2="3.8906" y2="2.1419" stroke="hsl(51.16, 100%, 50%)" stroke-width="0.05"/>
    <line x1="3.8906" y1="2.1419" x2="3.9762" y2="2.1587" stroke="hsl(0.02, 100%, 50%)" stroke-width="0.05"/>
    <line x1="3.9762" y1="2.1587" x2="4.0619" y2="2.1756" stroke="hsl(0.26, 100%, 50%)" stroke-width="0.05"/>
    <line x1="4.0619" y1="2.1756" x2="4.1476" y2="2.1923" stroke="hsl(0.41, 100%, 50%)" stroke-width="0.05"/>
    <line x1="4.1476" y1="2.1923" x2="4.2333" y2="2.2090" stroke="hsl(0.34, 100%, 50%)" stroke-width="0.05"/>
    <line x1="4.2333" y1="2.2090" x2="4.3190" y2="2.2258" stroke="hsl(0.27, 100%, 50%)" stroke-width="0.05"/>
    <line x1="4.3190" y1="2.2258" x2="4.4047" y2="2.2425" stroke="hsl(0.24, 100%, 50%)" stroke-width="0.05"/>
    <line x1="4.4047" y1="2.2425" x2="4.4904" y2="2.2593" stroke="hsl(0.13, 100%, 50%)" stroke-width="0.05"/>
    <line x1="4.4904" y1="2.2593" x2="4.5760" y2="2.2761" stroke="hsl(0.01, 100%, 50%)" stroke-width="0.05"/>
    <line x1="4.5760" y1="2.2761" x2="4.6617" y2="2.2928" stroke="hsl(0.11, 100%, 50%)" stroke-width="0.05"/>
    <line x1="4.6617" y1="2.2928" x2="4.7474" y2="2.3096" stroke="hsl(0.18, 100%, 50%)" stroke-width="0.05"/>
    <line x1="4.7474" y1="2.3096" x2="4.8331" y2="2.3263" stroke="hsl(0.11, 100%, 50%)" stroke-width="0.05"/>
    <line x1="4.8331" y1="2.3263" x2="4.9188" y2="2.3430" stroke="hsl(0.02, 100%, 50%)" stroke-width="0.05"/>
    <line x1="4.9188" y1="2.3430" x2="5.0045" y2="2.3598" stroke="hsl(0.07, 100%, 50%)" stroke-width="0.05"/>
    <line x1="5.0045" y1="2.3598" x2="5.0902" y2="2.3765" stroke="hsl(0.01, 100%, 50%)" stroke-width="0.05"/>
    <line x1="5.0902" y1="2.3765" x2="5.1759" y2="2.3933" stroke="hsl(0.08, 100%, 50%)" stroke-width="0.05"/>
    <line x1="5.1759" y1="2.3933" x2="5.2616" y2="2.4100" stroke="hsl(0.13, 100%, 50%)" stroke-width="0.05"/>
    <line x1="5.2616" y1="2.4100" x2="5.3473" y2="2.4267" stroke="hsl(0.08, 100%, 50%)" stroke-width="0.05"/>
    <line x1="5.3473" y1="2.4267" x2="5.4330" y2="2.4434" stroke="hsl(0.02, 100%, 50%)" stroke-width="0.05"/>
    <line x1="5.4330" y1="2.4434" x2="5.5187" y2="2.4601" stroke="hsl(0.10, 100%, 50%)" stroke-width="0.05"/>
    <line x1="5.5187" y1="2.4601" x2="5.6044" y2="2.4768" stroke="hsl(0.09, 100%, 50%)" stroke-width="0.05"/>
    <line x1="5.6044" y1="2.4768" x2="5.6900" y2="2.4935" stroke="hsl(0.12, 100%, 50%)" stroke-width="0.05"/>
    <line x1="5.6900" y1="2.4935" x2="5.7757" y2="2.5103" stroke="hsl(0.41, 100%, 50%)" stroke-width="0.05"/>
    <line x1="5.7757" y1="2.5103" x2="5.8614" y2="2.5271" stroke="hsl(0.27, 100%, 50%)" stroke-width="0.05"/>
    <line x1="5.8614" y1="2.5271" x2="5.9472" y2="2.5433" stroke="hsl(7.36, 100%, 50%)" stroke-width="0.05"/>
    <line x1="5.9472" y1="2.5433" x2="6.0332" y2="2.5584" stroke="hsl(8.83, 100%, 50%)" stroke-width="0.05"/>
    <line x1="6.0332" y1="2.5584" x2="6.1197" y2="2.5703" stroke="hsl(32.06, 100%, 50%)" stroke-width="0.05"/>
    <line x1="6.1197" y1="2.5703" x2="6.2066" y2="2.5725" stroke="hsl(98.02, 100%, 50%)" stroke-width="0.05"/>
    <line x1="6.2066" y1="2.5725" x2="6.2922" y2="2.5581" stroke="hsl(124.34, 100%, 50%)" stroke-width="0.05"/>
    <line x1="6.2922" y1="2.5581" x2="6.3722" y2="2.5248" stroke="hsl(139.08, 100%, 50%)" stroke-width="0.05"/>
    <line x1="6.3722" y1="2.5248" x2="6.4187" y2="2.4936" stroke="hsl(137.38, 100%, 50%)" stroke-width="0.05"/>
    <line x1="6.4187" y1="2.4936" x2="6.4599" y2="2.4557" stroke="hsl(133.92, 100%, 50%)" stroke-width="0.05"/>
    <line x1="6.4599" y1="2.4557" x2="6.4953" y2="2.4122" stroke="hsl(127.95, 100%, 50%)" stroke-width="0.05"/>
    <line x1="6.4953" y1="2.4122" x2="6.5245" y2="2.3643" stroke="hsl(116.41, 100%, 50%)" stroke-width="0.05"/>
    <line x1="6.5245" y1="2.3643" x2="6.5482" y2="2.3133" stroke="hsl(82.61, 100%, 50%)" stroke-width="0.05"/>
    <line x1="6.5482" y1="2.3133" x2="6.5686" y2="2.2610" stroke="hsl(31.38, 100%, 50%)" stroke-width="0.05"/>
    <line x1="6.5686" y1="2.2610" x2="6.5879" y2="2.2081" stroke="hsl(11.72, 100%, 50%)" stroke-width="0.05"/>
    <line x1="6.5879" y1="2.2081" x2="6.6066" y2="2.1551" stroke="hsl(5.25, 100%, 50%)" stroke-width="0.05"/>
    <line x1="6.6066" y1="2.1551" x2="6.6250" y2="2.1020" stroke="hsl(2.65, 100%, 50%)" stroke-width="0.05"/>
    <line x1="6.6250" y1="2.1020" x2="6.6434" y2="2.0489" stroke="hsl(1.39, 100%, 50%)" stroke-width="0.05"/>
    <line x1="6.6434" y1="2.0489" x2="6.6617" y2="1.9957" stroke="hsl(0.70, 100%, 50%)" stroke-width="0.05"/>
    <line x1="6.6617" y1="1.9957" x2="6.6799" y2="1.9425" stroke="hsl(0.25, 100%, 50%)" stroke-width="0.05"/>
    <line x1="6.6799" y1="1.9425" x2="6.6982" y2="1.8894" stroke="hsl(0.08, 100%, 50%)" stroke-width="0.05"/>
    <line x1="6.6982" y1="1.8894" x2="6.7165" y2="1.8362" stroke="hsl(0.33, 100%, 50%)" stroke-width="0.05"/>
    <line x1="6.7165" y1="1.8362" x2="6.7348" y2="1.7830" stroke="hsl(0.54, 100%, 50%)" stroke-width="0.05"/>
    <line x1="6.7348" y1="1.7830" x2="6.7531" y2="1.7299" stroke="hsl(0.39, 100%, 50%)" stroke-width="0.05"/>
    <line x1="6.7531" y1="1.7299" x2="6.7714" y2="1.6767" stroke="hsl(0.49, 100%, 50%)" stroke-width="0.05"/>
    <line x1="6.7714" y1="1.6767" x2="6.7898" y2="1.6236" stroke="hsl(0.64, 100%, 50%)" stroke-width="0.05"/>
    <line x1="6.7898" y1="1.6236" x2="6.8083" y2="1.5705" stroke="hsl(0.95, 100%, 50%)" stroke-width="0.05"/>
    <line x1="6.8083" y1="1.5705" x2="6.8268" y2="1.5174" stroke="hsl(2.79, 100%, 50%)" stroke-width="0.05"/>
    <line x1="6.8268" y1="1.5174" x2="6.8456" y2="1.4644" stroke="hsl(5.60, 100%, 50%)" stroke-width="0.05"/>
    <line x1="6.8456" y1="1.4644" x2="6.8649" y2="1.4116" stroke="hsl(12.65, 100%, 50%)" stroke-width="0.05"/>
    <line x1="6.8649" y1="1.4116" x2="6.8856" y2="1.3593" stroke="hsl(33.51, 100%, 50%)" stroke-width="0.05"/>
    <line x1="6.8856" y1="1.3593" x2="6.9101" y2="1.3088" stroke="hsl(101.56, 100%, 50%)" stroke-width="0.05"/>
    <line x1="6.9101" y1="1.3088" x2="6.9407" y2="1.2619" stroke="hsl(125.87, 100%, 50%)" stroke-width="0.05"/>
    <line x1="6.9407" y1="1.2619" x2="6.9762" y2="1.2227" stroke="hsl(188.20, 100%, 50%)" stroke-width="0.05"/>
    <line x1="6.9762" y1="1.2227" x2="7.0217" y2="1.1890" stroke="hsl(134.67, 100%, 50%)" stroke-width="0.05"/>
    <line x1="7.0217" y1="1.1890" x2="7.0725" y2="1.1640" stroke="hsl(120.62, 100%, 50%)" stroke-width="0.05"/>
    <line x1="7.0725" y1="1.1640" x2="7.1264" y2="1.1462" stroke="hsl(71.11, 100%, 50%)" stroke-width="0.05"/>
    <line x1="7.1264" y1="1.1462" x2="7.1813" y2="1.1315" stroke="hsl(12.35, 100%, 50%)" stroke-width="0.05"/>
    <line x1="7.1813" y1="1.1315" x2="7.2363" y2="1.1175" stroke="hsl(4.21, 100%, 50%)" stroke-width="0.05"/>
    <line x1="7.2363" y1="1.1175" x2="7.2915" y2="1.1037" stroke="hsl(1.37, 100%, 50%)" stroke-width="0.05"/>
    <line x1="7.2915" y1="1.1037" x2="7.3467" y2="1.0900" stroke="hsl(0.96, 100%, 50%)" stroke-width="0.05"/>
    <line x1="7.3467" y1="1.0900" x2="7.4018" y2="1.0764" stroke="hsl(2.02, 100%, 50%)" stroke-width="0.05"/>
    <line x1="7.4018" y1="1.0764" x2="7.4571" y2="1.0630" stroke="hsl(3.67, 100%, 50%)" stroke-width="0.05"/>
    <line x1="7.4571" y1="1.0630" x2="7.5125" y2="1.0505" stroke="hsl(17.37, 100%, 50%)" stroke-width="0.05"/>
    <line x1="7.5125" y1="1.0505" x2="7.5685" y2="1.0413" stroke="hsl(66.36, 100%, 50%)" stroke-width="0.05"/>
    <line x1="7.5685" y1="1.0413" x2="7.6251" y2="1.0396" stroke="hsl(119.59, 100%, 50%)" stroke-width="0.05"/>
    <line x1="7.6251" y1="1.0396" x2="7.6775" y2="1.0489" stroke="hsl(189.44, 100%, 50%)" stroke-width="0.05"/>
    <line x1="7.6775" y1="1.0489" x2="7.7189" y2="1.0689" stroke="hsl(194.42, 100%, 50%)" stroke-width="0.05"/>
    <line x1="7.7189" y1="1.0689" x2="7.7532" y2="1.1011" stroke="hsl(133.95, 100%, 50%)" stroke-width="0.05"/>
    <line x1="7.7532" y1="1.1011" x2="7.7773" y2="1.1415" stroke="hsl(130.97, 100%, 50%)" stroke-width="0.05"/>
    <line x1="7.7773" y1="1.1415" x2="7.7911" y2="1.1867" stroke="hsl(94.60, 100%, 50%)" stroke-width="0.05"/>
    <line x1="7.7911" y1="1.1867" x2="7.7999" y2="1.2334" stroke="hsl(12.46, 100%, 50%)" stroke-width="0.05"/>
    <line x1="7.7999" y1="1.2334" x2="7.8079" y2="1.2802" stroke="hsl(2.25, 100%, 50%)" stroke-width="0.05"/>
    <line x1="7.8079" y1="1.2802" x2="7.8157" y2="1.3271" stroke="hsl(0.78, 100%, 50%)" stroke-width="0.05"/>
    <line x1="7.8157" y1="1.3271" x2="7.8235" y2="1.3740" stroke="hsl(0.33, 100%, 50%)" stroke-width="0.05"/>
    <line x1="7.8235" y1="1.3740" x2="7.8313" y2="1.4208" stroke="hsl(0.14, 100%, 50%)" stroke-width="0.05"/>
    <line x1="7.8313" y1="1.4208" x2="7.8391" y2="1.4677" stroke="hsl(0.07, 100%, 50%)" stroke-width="0.05"/>
    <line x1="7.8391" y1="1.4677" x2="7.8468" y2="1.5146" stroke="hsl(0.04, 100%, 50%)" stroke-width="0.05"/>
    <line x1="7.8468" y1="1.5146" x2="7.8546" y2="1.5615" stroke="hsl(0.03, 100%, 50%)" stroke-width="0.05"/>
    <line x1="7.8546" y1="1.5615" x2="7.8623" y2="1.6083" stroke="hsl(0.04, 100%, 50%)" stroke-width="0.05"/>
    <line x1="7.8623" y1="1.6083" x2="7.8701" y2="1.6552" stroke="hsl(0.05, 100%, 50%)" stroke-width="0.05"/>
    <line x1="7.8701" y1="1.6552" x2="7.8778" y2="1.7021" stroke="hsl(0.10, 100%, 50%)" stroke-width="0.05"/>
    <line x1="7.8778" y1="1.7021" x2="7.8855" y2="1.7490" stroke="hsl(0.21, 100%, 50%)" stroke-width="0.05"/>
    <line x1="7.8855" y1="1.7490" x2="7.8932" y2="1.7959" stroke="hsl(0.46, 100%, 50%)" stroke-width="0.05"/>
    <line x1="7.8932" y1="1.7959" x2="7.9009" y2="1.8428" stroke="hsl(1.15, 100%, 50%)" stroke-width="0.05"/>
    <line x1="7.9009" y1="1.8428" x2="7.9082" y2="1.8897" stroke="hsl(3.94, 100%, 50%)" stroke-width="0.05"/>
    <line x1="7.9082" y1="1.8897" x2="7.9137" y2="1.9369" stroke="hsl(33.30, 100%, 50%)" stroke-width="0.05"/>
    <line x1="7.9137" y1="1.9369" x2="7.9167" y2="2.0003" stroke="hsl(23.65, 100%, 50%)" stroke-width="0.05"/>
    <line x1="7.9167" y1="2.0003" x2="7.9175" y2="2.0638" stroke="hsl(1.45, 100%, 50%)" stroke-width="0.05"/>
    <line x1="7.9175" y1="2.0638" x2="7.9181" y2="2.1273" stroke="hsl(0.39, 100%, 50%)" stroke-width="0.05"/>
    <line x1="7.9181" y1="2.1273" x2="7.9187" y2="2.1908" stroke="hsl(0.13, 100%, 50%)" stroke-width="0.05"/>
    <line x1="7.9187" y1="2.1908" x2="7.9192" y2="2.2544" stroke="hsl(0.05, 100%, 50%)" stroke-width="0.05"/>
    <line x1="7.9192" y1="2.2544" x2="7.9197" y2="2.3179" stroke="hsl(0.02, 100%, 50%)" stroke-width="0.05"/>
    <line x1="7.9197" y1="2.3179" x2="7.9203" y2="2.3814" stroke="hsl(0.01, 100%, 50%)" stroke-width="0.05"/>
    <line x1="7.9203" y1="2.3814" x2="7.9208" y2="2.4449" stroke="hsl(0.01, 100%, 50%)" stroke-width="0.05"/>
    <line x1="7.9208" y1="2.4449" x2="7.9213" y2="2.5084" stroke="hsl(0.00, 100%, 50%)" stroke-width="0.05"/>
    <line x1="7.9213" y1="2.5084" x2="7.9218" y2="2.5720" stroke="hsl(0.00, 100%, 50%)" stroke-width="0.05"/>
    <line x1="7.9218" y1="2.5720" x2="7.9224" y2="2.6355" stroke="hsl(0.00, 100%, 50%)" stroke-width="0.05"/>
    <line x1="7.9224" y1="2.6355" x2="7.9229" y2="2.6990" stroke="hsl(0.00, 100%, 50%)" stroke-width="0.05"/>
    <line x1="7.9229" y1="2.6990" x2="7.9234" y2="2.7625" stroke="hsl(0.00, 100%, 50%)" stroke-width="0.05"/>
    <line x1="7.9234" y1="2.7625" x2="7.9239" y2="2.8261" stroke="hsl(0.00, 100%, 50%)" stroke-width="0.05"/>
    <line x1="7.9239" y1="2.8261" x2="7.9245" y2="2.8896" stroke="hsl(0.00, 100%, 50%)" stroke-width="0.05"/>
    <line x1="7.9245" y1="2.8896" x2="7.9250" y2="2.9531" stroke="hsl(0.00, 100%, 50%)" stroke-width="0.05"/>
    <line x1="7.9250" y1="2.9531" x2="7.9255" y2="3.0166" stroke="hsl(0.01, 100%, 50%)" stroke-width="0.05"/>
    <line x1="7.9255" y1="3.0166" x2="7.9261" y2="3.0802" stroke="hsl(0.01, 100%, 50%)" stroke-width="0.05"/>
    <line x1="7.9261" y1="3.0802" x2="7.9266" y2="3.1437" stroke="hsl(0.01, 100%, 50%)" stroke-width="0.05"/>
    <line x1="7.9266" y1="3.1437" x2="7.9271" y2="3.2072" stroke="hsl(0.03, 100%, 50%)" stroke-width="0.05"/>
    <line x1="7.9271" y1="3.2072" x2="7.9276" y2="3.2707" stroke="hsl(0.05, 100%, 50%)" stroke-width="0.05"/>
    <line x1="7.9276" y1="3.2707" x2="7.9281" y2="3.3342" stroke="hsl(0.09, 100%, 50%)" stroke-width="0.05"/>
    <line x1="7.9281" y1="3.3342" x2="7.9286" y2="3.3978" stroke="hsl(0.28, 100%, 50%)" stroke-width="0.05"/>
    <line x1="7.9286" y1="3.3978" x2="7.9288" y2="3.4613" stroke="hsl(1.74, 100%, 50%)" stroke-width="0.05"/>
    <line x1="7.9288" y1="3.4613" x2="7.9264" y2="3.5247" stroke="hsl(28.45, 100%, 50%)" stroke-width="0.05"/>
    <line x1="7.9264" y1="3.5247" x2="7.9114" y2="3.5856" stroke="hsl(115.85, 100%, 50%)" stroke-width="0.05"/>
    <line x1="7.9114" y1="3.5856" x2="7.8765" y2="3.6373" stroke="hsl(130.81, 100%, 50%)" stroke-width="0.05"/>
    <line x1="7.8765" y1="3.6373" x2="7.8251" y2="3.6728" stroke="hsl(132.46, 100%, 50%)" stroke-width="0.05"/>
    <line x1="7.8251" y1="3.6728" x2="7.7791" y2="3.6864" stroke="hsl(122.15, 100%, 50%)" stroke-width="0.05"/>
    <line x1="7.7791" y1="3.6864" x2="7.7268" y2="3.6903" stroke="hsl(112.75, 100%, 50%)" stroke-width="0.05"/>
    <line x1="7.7268" y1="3.6903" x2="7.6663" y2="3.6874" stroke="hsl(103.99, 100%, 50%)" stroke-width="0.05"/>
    <line x1="7.6663" y1="3.6874" x2="7.5990" y2="3.6777" stroke="hsl(96.24, 100%, 50%)" stroke-width="0.05"/>
    <line x1="7.5990" y1="3.6777" x2="7.5309" y2="3.6584" stroke="hsl(113.27, 100%, 50%)" stroke-width="0.05"/>
    <line x1="7.5309" y1="3.6584" x2="7.4662" y2="3.6294" stroke="hsl(91.57, 100%, 50%)" stroke-width="0.05"/>
    <line x1="7.4662" y1="3.6294" x2="7.4044" y2="3.5946" stroke="hsl(38.96, 100%, 50%)" stroke-width="0.05"/>
    <line x1="7.4044" y1="3.5946" x2="7.3437" y2="3.5578" stroke="hsl(8.01, 100%, 50%)" stroke-width="0.05"/>
    <line x1="7.3437" y1="3.5578" x2="7.2832" y2="3.5205" stroke="hsl(2.71, 100%, 50%)" stroke-width="0.05"/>
    <line x1="7.2832" y1="3.5205" x2="7.2229" y2="3.4830" stroke="hsl(1.28, 100%, 50%)" stroke-width="0.05"/>
    <line x1="7.2229" y1="3.4830" x2="7.1626" y2="3.4455" stroke="hsl(0.73, 100%, 50%)" stroke-width="0.05"/>
    <line x1="7.1626" y1="3.4455" x2="7.1024" y2="3.4079" stroke="hsl(0.44, 100%, 50%)" stroke-width="0.05"/>
    <line x1="7.1024" y1="3.4079" x2="7.0421" y2="3.3702" stroke="hsl(0.26, 100%, 50%)" stroke-width="0.05"/>
    <line x1="7.0421" y1="3.3702" x2="6.9819" y2="3.3326" stroke="hsl(0.16, 100%, 50%)" stroke-width="0.05"/>
    <line x1="6.9819" y1="3.3326" x2="6.9217" y2="3.2949" stroke="hsl(0.09, 100%, 50%)" stroke-width="0.05"/>
    <line x1="6.9217" y1="3.2949" x2="6.8615" y2="3.2572" stroke="hsl(0.05, 100%, 50%)" stroke-width="0.05"/>
    <line x1="6.8615" y1="3.2572" x2="6.8013" y2="3.2196" stroke="hsl(0.02, 100%, 50%)" stroke-width="0.05"/>
    <line x1="6.8013" y1="3.2196" x2="6.7411" y2="3.1819" stroke="hsl(0.00, 100%, 50%)" stroke-width="0.05"/>
    <line x1="6.7411" y1="3.1819" x2="6.6809" y2="3.1442" stroke="hsl(0.02, 100%, 50%)" stroke-width="0.05"/>
    <line x1="6.6809" y1="3.1442" x2="6.6207" y2="3.1066" stroke="hsl(0.06, 100%, 50%)" stroke-width="0.05"/>
    <line x1="6.6207" y1="3.1066" x2="6.5605" y2="3.0689" stroke="hsl(0.11, 100%, 50%)" stroke-width="0.05"/>
    <line x1="6.5605" y1="3.0689" x2="6.5003" y2="3.0313" stroke="hsl(0.18, 100%, 50%)" stroke-width="0.05"/>
    <line x1="6.5003" y1="3.0313" x2="6.4400" y2="2.9936" stroke="hsl(0.30, 100%, 50%)" stroke-width="0.05"/>
    <line x1="6.4400" y1="2.9936" x2="6.3798" y2="2.9560" stroke="hsl(0.51, 100%, 50%)" stroke-width="0.05"/>
    <line x1="6.3798" y1="2.9560" x2="6.3195" y2="2.9185" stroke="hsl(0.97, 100%, 50%)" stroke-width="0.05"/>
    <line x1="6.3195" y1="2.9185" x2="6.2591" y2="2.8811" stroke="hsl(1.98, 100%, 50%)" stroke-width="0.05"/>
    <line x1="6.2591" y1="2.8811" x2="6.1986" y2="2.8439" stroke="hsl(4.08, 100%, 50%)" stroke-width="0.05"/>
    <line x1="6.1986" y1="2.8439" x2="6.1375" y2="2.8078" stroke="hsl(18.57, 100%, 50%)" stroke-width="0.05"/>
    <line x1="6.1375" y1="2.8078" x2="6.0768" y2="2.7799" stroke="hsl(152.05, 100%, 50%)" stroke-width="0.05"/>
    <line x1="6.0768" y1="2.7799" x2="6.0077" y2="2.7625" stroke="hsl(91.50, 100%, 50%)" stroke-width="0.05"/>
    <line x1="6.0077" y1="2.7625" x2="5.9369" y2="2.7517" stroke="hsl(14.11, 100%, 50%)" stroke-width="0.05"/>
    <line x1="5.9369" y1="2.7517" x2="5.8660" y2="2.7420" stroke="hsl(2.31, 100%, 50%)" stroke-width="0.05"/>
    <line x1="5.8660" y1="2.7420" x2="5.7951" y2="2.7324" stroke="hsl(0.80, 100%, 50%)" stroke-width="0.05"/>
    <line x1="5.7951" y1="2.7324" x2="5.7242" y2="2.7229" stroke="hsl(0.40, 100%, 50%)" stroke-width="0.05"/>
    <line x1="5.7242" y1="2.7229" x2="5.6532" y2="2.7135" stroke="hsl(0.21, 100%, 50%)" stroke-width="0.05"/>
    <line x1="5.6532" y1="2.7135" x2="5.5823" y2="2.7041" stroke="hsl(0.12, 100%, 50%)" stroke-width="0.05"/>
    <line x1="5.5823" y1="2.7041" x2="5.5113" y2="2.6946" stroke="hsl(0.07, 100%, 50%)" stroke-width="0.05"/>
    <line x1="5.5113" y1="2.6946" x2="5.4404" y2="2.6852" stroke="hsl(0.04, 100%, 50%)" stroke-width="0.05"/>
    <line x1="5.4404" y1="2.6852" x2="5.3694" y2="2.6758" stroke="hsl(0.03, 100%, 50%)" stroke-width="0.05"/>
    <line x1="5.3694" y1="2.6758" x2="5.2985" y2="2.6664" stroke="hsl(0.02, 100%, 50%)" stroke-width="0.05"/>
    <line x1="5.2985" y1="2.6664" x2="5.2275" y2="2.6570" stroke="hsl(0.02, 100%, 50%)" stroke-width="0.05"/>
    <line x1="5.2275" y1="2.6570" x2="5.1566" y2="2.6477" stroke="hsl(0.02, 100%, 50%)" stroke-width="0.05"/>
    <line x1="5.1566" y1="2.6477" x2="5.0857" y2="2.6383" stroke="hsl(0.02, 100%, 50%)" stroke-width="0.05"/>
    <line x1="5.0857" y1="2.6383" x2="5.0147" y2="2.6289" stroke="hsl(0.02, 100%, 50%)" stroke-width="0.05"/>
    <line x1="5.0147" y1="2.6289" x2="4.9438" y2="2.6195" stroke="hsl(0.02, 100%, 50%)" stroke-width="0.05"/>
    <line x1="4.9438" y1="2.6195" x2="4.8728" y2="2.6101" stroke="hsl(0.04, 100%, 50%)" stroke-width="0.05"/>
    <line x1="4.8728" y1="2.6101" x2="4.8019" y2="2.6007" stroke="hsl(0.06, 100%, 50%)" stroke-width="0.05"/>
    <line x1="4.8019" y1="2.6007" x2="4.7309" y2="2.5914" stroke="hsl(0.09, 100%, 50%)" stroke-width="0.05"/>
    <line x1="4.7309" y1="2.5914" x2="4.6600" y2="2.5820" stroke="hsl(0.16, 100%, 50%)" stroke-width="0.05"/>
    <line x1="4.6600" y1="2.5820" x2="4.5890" y2="2.5727" stroke="hsl(0.29, 100%, 50%)" stroke-width="0.05"/>
    <line x1="4.5890" y1="2.5727" x2="4.5180" y2="2.5634" stroke="hsl(0.58, 100%, 50%)" stroke-width="0.05"/>
    <line x1="4.5180" y1="2.5634" x2="4.4471" y2="2.5542" stroke="hsl(0.78, 100%, 50%)" stroke-width="0.05"/>
    <line x1="4.4471" y1="2.5542" x2="4.3761" y2="2.5453" stroke="hsl(2.91, 100%, 50%)" stroke-width="0.05"/>
    <line x1="4.3761" y1="2.5453" x2="4.3049" y2="2.5383" stroke="hsl(27.09, 100%, 50%)" stroke-width="0.05"/>
    <line x1="4.3049" y1="2.5383" x2="4.2498" y2="2.5353" stroke="hsl(28.75, 100%, 50%)" stroke-width="0.05"/>
    <line x1="4.2498" y1="2.5353" x2="4.1947" y2="2.5336" stroke="hsl(5.38, 100%, 50%)" stroke-width="0.05"/>
    <line x1="4.1947" y1="2.5336" x2="4.1396" y2="2.5322" stroke="hsl(2.17, 100%, 50%)" stroke-width="0.05"/>
    <line x1="4.1396" y1="2.5322" x2="4.0844" y2="2.5309" stroke="hsl(1.49, 100%, 50%)" stroke-width="0.05"/>
    <line x1="4.0844" y1="2.5309" x2="4.0293" y2="2.5297" stroke="hsl(1.51, 100%, 50%)" stroke-width="0.05"/>
    <line x1="4.0293" y1="2.5297" x2="3.9742" y2="2.5287" stroke="hsl(2.10, 100%, 50%)" stroke-width="0.05"/>
    <line x1="3.9742" y1="2.5287" x2="3.9190" y2="2.5279" stroke="hsl(4.10, 100%, 50%)" stroke-width="0.05"/>
    <line x1="3.9190" y1="2.5279" x2="3.8639" y2="2.5277" stroke="hsl(11.74, 100%, 50%)" stroke-width="0.05"/>
    <line x1="3.8639" y1="2.5277" x2="3.8088" y2="2.5300" stroke="hsl(51.75, 100%, 50%)" stroke-width="0.05"/>
    <line x1="3.8088" y1="2.5300" x2="3.7545" y2="2.5383" stroke="hsl(108.87, 100%, 50%)" stroke-width="0.05"/>
    <line x1="3.7545" y1="2.5383" x2="3.6803" y2="2.5633" stroke="hsl(100.80, 100%, 50%)" stroke-width="0.05"/>
    <line x1="3.6803" y1="2.5633" x2="3.6094" y2="2.5973" stroke="hsl(22.36, 100%, 50%)" stroke-width="0.05"/>
    <line x1="3.6094" y1="2.5973" x2="3.5394" y2="2.6331" stroke="hsl(3.08, 100%, 50%)" stroke-width="0.05"/>
    <line x1="3.5394" y1="2.6331" x2="3.4695" y2="2.6692" stroke="hsl(0.88, 100%, 50%)" stroke-width="0.05"/>
    <line x1="3.4695" y1="2.6692" x2="3.3996" y2="2.7053" stroke="hsl(0.24, 100%, 50%)" stroke-width="0.05"/>
    <line x1="3.3996" y1="2.7053" x2="3.3298" y2="2.7414" stroke="hsl(0.05, 100%, 50%)" stroke-width="0.05"/>
    <line x1="3.3298" y1="2.7414" x2="3.2599" y2="2.7776" stroke="hsl(0.11, 100%, 50%)" stroke-width="0.05"/>
    <line x1="3.2599" y1="2.7776" x2="3.1901" y2="2.8138" stroke="hsl(0.12, 100%, 50%)" stroke-width="0.05"/>
    <line x1="3.1901" y1="2.8138" x2="3.1213" y2="2.8494" stroke="hsl(15.19, 100%, 50%)" stroke-width="0.05"/>
    <line x1="3.1213" y1="2.8494" x2="3.0647" y2="2.8785" stroke="hsl(163.91, 100%, 50%)" stroke-width="0.05"/>
    <line x1="3.0647" y1="2.8785" x2="3.0308" y2="2.8961" stroke="hsl(164.53, 100%, 50%)" stroke-width="0.05"/>
    <line x1="3.0308" y1="2.8961" x2="3.0196" y2="2.9021" stroke="hsl(164.79, 100%, 50%)" stroke-width="0.05"/>
    <polygon points="3.2385,1.6874 3.2385,2.5002 4.0513,2.5001 4.0513,1.6873" fill="rgba(0,0,0,0.12)" stroke="#000000" stroke-width="0.04"/><circle cx="3.6449" cy="2.0938" r="0.03" fill="#ffffff" stroke="#000000" stroke-width="0.015"/><polygon points="3.1510,2.0938 3.2260,2.0588 3.2260,2.1288" fill="#ffffff" stroke="#000000" stroke-width="0.02"/>
    <polygon points="5.7996,2.5749 6.4223,3.0974 6.9447,2.4747 6.3221,1.9523" fill="rgba(0,0,0,0.12)" stroke="#000000" stroke-width="0.04"/><circle cx="6.3722" cy="2.5248" r="0.03" fill="#ffffff" stroke="#000000" stroke-width="0.015"/><polygon points="6.0547,2.9032 6.0761,2.8232 6.1297,2.8682" fill="#ffffff" stroke="#000000" stroke-width="0.02"/>
    <polygon points="7.1250,0.6676 6.4211,1.0740 6.8275,1.7779 7.5314,1.3715" fill="rgba(0,0,0,0.12)" stroke="#000000" stroke-width="0.04"/><circle cx="6.9762" cy="1.2227" r="0.03" fill="#ffffff" stroke="#000000" stroke-width="0.015"/><polygon points="6.7293,0.7950 6.7971,0.8424 6.7365,0.8774" fill="#ffffff" stroke="#000000" stroke-width="0.02"/>
    <polygon points="8.0485,0.5981 7.2481,0.7393 7.3892,1.5397 8.1897,1.3986" fill="rgba(0,0,0,0.12)" stroke="#000000" stroke-width="0.04"/><circle cx="7.7189" cy="1.0689" r="0.03" fill="#ffffff" stroke="#000000" stroke-width="0.015"/><polygon points="7.6331,0.5825 7.6806,0.6503 7.6117,0.6625" fill="#ffffff" stroke="#000000" stroke-width="0.02"/>
    <polygon points="8.4363,1.6976 7.6745,1.4143 7.3911,2.1761 8.1529,2.4595" fill="rgba(0,0,0,0.12)" stroke="#000000" stroke-width="0.04"/><circle cx="7.9137" cy="1.9369" r="0.03" fill="#ffffff" stroke="#000000" stroke-width="0.015"/><polygon points="8.0859,1.4740 8.0926,1.5565 8.0269,1.5320" fill="#ffffff" stroke="#000000" stroke-width="0.02"/>
    <polygon points="8.3089,3.3624 7.5148,3.1890 7.3414,3.9831 8.1355,4.1565" fill="rgba(0,0,0,0.12)" stroke="#000000" stroke-width="0.04"/><circle cx="7.8251" cy="3.6728" r="0.03" fill="#ffffff" stroke="#000000" stroke-width="0.015"/><polygon points="7.9305,3.1902 7.9487,3.2710 7.8803,3.2560" fill="#ffffff" stroke="#000000" stroke-width="0.02"/>
    <polygon points="6.4832,3.1863 6.4832,2.3735 5.6704,2.3735 5.6704,3.1863" fill="rgba(0,0,0,0.12)" stroke="#000000" stroke-width="0.04"/><circle cx="6.0768" cy="2.7799" r="0.03" fill="#ffffff" stroke="#000000" stroke-width="0.015"/><polygon points="6.5707,2.7799 6.4957,2.8149 6.4957,2.7449" fill="#ffffff" stroke="#000000" stroke-width="0.02"/>
    <polygon points="4.4536,3.0934 4.8600,2.3895 4.1561,1.9831 3.7497,2.6870" fill="rgba(0,0,0,0.12)" stroke="#000000" stroke-width="0.04"/><circle cx="4.3049" cy="2.5383" r="0.03" fill="#ffffff" stroke="#000000" stroke-width="0.015"/><polygon points="4.7326,2.7852 4.6501,2.7780 4.6851,2.7174" fill="#ffffff" stroke="#000000" stroke-width="0.02"/>
    <polygon points="3.8177,3.1095 4.3257,2.4751 3.6913,1.9670 3.1832,2.6014" fill="rgba(0,0,0,0.12)" stroke="#000000" stroke-width="0.04"/><circle cx="3.7545" cy="2.5383" r="0.03" fill="#ffffff" stroke="#000000" stroke-width="0.015"/><polygon points="4.1400,2.8470 4.0596,2.8274 4.1033,2.7728" fill="#ffffff" stroke="#000000" stroke-width="0.02"/>
    <polygon points="3.1193,3.4681 3.5856,2.8023 2.9198,2.3361 2.4535,3.0019" fill="rgba(0,0,0,0.12)" stroke="#000000" stroke-width="0.04"/><circle cx="3.0196" cy="2.9021" r="0.03" fill="#ffffff" stroke="#000000" stroke-width="0.015"/><polygon points="3.4241,3.1854 3.3426,3.1710 3.3828,3.1137" fill="#ffffff" stroke="#000000" stroke-width="0.02"/>
  </g>
  <text x="-0.4" y="-0.15" font-size="0.32" font-family="monospace" fill="white" stroke="black" stroke-width="0.02" paint-order="stroke fill">PR  swerve-heavy-medium-dt · BumpCrossRight</text>
</svg>
