<svg xmlns="http://www.w3.org/2000/svg" viewBox="-0.5 -0.5 17.541 9.0692" width="2631" height="1360">
  <g id="field" transform="scale(1 -1) translate(0 -8.0692)">
        <defs>
            <filter id="dark">
                <feComponentTransfer>
                    <feFuncR type="linear" slope="0.5"></feFuncR>
                    <feFuncG type="linear" slope="0.5"></feFuncG>
                    <feFuncB type="linear" slope="0.5"></feFuncB>
                </feComponentTransfer>
            </filter>
            <circle id="fuel" cx="0.07619999999999999" cy="0.07619999999999999"
                r="0.07505699999999998" fill="#B1902F"></circle>
            <g id="blueRampTrench">
                <rect height="0.3055620000000001" width="1.193852" x="-4.2426200000000005"
                    y="2.450338" fill="currentColor" filter="url(#dark)"></rect>
                <rect x="-4.208718" y="0.5940749999999999" width="0.563024" height="1.856263"
                    fill="currentColor"></rect>
                <rect x="-3.645694" y="0.5940749999999999" width="0.563024" height="1.856263"
                    fill="currentColor"></rect>
                <line x1="-3.645694" y1="0.5940749999999999" x2="-3.645694" y2="2.450338"
                    stroke="black" stroke-width="0.01"></line>
                <line x1="-3.645694" y1="2.7559" x2="-3.645694" y2="4.0346"
                    stroke="currentColor" stroke-width="0.1524"></line>
            </g>
            <g id="blueSide">
                <g transform="translate(7.3561000000000005 4.0600000000000005)">
                    <use href="#fuel" x="0" y="0"></use>
                    <use href="#fuel" x="0" y="0.15239999999999998"></use>
                    <use href="#fuel" x="0" y="0.30479999999999996"></use>
                    <use href="#fuel" x="0" y="0.45719999999999994"></use>
                    <use href="#fuel" x="0" y="0.6095999999999999"></use>
                    <use href="#fuel" x="0" y="0.7619999999999999"></use>
                    <use href="#fuel" x="0" y="0.9143999999999999"></use>
                    <use href="#fuel" x="0" y="1.0667999999999997"></use>
                    <use href="#fuel" x="0" y="1.2191999999999998"></use>
                    <use href="#fuel" x="0" y="1.3716"></use>
                    <use href="#fuel" x="0" y="1.5239999999999998"></use>
                    <use href="#fuel" x="0" y="1.6763999999999997"></use>
                    <use href="#fuel" x="0" y="1.8287999999999998"></use>
                    <use href="#fuel" x="0" y="1.9811999999999999"></use>
                    <use href="#fuel" x="0" y="2.1335999999999995"></use>
                    <use href="#fuel" x="0.15239999999999998" y="0"></use>
                    <use href="#fuel" x="0.15239999999999998" y="0.15239999999999998"></use>
                    <use href="#fuel" x="0.15239999999999998" y="0.30479999999999996"></use>
                    <use href="#fuel" x="0.15239999999999998" y="0.45719999999999994"></use>
                    <use href="#fuel" x="0.15239999999999998" y="0.6095999999999999"></use>
                    <use href="#fuel" x="0.15239999999999998" y="0.7619999999999999"></use>
                    <use href="#fuel" x="0.15239999999999998" y="0.9143999999999999"></use>
                    <use href="#fuel" x="0.15239999999999998" y="1.0667999999999997"></use>
                    <use href="#fuel" x="0.15239999999999998" y="1.2191999999999998"></use>
                    <use href="#fuel" x="0.15239999999999998" y="1.3716"></use>
                    <use href="#fuel" x="0.15239999999999998" y="1.5239999999999998"></use>
                    <use href="#fuel" x="0.15239999999999998" y="1.6763999999999997"></use>
                    <use href="#fuel" x="0.15239999999999998" y="1.8287999999999998"></use>
                    <use href="#fuel" x="0.15239999999999998" y="1.9811999999999999"></use>
                    <use href="#fuel" x="0.15239999999999998" y="2.1335999999999995"></use>
                    <use href="#fuel" x="0.30479999999999996" y="0"></use>
                    <use href="#fuel" x="0.30479999999999996" y="0.15239999999999998"></use>
                    <use href="#fuel" x="0.30479999999999996" y="0.30479999999999996"></use>
                    <use href="#fuel" x="0.30479999999999996" y="0.45719999999999994"></use>
                    <use href="#fuel" x="0.30479999999999996" y="0.6095999999999999"></use>
                    <use href="#fuel" x="0.30479999999999996" y="0.7619999999999999"></use>
                    <use href="#fuel" x="0.30479999999999996" y="0.9143999999999999"></use>
                    <use href="#fuel" x="0.30479999999999996" y="1.0667999999999997"></use>
                    <use href="#fuel" x="0.30479999999999996" y="1.2191999999999998"></use>
                    <use href="#fuel" x="0.30479999999999996" y="1.3716"></use>
                    <use href="#fuel" x="0.30479999999999996" y="1.5239999999999998"></use>
                    <use href="#fuel" x="0.30479999999999996" y="1.6763999999999997"></use>
                    <use href="#fuel" x="0.30479999999999996" y="1.8287999999999998"></use>
                    <use href="#fuel" x="0.30479999999999996" y="1.9811999999999999"></use>
                    <use href="#fuel" x="0.30479999999999996" y="2.1335999999999995"></use>
                    <use href="#fuel" x="0.45719999999999994" y="0"></use>
                    <use href="#fuel" x="0.45719999999999994" y="0.15239999999999998"></use>
                    <use href="#fuel" x="0.45719999999999994" y="0.30479999999999996"></use>
                    <use href="#fuel" x="0.45719999999999994" y="0.45719999999999994"></use>
                    <use href="#fuel" x="0.45719999999999994" y="0.6095999999999999"></use>
                    <use href="#fuel" x="0.45719999999999994" y="0.7619999999999999"></use>
                    <use href="#fuel" x="0.45719999999999994" y="0.9143999999999999"></use>
                    <use href="#fuel" x="0.45719999999999994" y="1.0667999999999997"></use>
                    <use href="#fuel" x="0.45719999999999994" y="1.2191999999999998"></use>
                    <use href="#fuel" x="0.45719999999999994" y="1.3716"></use>
                    <use href="#fuel" x="0.45719999999999994" y="1.5239999999999998"></use>
                    <use href="#fuel" x="0.45719999999999994" y="1.6763999999999997"></use>
                    <use href="#fuel" x="0.45719999999999994" y="1.8287999999999998"></use>
                    <use href="#fuel" x="0.45719999999999994" y="1.9811999999999999"></use>
                    <use href="#fuel" x="0.45719999999999994" y="2.1335999999999995"></use>
                    <use href="#fuel" x="0.6095999999999999" y="0"></use>
                    <use href="#fuel" x="0.6095999999999999" y="0.15239999999999998"></use>
                    <use href="#fuel" x="0.6095999999999999" y="0.30479999999999996"></use>
                    <use href="#fuel" x="0.6095999999999999" y="0.45719999999999994"></use>
                    <use href="#fuel" x="0.6095999999999999" y="0.6095999999999999"></use>
                    <use href="#fuel" x="0.6095999999999999" y="0.7619999999999999"></use>
                    <use href="#fuel" x="0.6095999999999999" y="0.9143999999999999"></use>
                    <use href="#fuel" x="0.6095999999999999" y="1.0667999999999997"></use>
                    <use href="#fuel" x="0.6095999999999999" y="1.2191999999999998"></use>
                    <use href="#fuel" x="0.6095999999999999" y="1.3716"></use>
                    <use href="#fuel" x="0.6095999999999999" y="1.5239999999999998"></use>
                    <use href="#fuel" x="0.6095999999999999" y="1.6763999999999997"></use>
                    <use href="#fuel" x="0.6095999999999999" y="1.8287999999999998"></use>
                    <use href="#fuel" x="0.6095999999999999" y="1.9811999999999999"></use>
                    <use href="#fuel" x="0.6095999999999999" y="2.1335999999999995"></use>
                    <use href="#fuel" x="0.7619999999999999" y="0"></use>
                    <use href="#fuel" x="0.7619999999999999" y="0.15239999999999998"></use>
                    <use href="#fuel" x="0.7619999999999999" y="0.30479999999999996"></use>
                    <use href="#fuel" x="0.7619999999999999" y="0.45719999999999994"></use>
                    <use href="#fuel" x="0.7619999999999999" y="0.6095999999999999"></use>
                    <use href="#fuel" x="0.7619999999999999" y="0.7619999999999999"></use>
                    <use href="#fuel" x="0.7619999999999999" y="0.9143999999999999"></use>
                    <use href="#fuel" x="0.7619999999999999" y="1.0667999999999997"></use>
                    <use href="#fuel" x="0.7619999999999999" y="1.2191999999999998"></use>
                    <use href="#fuel" x="0.7619999999999999" y="1.3716"></use>
                    <use href="#fuel" x="0.7619999999999999" y="1.5239999999999998"></use>
                    <use href="#fuel" x="0.7619999999999999" y="1.6763999999999997"></use>
                    <use href="#fuel" x="0.7619999999999999" y="1.8287999999999998"></use>
                    <use href="#fuel" x="0.7619999999999999" y="1.9811999999999999"></use>
                    <use href="#fuel" x="0.7619999999999999" y="2.1335999999999995"></use>
                    <use href="#fuel" x="0.9143999999999999" y="0"></use>
                    <use href="#fuel" x="0.9143999999999999" y="0.15239999999999998"></use>
                    <use href="#fuel" x="0.9143999999999999" y="0.30479999999999996"></use>
                    <use href="#fuel" x="0.9143999999999999" y="0.45719999999999994"></use>
                    <use href="#fuel" x="0.9143999999999999" y="0.6095999999999999"></use>
                    <use href="#fuel" x="0.9143999999999999" y="0.7619999999999999"></use>
                    <use href="#fuel" x="0.9143999999999999" y="0.9143999999999999"></use>
                    <use href="#fuel" x="0.9143999999999999" y="1.0667999999999997"></use>
                    <use href="#fuel" x="0.9143999999999999" y="1.2191999999999998"></use>
                    <use href="#fuel" x="0.9143999999999999" y="1.3716"></use>
                    <use href="#fuel" x="0.9143999999999999" y="1.5239999999999998"></use>
                    <use href="#fuel" x="0.9143999999999999" y="1.6763999999999997"></use>
                    <use href="#fuel" x="0.9143999999999999" y="1.8287999999999998"></use>
                    <use href="#fuel" x="0.9143999999999999" y="1.9811999999999999"></use>
                    <use href="#fuel" x="0.9143999999999999" y="2.1335999999999995"></use>
                    <use href="#fuel" x="1.0667999999999997" y="0"></use>
                    <use href="#fuel" x="1.0667999999999997" y="0.15239999999999998"></use>
                    <use href="#fuel" x="1.0667999999999997" y="0.30479999999999996"></use>
                    <use href="#fuel" x="1.0667999999999997" y="0.45719999999999994"></use>
                    <use href="#fuel" x="1.0667999999999997" y="0.6095999999999999"></use>
                    <use href="#fuel" x="1.0667999999999997" y="0.7619999999999999"></use>
                    <use href="#fuel" x="1.0667999999999997" y="0.9143999999999999"></use>
                    <use href="#fuel" x="1.0667999999999997" y="1.0667999999999997"></use>
                    <use href="#fuel" x="1.0667999999999997" y="1.2191999999999998"></use>
                    <use href="#fuel" x="1.0667999999999997" y="1.3716"></use>
                    <use href="#fuel" x="1.0667999999999997" y="1.5239999999999998"></use>
                    <use href="#fuel" x="1.0667999999999997" y="1.6763999999999997"></use>
                    <use href="#fuel" x="1.0667999999999997" y="1.8287999999999998"></use>
                    <use href="#fuel" x="1.0667999999999997" y="1.9811999999999999"></use>
                    <use href="#fuel" x="1.0667999999999997" y="2.1335999999999995"></use>
                    <use href="#fuel" x="1.2191999999999998" y="0"></use>
                    <use href="#fuel" x="1.2191999999999998" y="0.15239999999999998"></use>
                    <use href="#fuel" x="1.2191999999999998" y="0.30479999999999996"></use>
                    <use href="#fuel" x="1.2191999999999998" y="0.45719999999999994"></use>
                    <use href="#fuel" x="1.2191999999999998" y="0.6095999999999999"></use>
                    <use href="#fuel" x="1.2191999999999998" y="0.7619999999999999"></use>
                    <use href="#fuel" x="1.2191999999999998" y="0.9143999999999999"></use>
                    <use href="#fuel" x="1.2191999999999998" y="1.0667999999999997"></use>
                    <use href="#fuel" x="1.2191999999999998" y="1.2191999999999998"></use>
                    <use href="#fuel" x="1.2191999999999998" y="1.3716"></use>
                    <use href="#fuel" x="1.2191999999999998" y="1.5239999999999998"></use>
                    <use href="#fuel" x="1.2191999999999998" y="1.6763999999999997"></use>
                    <use href="#fuel" x="1.2191999999999998" y="1.8287999999999998"></use>
                    <use href="#fuel" x="1.2191999999999998" y="1.9811999999999999"></use>
                    <use href="#fuel" x="1.2191999999999998" y="2.1335999999999995"></use>
                    <use href="#fuel" x="1.3716" y="0"></use>
                    <use href="#fuel" x="1.3716" y="0.15239999999999998"></use>
                    <use href="#fuel" x="1.3716" y="0.30479999999999996"></use>
                    <use href="#fuel" x="1.3716" y="0.45719999999999994"></use>
                    <use href="#fuel" x="1.3716" y="0.6095999999999999"></use>
                    <use href="#fuel" x="1.3716" y="0.7619999999999999"></use>
                    <use href="#fuel" x="1.3716" y="0.9143999999999999"></use>
                    <use href="#fuel" x="1.3716" y="1.0667999999999997"></use>
                    <use href="#fuel" x="1.3716" y="1.2191999999999998"></use>
                    <use href="#fuel" x="1.3716" y="1.3716"></use>
                    <use href="#fuel" x="1.3716" y="1.5239999999999998"></use>
                    <use href="#fuel" x="1.3716" y="1.6763999999999997"></use>
                    <use href="#fuel" x="1.3716" y="1.8287999999999998"></use>
                    <use href="#fuel" x="1.3716" y="1.9811999999999999"></use>
                    <use href="#fuel" x="1.3716" y="2.1335999999999995"></use>
                    <use href="#fuel" x="1.5239999999999998" y="0"></use>
                    <use href="#fuel" x="1.5239999999999998" y="0.15239999999999998"></use>
                    <use href="#fuel" x="1.5239999999999998" y="0.30479999999999996"></use>
                    <use href="#fuel" x="1.5239999999999998" y="0.45719999999999994"></use>
                    <use href="#fuel" x="1.5239999999999998" y="0.6095999999999999"></use>
                    <use href="#fuel" x="1.5239999999999998" y="0.7619999999999999"></use>
                    <use href="#fuel" x="1.5239999999999998" y="0.9143999999999999"></use>
                    <use href="#fuel" x="1.5239999999999998" y="1.0667999999999997"></use>
                    <use href="#fuel" x="1.5239999999999998" y="1.2191999999999998"></use>
                    <use href="#fuel" x="1.5239999999999998" y="1.3716"></use>
                    <use href="#fuel" x="1.5239999999999998" y="1.5239999999999998"></use>
                    <use href="#fuel" x="1.5239999999999998" y="1.6763999999999997"></use>
                    <use href="#fuel" x="1.5239999999999998" y="1.8287999999999998"></use>
                    <use href="#fuel" x="1.5239999999999998" y="1.9811999999999999"></use>
                    <use href="#fuel" x="1.5239999999999998" y="2.1335999999999995"></use>
                    <use href="#fuel" x="1.6763999999999997" y="0"></use>
                    <use href="#fuel" x="1.6763999999999997" y="0.15239999999999998"></use>
                    <use href="#fuel" x="1.6763999999999997" y="0.30479999999999996"></use>
                    <use href="#fuel" x="1.6763999999999997" y="0.45719999999999994"></use>
                    <use href="#fuel" x="1.6763999999999997" y="0.6095999999999999"></use>
                    <use href="#fuel" x="1.6763999999999997" y="0.7619999999999999"></use>
                    <use href="#fuel" x="1.6763999999999997" y="0.9143999999999999"></use>
                    <use href="#fuel" x="1.6763999999999997" y="1.0667999999999997"></use>
                    <use href="#fuel" x="1.6763999999999997" y="1.2191999999999998"></use>
                    <use href="#fuel" x="1.6763999999999997" y="1.3716"></use>
                    <use href="#fuel" x="1.6763999999999997" y="1.5239999999999998"></use>
                    <use href="#fuel" x="1.6763999999999997" y="1.6763999999999997"></use>
                    <use href="#fuel" x="1.6763999999999997" y="1.8287999999999998"></use>
                    <use href="#fuel" x="1.6763999999999997" y="1.9811999999999999"></use>
                    <use href="#fuel" x="1.6763999999999997" y="2.1335999999999995"></use>
                </g>
                <line x1="4.003326" x2="4.003326" y1="0" y2="8.0692" stroke="currentColor"
                    stroke-width="0.0508"></line>
                <g>
                    <rect x="0" y="5.431631" width="0.609" height="0.0762" fill="currentColor"></rect>
                    <rect x="0" y="6.422231" width="0.609" height="0.0762" fill="currentColor"></rect>
                    <rect x="0.609" y="5.431631" width="0.0762" height="1.0668"
                        fill="currentColor"></rect>
                    <g transform="translate(0 5.507831)">
                        <use href="#fuel" x="0" y="0"></use>
                        <use href="#fuel" x="0" y="0.15239999999999998"></use>
                        <use href="#fuel" x="0" y="0.30479999999999996"></use>
                        <use href="#fuel" x="0" y="0.45719999999999994"></use>
                        <use href="#fuel" x="0" y="0.6095999999999999"></use>
                        <use href="#fuel" x="0" y="0.7619999999999999"></use>
                        <use href="#fuel" x="0.15239999999999998" y="0"></use>
                        <use href="#fuel" x="0.15239999999999998" y="0.15239999999999998"></use>
                        <use href="#fuel" x="0.15239999999999998" y="0.30479999999999996"></use>
                        <use href="#fuel" x="0.15239999999999998" y="0.45719999999999994"></use>
                        <use href="#fuel" x="0.15239999999999998" y="0.6095999999999999"></use>
                        <use href="#fuel" x="0.15239999999999998" y="0.7619999999999999"></use>
                        <use href="#fuel" x="0.30479999999999996" y="0"></use>
                        <use href="#fuel" x="0.30479999999999996" y="0.15239999999999998"></use>
                        <use href="#fuel" x="0.30479999999999996" y="0.30479999999999996"></use>
                        <use href="#fuel" x="0.30479999999999996" y="0.45719999999999994"></use>
                        <use href="#fuel" x="0.30479999999999996" y="0.6095999999999999"></use>
                        <use href="#fuel" x="0.30479999999999996" y="0.7619999999999999"></use>
                        <use href="#fuel" x="0.45719999999999994" y="0"></use>
                        <use href="#fuel" x="0.45719999999999994" y="0.15239999999999998"></use>
                        <use href="#fuel" x="0.45719999999999994" y="0.30479999999999996"></use>
                        <use href="#fuel" x="0.45719999999999994" y="0.45719999999999994"></use>
                        <use href="#fuel" x="0.45719999999999994" y="0.6095999999999999"></use>
                        <use href="#fuel" x="0.45719999999999994" y="0.7619999999999999"></use>
                    </g>
                </g>
                <g transform="translate(8.2705 4.0346)">
                    <use href="#blueRampTrench"></use>
                    <g transform="scale(1 -1)">
                        <use href="#blueRampTrench"></use>
                    </g>
                    <rect x="-4.24215" y="-0.5969" width="1.1945589999999995" height="1.1938"
                        fill="currentColor" filter="url(#dark)"></rect>
                    <polygon
                        points="-3.033074,0 -3.340112,-0.527908 -3.949688,-0.527908 -4.254476,0 -3.949688,0.527908 -3.340112,0.527908"
                        stroke="gray" fill="transparent" stroke-width="0.0254"></polygon>
                    <circle r="0.2" stroke="gray" stroke-width="0.02" fill="transparent"
                        cx="-3.645694" cy="0"></circle>
                    <circle r="0.1" stroke="gray" stroke-width="0.02" fill="transparent"
                        cx="-3.645694" cy="0"></circle>
                    <rect x="-8.271493" y="-0.784225" width="1.1455549999999999"
                        height="0.9905999999999999" fill="black"></rect>
                    <line x1="-7.208488" y1="-0.885825" x2="-7.208488" y2="0.307975"
                        stroke="currentColor" stroke-width="0.042164"></line>
                    <rect x="-7.252938" y="0.12065000000000001" height="0.0381" width="0.0889"
                        fill="currentColor"></rect>
                    <rect x="-7.252938" y="-0.7366" height="0.0381" width="0.0889"
                        fill="currentColor"></rect>
                </g>
                <line x1="0" y1="0.259556" x2="-0.2" y2="0.259556" stroke="white"
                    stroke-width="0.0254"></line>
                <line x1="0" y1="1.072356" x2="-0.2" y2="1.072356" stroke="white"
                    stroke-width="0.0254"></line>
                <g transform="translate(-0.15239999999999998 0.285)">
                    <use href="#fuel" x="0" y="0"></use>
                    <use href="#fuel" x="0" y="0.15239999999999998"></use>
                    <use href="#fuel" x="0" y="0.30479999999999996"></use>
                    <use href="#fuel" x="0" y="0.45719999999999994"></use>
                    <use href="#fuel" x="0" y="0.6095999999999999"></use>
                </g>
            </g>
        </defs>
        <g id="tape">
            <line id="centerline" x1="8.2705" x2="8.2705" y1="0" y2="8.0692" stroke="white"
                stroke-width="0.0508"></line>
            <line id="midline" x1="0" x2="16.541" y1="4.0346" y2="4.0346" stroke="black"
                stroke-width="0.1016"></line>
        </g>
        <use x="0" y="0" width="16.541" height="8.0692" href="#blueSide" color="#1c1c99ff"></use>
        <g id="redSide" transform="translate(16.541 8.0692) rotate(180)">
            <use x="0" y="0" width="16.541" height="8.0692" href="#blueSide" color="#9e2323ff"></use>
        </g>
        <rect id="wall" x="-0.0254" y="-0.0254" width="16.5918" height="8.120000000000001"
            stroke="white" stroke-width="0.0508" fill="transparent"></rect>

    </g>
  <g transform="scale(1 -1) translate(0 -8.0692)">
    <line x1="1.6358" y1="5.8475" x2="1.6358" y2="5.8475" stroke="hsl(0.12, 100%, 50%)" stroke-width="0.05"/>
    <line x1="1.6358" y1="5.8475" x2="1.6389" y2="5.8353" stroke="hsl(146.93, 100%, 50%)" stroke-width="0.05"/>
    <line x1="1.6389" y1="5.8353" x2="1.6460" y2="5.8063" stroke="hsl(53.20, 100%, 50%)" stroke-width="0.05"/>
    <line x1="1.6460" y1="5.8063" x2="1.6555" y2="5.7685" stroke="hsl(53.19, 100%, 50%)" stroke-width="0.05"/>
    <line x1="1.6555" y1="5.7685" x2="1.6672" y2="5.7219" stroke="hsl(53.19, 100%, 50%)" stroke-width="0.05"/>
    <line x1="1.6672" y1="5.7219" x2="1.6814" y2="5.6664" stroke="hsl(53.18, 100%, 50%)" stroke-width="0.05"/>
    <line x1="1.6814" y1="5.6664" x2="1.6979" y2="5.6021" stroke="hsl(53.17, 100%, 50%)" stroke-width="0.05"/>
    <line x1="1.6979" y1="5.6021" x2="1.7169" y2="5.5290" stroke="hsl(53.16, 100%, 50%)" stroke-width="0.05"/>
    <line x1="1.7169" y1="5.5290" x2="1.7385" y2="5.4471" stroke="hsl(53.14, 100%, 50%)" stroke-width="0.05"/>
    <line x1="1.7385" y1="5.4471" x2="1.7628" y2="5.3565" stroke="hsl(53.12, 100%, 50%)" stroke-width="0.05"/>
    <line x1="1.7628" y1="5.3565" x2="1.7897" y2="5.2572" stroke="hsl(53.09, 100%, 50%)" stroke-width="0.05"/>
    <line x1="1.7897" y1="5.2572" x2="1.8196" y2="5.1492" stroke="hsl(53.04, 100%, 50%)" stroke-width="0.05"/>
    <line x1="1.8196" y1="5.1492" x2="1.8525" y2="5.0326" stroke="hsl(52.98, 100%, 50%)" stroke-width="0.05"/>
    <line x1="1.8525" y1="5.0326" x2="1.8886" y2="4.9075" stroke="hsl(52.89, 100%, 50%)" stroke-width="0.05"/>
    <line x1="1.8886" y1="4.9075" x2="1.9280" y2="4.7739" stroke="hsl(52.76, 100%, 50%)" stroke-width="0.05"/>
    <line x1="1.9280" y1="4.7739" x2="1.9711" y2="4.6321" stroke="hsl(52.54, 100%, 50%)" stroke-width="0.05"/>
    <line x1="1.9711" y1="4.6321" x2="2.0182" y2="4.4822" stroke="hsl(52.18, 100%, 50%)" stroke-width="0.05"/>
    <line x1="2.0182" y1="4.4822" x2="2.0697" y2="4.3245" stroke="hsl(51.54, 100%, 50%)" stroke-width="0.05"/>
    <line x1="2.0697" y1="4.3245" x2="2.1260" y2="4.1596" stroke="hsl(50.32, 100%, 50%)" stroke-width="0.05"/>
    <line x1="2.1260" y1="4.1596" x2="2.1878" y2="3.9882" stroke="hsl(47.99, 100%, 50%)" stroke-width="0.05"/>
    <line x1="2.1878" y1="3.9882" x2="2.2546" y2="3.8116" stroke="hsl(36.28, 100%, 50%)" stroke-width="0.05"/>
    <line x1="2.2546" y1="3.8116" x2="2.3305" y2="3.6414" stroke="hsl(127.00, 100%, 50%)" stroke-width="0.05"/>
    <line x1="2.3305" y1="3.6414" x2="2.4201" y2="3.4895" stroke="hsl(140.47, 100%, 50%)" stroke-width="0.05"/>
    <line x1="2.4201" y1="3.4895" x2="2.5230" y2="3.3584" stroke="hsl(145.72, 100%, 50%)" stroke-width="0.05"/>
    <line x1="2.5230" y1="3.3584" x2="2.6367" y2="3.2498" stroke="hsl(146.07, 100%, 50%)" stroke-width="0.05"/>
    <line x1="2.6367" y1="3.2498" x2="2.7579" y2="3.1651" stroke="hsl(146.27, 100%, 50%)" stroke-width="0.05"/>
    <line x1="2.7579" y1="3.1651" x2="2.8828" y2="3.1053" stroke="hsl(146.40, 100%, 50%)" stroke-width="0.05"/>
    <line x1="2.8828" y1="3.1053" x2="3.0073" y2="3.0705" stroke="hsl(146.49, 100%, 50%)" stroke-width="0.05"/>
    <line x1="3.0073" y1="3.0705" x2="3.1330" y2="3.0605" stroke="hsl(146.52, 100%, 50%)" stroke-width="0.05"/>
    <line x1="3.1330" y1="3.0605" x2="3.2483" y2="3.0762" stroke="hsl(146.46, 100%, 50%)" stroke-width="0.05"/>
    <line x1="3.2483" y1="3.0762" x2="3.3481" y2="3.1147" stroke="hsl(146.41, 100%, 50%)" stroke-width="0.05"/>
    <line x1="3.3481" y1="3.1147" x2="3.4419" y2="3.1674" stroke="hsl(49.56, 100%, 50%)" stroke-width="0.05"/>
    <line x1="3.4419" y1="3.1674" x2="3.5415" y2="3.2275" stroke="hsl(49.99, 100%, 50%)" stroke-width="0.05"/>
    <line x1="3.5415" y1="3.2275" x2="3.6470" y2="3.2950" stroke="hsl(50.32, 100%, 50%)" stroke-width="0.05"/>
    <line x1="3.6470" y1="3.2950" x2="3.7585" y2="3.3701" stroke="hsl(50.58, 100%, 50%)" stroke-width="0.05"/>
    <line x1="3.7585" y1="3.3701" x2="3.8758" y2="3.4528" stroke="hsl(50.76, 100%, 50%)" stroke-width="0.05"/>
    <line x1="3.8758" y1="3.4528" x2="3.9989" y2="3.5432" stroke="hsl(50.88, 100%, 50%)" stroke-width="0.05"/>
    <line x1="3.9989" y1="3.5432" x2="4.1278" y2="3.6413" stroke="hsl(50.93, 100%, 50%)" stroke-width="0.05"/>
    <line x1="4.1278" y1="3.6413" x2="4.2623" y2="3.7473" stroke="hsl(50.90, 100%, 50%)" stroke-width="0.05"/>
    <line x1="4.2623" y1="3.7473" x2="4.4023" y2="3.8612" stroke="hsl(50.71, 100%, 50%)" stroke-width="0.05"/>
    <line x1="4.4023" y1="3.8612" x2="4.5476" y2="3.9831" stroke="hsl(50.09, 100%, 50%)" stroke-width="0.05"/>
    <line x1="4.5476" y1="3.9831" x2="4.6974" y2="4.1121" stroke="hsl(39.52, 100%, 50%)" stroke-width="0.05"/>
    <line x1="4.6974" y1="4.1121" x2="4.8417" y2="4.2473" stroke="hsl(87.00, 100%, 50%)" stroke-width="0.05"/>
    <line x1="4.8417" y1="4.2473" x2="4.9666" y2="4.3887" stroke="hsl(127.63, 100%, 50%)" stroke-width="0.05"/>
    <line x1="4.9666" y1="4.3887" x2="5.0702" y2="4.5330" stroke="hsl(100.32, 100%, 50%)" stroke-width="0.05"/>
    <line x1="5.0702" y1="4.5330" x2="5.1588" y2="4.6734" stroke="hsl(70.60, 100%, 50%)" stroke-width="0.05"/>
    <line x1="5.1588" y1="4.6734" x2="5.2375" y2="4.8055" stroke="hsl(65.82, 100%, 50%)" stroke-width="0.05"/>
    <line x1="5.2375" y1="4.8055" x2="5.3085" y2="4.9279" stroke="hsl(65.02, 100%, 50%)" stroke-width="0.05"/>
    <line x1="5.3085" y1="4.9279" x2="5.3726" y2="5.0401" stroke="hsl(64.87, 100%, 50%)" stroke-width="0.05"/>
    <line x1="5.3726" y1="5.0401" x2="5.4303" y2="5.1419" stroke="hsl(64.85, 100%, 50%)" stroke-width="0.05"/>
    <line x1="5.4303" y1="5.1419" x2="5.4816" y2="5.2331" stroke="hsl(64.85, 100%, 50%)" stroke-width="0.05"/>
    <line x1="5.4816" y1="5.2331" x2="5.5268" y2="5.3136" stroke="hsl(64.87, 100%, 50%)" stroke-width="0.05"/>
    <line x1="5.5268" y1="5.3136" x2="5.5659" y2="5.3835" stroke="hsl(64.88, 100%, 50%)" stroke-width="0.05"/>
    <line x1="5.5659" y1="5.3835" x2="5.5989" y2="5.4426" stroke="hsl(64.89, 100%, 50%)" stroke-width="0.05"/>
    <line x1="5.5989" y1="5.4426" x2="5.6259" y2="5.4910" stroke="hsl(64.90, 100%, 50%)" stroke-width="0.05"/>
    <line x1="5.6259" y1="5.4910" x2="5.6469" y2="5.5286" stroke="hsl(64.90, 100%, 50%)" stroke-width="0.05"/>
    <line x1="5.6469" y1="5.5286" x2="5.6619" y2="5.5555" stroke="hsl(64.91, 100%, 50%)" stroke-width="0.05"/>
    <line x1="5.6619" y1="5.5555" x2="5.6709" y2="5.5716" stroke="hsl(64.91, 100%, 50%)" stroke-width="0.05"/>
    <line x1="5.6709" y1="5.5716" x2="5.6739" y2="5.5770" stroke="hsl(64.92, 100%, 50%)" stroke-width="0.05"/>
    <polygon points="2.0422,6.2539 2.0422,5.4411 1.2294,5.4411 1.2294,6.2539" fill="rgba(0,0,0,0.12)" stroke="#000000" stroke-width="0.04"/><circle cx="1.6358" cy="5.8475" r="0.03" fill="#ffffff" stroke="#000000" stroke-width="0.015"/><polygon points="2.1297,5.8475 2.0547,5.8825 2.0547,5.8125" fill="#ffffff" stroke="#000000" stroke-width="0.02"/>
    <polygon points="3.4137,3.4769 3.4137,2.6641 2.6009,2.6641 2.6009,3.4769" fill="rgba(0,0,0,0.12)" stroke="#000000" stroke-width="0.04"/><circle cx="3.0073" cy="3.0705" r="0.03" fill="#ffffff" stroke="#000000" stroke-width="0.015"/><polygon points="3.5012,3.0705 3.4262,3.1055 3.4262,3.0355" fill="#ffffff" stroke="#000000" stroke-width="0.02"/>
    <polygon points="6.0803,5.9834 6.0803,5.1706 5.2675,5.1706 5.2675,5.9834" fill="rgba(0,0,0,0.12)" stroke="#000000" stroke-width="0.04"/><circle cx="5.6739" cy="5.5770" r="0.03" fill="#ffffff" stroke="#000000" stroke-width="0.015"/><polygon points="6.1678,5.5770 6.0928,5.6120 6.0928,5.5420" fill="#ffffff" stroke="#000000" stroke-width="0.02"/>
  </g>
  <text x="-0.4" y="-0.15" font-size="0.32" font-family="monospace" fill="white" stroke="black" stroke-width="0.02" paint-order="stroke fill">PR  swerve-weak-medium-dt · small_curve</text>
</svg>
