<svg xmlns="http://www.w3.org/2000/svg" viewBox="-0.5 -0.5 17.541 9.0692" width="2631" height="1360">
  <g id="field" transform="scale(1 -1) translate(0 -8.0692)">
        <defs>
            <filter id="dark">
                <feComponentTransfer>
                    <feFuncR type="linear" slope="0.5"></feFuncR>
                    <feFuncG type="linear" slope="0.5"></feFuncG>
                    <feFuncB type="linear" slope="0.5"></feFuncB>
                </feComponentTransfer>
            </filter>
            <circle id="fuel" cx="0.07619999999999999" cy="0.07619999999999999"
                r="0.07505699999999998" fill="#B1902F"></circle>
            <g id="blueRampTrench">
                <rect height="0.3055620000000001" width="1.193852" x="-4.2426200000000005"
                    y="2.450338" fill="currentColor" filter="url(#dark)"></rect>
                <rect x="-4.208718" y="0.5940749999999999" width="0.563024" height="1.856263"
                    fill="currentColor"></rect>
                <rect x="-3.645694" y="0.5940749999999999" width="0.563024" height="1.856263"
                    fill="currentColor"></rect>
                <line x1="-3.645694" y1="0.5940749999999999" x2="-3.645694" y2="2.450338"
                    stroke="black" stroke-width="0.01"></line>
                <line x1="-3.645694" y1="2.7559" x2="-3.645694" y2="4.0346"
                    stroke="currentColor" stroke-width="0.1524"></line>
            </g>
            <g id="blueSide">
                <g transform="translate(7.3561000000000005 4.0600000000000005)">
                    <use href="#fuel" x="0" y="0"></use>
                    <use href="#fuel" x="0" y="0.15239999999999998"></use>
                    <use href="#fuel" x="0" y="0.30479999999999996"></use>
                    <use href="#fuel" x="0" y="0.45719999999999994"></use>
                    <use href="#fuel" x="0" y="0.6095999999999999"></use>
                    <use href="#fuel" x="0" y="0.7619999999999999"></use>
                    <use href="#fuel" x="0" y="0.9143999999999999"></use>
                    <use href="#fuel" x="0" y="1.0667999999999997"></use>
                    <use href="#fuel" x="0" y="1.2191999999999998"></use>
                    <use href="#fuel" x="0" y="1.3716"></use>
                    <use href="#fuel" x="0" y="1.5239999999999998"></use>
                    <use href="#fuel" x="0" y="1.6763999999999997"></use>
                    <use href="#fuel" x="0" y="1.8287999999999998"></use>
                    <use href="#fuel" x="0" y="1.9811999999999999"></use>
                    <use href="#fuel" x="0" y="2.1335999999999995"></use>
                    <use href="#fuel" x="0.15239999999999998" y="0"></use>
                    <use href="#fuel" x="0.15239999999999998" y="0.15239999999999998"></use>
                    <use href="#fuel" x="0.15239999999999998" y="0.30479999999999996"></use>
                    <use href="#fuel" x="0.15239999999999998" y="0.45719999999999994"></use>
                    <use href="#fuel" x="0.15239999999999998" y="0.6095999999999999"></use>
                    <use href="#fuel" x="0.15239999999999998" y="0.7619999999999999"></use>
                    <use href="#fuel" x="0.15239999999999998" y="0.9143999999999999"></use>
                    <use href="#fuel" x="0.15239999999999998" y="1.0667999999999997"></use>
                    <use href="#fuel" x="0.15239999999999998" y="1.2191999999999998"></use>
                    <use href="#fuel" x="0.15239999999999998" y="1.3716"></use>
                    <use href="#fuel" x="0.15239999999999998" y="1.5239999999999998"></use>
                    <use href="#fuel" x="0.15239999999999998" y="1.6763999999999997"></use>
                    <use href="#fuel" x="0.15239999999999998" y="1.8287999999999998"></use>
                    <use href="#fuel" x="0.15239999999999998" y="1.9811999999999999"></use>
                    <use href="#fuel" x="0.15239999999999998" y="2.1335999999999995"></use>
                    <use href="#fuel" x="0.30479999999999996" y="0"></use>
                    <use href="#fuel" x="0.30479999999999996" y="0.15239999999999998"></use>
                    <use href="#fuel" x="0.30479999999999996" y="0.30479999999999996"></use>
                    <use href="#fuel" x="0.30479999999999996" y="0.45719999999999994"></use>
                    <use href="#fuel" x="0.30479999999999996" y="0.6095999999999999"></use>
                    <use href="#fuel" x="0.30479999999999996" y="0.7619999999999999"></use>
                    <use href="#fuel" x="0.30479999999999996" y="0.9143999999999999"></use>
                    <use href="#fuel" x="0.30479999999999996" y="1.0667999999999997"></use>
                    <use href="#fuel" x="0.30479999999999996" y="1.2191999999999998"></use>
                    <use href="#fuel" x="0.30479999999999996" y="1.3716"></use>
                    <use href="#fuel" x="0.30479999999999996" y="1.5239999999999998"></use>
                    <use href="#fuel" x="0.30479999999999996" y="1.6763999999999997"></use>
                    <use href="#fuel" x="0.30479999999999996" y="1.8287999999999998"></use>
                    <use href="#fuel" x="0.30479999999999996" y="1.9811999999999999"></use>
                    <use href="#fuel" x="0.30479999999999996" y="2.1335999999999995"></use>
                    <use href="#fuel" x="0.45719999999999994" y="0"></use>
                    <use href="#fuel" x="0.45719999999999994" y="0.15239999999999998"></use>
                    <use href="#fuel" x="0.45719999999999994" y="0.30479999999999996"></use>
                    <use href="#fuel" x="0.45719999999999994" y="0.45719999999999994"></use>
                    <use href="#fuel" x="0.45719999999999994" y="0.6095999999999999"></use>
                    <use href="#fuel" x="0.45719999999999994" y="0.7619999999999999"></use>
                    <use href="#fuel" x="0.45719999999999994" y="0.9143999999999999"></use>
                    <use href="#fuel" x="0.45719999999999994" y="1.0667999999999997"></use>
                    <use href="#fuel" x="0.45719999999999994" y="1.2191999999999998"></use>
                    <use href="#fuel" x="0.45719999999999994" y="1.3716"></use>
                    <use href="#fuel" x="0.45719999999999994" y="1.5239999999999998"></use>
                    <use href="#fuel" x="0.45719999999999994" y="1.6763999999999997"></use>
                    <use href="#fuel" x="0.45719999999999994" y="1.8287999999999998"></use>
                    <use href="#fuel" x="0.45719999999999994" y="1.9811999999999999"></use>
                    <use href="#fuel" x="0.45719999999999994" y="2.1335999999999995"></use>
                    <use href="#fuel" x="0.6095999999999999" y="0"></use>
                    <use href="#fuel" x="0.6095999999999999" y="0.15239999999999998"></use>
                    <use href="#fuel" x="0.6095999999999999" y="0.30479999999999996"></use>
                    <use href="#fuel" x="0.6095999999999999" y="0.45719999999999994"></use>
                    <use href="#fuel" x="0.6095999999999999" y="0.6095999999999999"></use>
                    <use href="#fuel" x="0.6095999999999999" y="0.7619999999999999"></use>
                    <use href="#fuel" x="0.6095999999999999" y="0.9143999999999999"></use>
                    <use href="#fuel" x="0.6095999999999999" y="1.0667999999999997"></use>
                    <use href="#fuel" x="0.6095999999999999" y="1.2191999999999998"></use>
                    <use href="#fuel" x="0.6095999999999999" y="1.3716"></use>
                    <use href="#fuel" x="0.6095999999999999" y="1.5239999999999998"></use>
                    <use href="#fuel" x="0.6095999999999999" y="1.6763999999999997"></use>
                    <use href="#fuel" x="0.6095999999999999" y="1.8287999999999998"></use>
                    <use href="#fuel" x="0.6095999999999999" y="1.9811999999999999"></use>
                    <use href="#fuel" x="0.6095999999999999" y="2.1335999999999995"></use>
                    <use href="#fuel" x="0.7619999999999999" y="0"></use>
                    <use href="#fuel" x="0.7619999999999999" y="0.15239999999999998"></use>
                    <use href="#fuel" x="0.7619999999999999" y="0.30479999999999996"></use>
                    <use href="#fuel" x="0.7619999999999999" y="0.45719999999999994"></use>
                    <use href="#fuel" x="0.7619999999999999" y="0.6095999999999999"></use>
                    <use href="#fuel" x="0.7619999999999999" y="0.7619999999999999"></use>
                    <use href="#fuel" x="0.7619999999999999" y="0.9143999999999999"></use>
                    <use href="#fuel" x="0.7619999999999999" y="1.0667999999999997"></use>
                    <use href="#fuel" x="0.7619999999999999" y="1.2191999999999998"></use>
                    <use href="#fuel" x="0.7619999999999999" y="1.3716"></use>
                    <use href="#fuel" x="0.7619999999999999" y="1.5239999999999998"></use>
                    <use href="#fuel" x="0.7619999999999999" y="1.6763999999999997"></use>
                    <use href="#fuel" x="0.7619999999999999" y="1.8287999999999998"></use>
                    <use href="#fuel" x="0.7619999999999999" y="1.9811999999999999"></use>
                    <use href="#fuel" x="0.7619999999999999" y="2.1335999999999995"></use>
                    <use href="#fuel" x="0.9143999999999999" y="0"></use>
                    <use href="#fuel" x="0.9143999999999999" y="0.15239999999999998"></use>
                    <use href="#fuel" x="0.9143999999999999" y="0.30479999999999996"></use>
                    <use href="#fuel" x="0.9143999999999999" y="0.45719999999999994"></use>
                    <use href="#fuel" x="0.9143999999999999" y="0.6095999999999999"></use>
                    <use href="#fuel" x="0.9143999999999999" y="0.7619999999999999"></use>
                    <use href="#fuel" x="0.9143999999999999" y="0.9143999999999999"></use>
                    <use href="#fuel" x="0.9143999999999999" y="1.0667999999999997"></use>
                    <use href="#fuel" x="0.9143999999999999" y="1.2191999999999998"></use>
                    <use href="#fuel" x="0.9143999999999999" y="1.3716"></use>
                    <use href="#fuel" x="0.9143999999999999" y="1.5239999999999998"></use>
                    <use href="#fuel" x="0.9143999999999999" y="1.6763999999999997"></use>
                    <use href="#fuel" x="0.9143999999999999" y="1.8287999999999998"></use>
                    <use href="#fuel" x="0.9143999999999999" y="1.9811999999999999"></use>
                    <use href="#fuel" x="0.9143999999999999" y="2.1335999999999995"></use>
                    <use href="#fuel" x="1.0667999999999997" y="0"></use>
                    <use href="#fuel" x="1.0667999999999997" y="0.15239999999999998"></use>
                    <use href="#fuel" x="1.0667999999999997" y="0.30479999999999996"></use>
                    <use href="#fuel" x="1.0667999999999997" y="0.45719999999999994"></use>
                    <use href="#fuel" x="1.0667999999999997" y="0.6095999999999999"></use>
                    <use href="#fuel" x="1.0667999999999997" y="0.7619999999999999"></use>
                    <use href="#fuel" x="1.0667999999999997" y="0.9143999999999999"></use>
                    <use href="#fuel" x="1.0667999999999997" y="1.0667999999999997"></use>
                    <use href="#fuel" x="1.0667999999999997" y="1.2191999999999998"></use>
                    <use href="#fuel" x="1.0667999999999997" y="1.3716"></use>
                    <use href="#fuel" x="1.0667999999999997" y="1.5239999999999998"></use>
                    <use href="#fuel" x="1.0667999999999997" y="1.6763999999999997"></use>
                    <use href="#fuel" x="1.0667999999999997" y="1.8287999999999998"></use>
                    <use href="#fuel" x="1.0667999999999997" y="1.9811999999999999"></use>
                    <use href="#fuel" x="1.0667999999999997" y="2.1335999999999995"></use>
                    <use href="#fuel" x="1.2191999999999998" y="0"></use>
                    <use href="#fuel" x="1.2191999999999998" y="0.15239999999999998"></use>
                    <use href="#fuel" x="1.2191999999999998" y="0.30479999999999996"></use>
                    <use href="#fuel" x="1.2191999999999998" y="0.45719999999999994"></use>
                    <use href="#fuel" x="1.2191999999999998" y="0.6095999999999999"></use>
                    <use href="#fuel" x="1.2191999999999998" y="0.7619999999999999"></use>
                    <use href="#fuel" x="1.2191999999999998" y="0.9143999999999999"></use>
                    <use href="#fuel" x="1.2191999999999998" y="1.0667999999999997"></use>
                    <use href="#fuel" x="1.2191999999999998" y="1.2191999999999998"></use>
                    <use href="#fuel" x="1.2191999999999998" y="1.3716"></use>
                    <use href="#fuel" x="1.2191999999999998" y="1.5239999999999998"></use>
                    <use href="#fuel" x="1.2191999999999998" y="1.6763999999999997"></use>
                    <use href="#fuel" x="1.2191999999999998" y="1.8287999999999998"></use>
                    <use href="#fuel" x="1.2191999999999998" y="1.9811999999999999"></use>
                    <use href="#fuel" x="1.2191999999999998" y="2.1335999999999995"></use>
                    <use href="#fuel" x="1.3716" y="0"></use>
                    <use href="#fuel" x="1.3716" y="0.15239999999999998"></use>
                    <use href="#fuel" x="1.3716" y="0.30479999999999996"></use>
                    <use href="#fuel" x="1.3716" y="0.45719999999999994"></use>
                    <use href="#fuel" x="1.3716" y="0.6095999999999999"></use>
                    <use href="#fuel" x="1.3716" y="0.7619999999999999"></use>
                    <use href="#fuel" x="1.3716" y="0.9143999999999999"></use>
                    <use href="#fuel" x="1.3716" y="1.0667999999999997"></use>
                    <use href="#fuel" x="1.3716" y="1.2191999999999998"></use>
                    <use href="#fuel" x="1.3716" y="1.3716"></use>
                    <use href="#fuel" x="1.3716" y="1.5239999999999998"></use>
                    <use href="#fuel" x="1.3716" y="1.6763999999999997"></use>
                    <use href="#fuel" x="1.3716" y="1.8287999999999998"></use>
                    <use href="#fuel" x="1.3716" y="1.9811999999999999"></use>
                    <use href="#fuel" x="1.3716" y="2.1335999999999995"></use>
                    <use href="#fuel" x="1.5239999999999998" y="0"></use>
                    <use href="#fuel" x="1.5239999999999998" y="0.15239999999999998"></use>
                    <use href="#fuel" x="1.5239999999999998" y="0.30479999999999996"></use>
                    <use href="#fuel" x="1.5239999999999998" y="0.45719999999999994"></use>
                    <use href="#fuel" x="1.5239999999999998" y="0.6095999999999999"></use>
                    <use href="#fuel" x="1.5239999999999998" y="0.7619999999999999"></use>
                    <use href="#fuel" x="1.5239999999999998" y="0.9143999999999999"></use>
                    <use href="#fuel" x="1.5239999999999998" y="1.0667999999999997"></use>
                    <use href="#fuel" x="1.5239999999999998" y="1.2191999999999998"></use>
                    <use href="#fuel" x="1.5239999999999998" y="1.3716"></use>
                    <use href="#fuel" x="1.5239999999999998" y="1.5239999999999998"></use>
                    <use href="#fuel" x="1.5239999999999998" y="1.6763999999999997"></use>
                    <use href="#fuel" x="1.5239999999999998" y="1.8287999999999998"></use>
                    <use href="#fuel" x="1.5239999999999998" y="1.9811999999999999"></use>
                    <use href="#fuel" x="1.5239999999999998" y="2.1335999999999995"></use>
                    <use href="#fuel" x="1.6763999999999997" y="0"></use>
                    <use href="#fuel" x="1.6763999999999997" y="0.15239999999999998"></use>
                    <use href="#fuel" x="1.6763999999999997" y="0.30479999999999996"></use>
                    <use href="#fuel" x="1.6763999999999997" y="0.45719999999999994"></use>
                    <use href="#fuel" x="1.6763999999999997" y="0.6095999999999999"></use>
                    <use href="#fuel" x="1.6763999999999997" y="0.7619999999999999"></use>
                    <use href="#fuel" x="1.6763999999999997" y="0.9143999999999999"></use>
                    <use href="#fuel" x="1.6763999999999997" y="1.0667999999999997"></use>
                    <use href="#fuel" x="1.6763999999999997" y="1.2191999999999998"></use>
                    <use href="#fuel" x="1.6763999999999997" y="1.3716"></use>
                    <use href="#fuel" x="1.6763999999999997" y="1.5239999999999998"></use>
                    <use href="#fuel" x="1.6763999999999997" y="1.6763999999999997"></use>
                    <use href="#fuel" x="1.6763999999999997" y="1.8287999999999998"></use>
                    <use href="#fuel" x="1.6763999999999997" y="1.9811999999999999"></use>
                    <use href="#fuel" x="1.6763999999999997" y="2.1335999999999995"></use>
                </g>
                <line x1="4.003326" x2="4.003326" y1="0" y2="8.0692" stroke="currentColor"
                    stroke-width="0.0508"></line>
                <g>
                    <rect x="0" y="5.431631" width="0.609" height="0.0762" fill="currentColor"></rect>
                    <rect x="0" y="6.422231" width="0.609" height="0.0762" fill="currentColor"></rect>
                    <rect x="0.609" y="5.431631" width="0.0762" height="1.0668"
                        fill="currentColor"></rect>
                    <g transform="translate(0 5.507831)">
                        <use href="#fuel" x="0" y="0"></use>
                        <use href="#fuel" x="0" y="0.15239999999999998"></use>
                        <use href="#fuel" x="0" y="0.30479999999999996"></use>
                        <use href="#fuel" x="0" y="0.45719999999999994"></use>
                        <use href="#fuel" x="0" y="0.6095999999999999"></use>
                        <use href="#fuel" x="0" y="0.7619999999999999"></use>
                        <use href="#fuel" x="0.15239999999999998" y="0"></use>
                        <use href="#fuel" x="0.15239999999999998" y="0.15239999999999998"></use>
                        <use href="#fuel" x="0.15239999999999998" y="0.30479999999999996"></use>
                        <use href="#fuel" x="0.15239999999999998" y="0.45719999999999994"></use>
                        <use href="#fuel" x="0.15239999999999998" y="0.6095999999999999"></use>
                        <use href="#fuel" x="0.15239999999999998" y="0.7619999999999999"></use>
                        <use href="#fuel" x="0.30479999999999996" y="0"></use>
                        <use href="#fuel" x="0.30479999999999996" y="0.15239999999999998"></use>
                        <use href="#fuel" x="0.30479999999999996" y="0.30479999999999996"></use>
                        <use href="#fuel" x="0.30479999999999996" y="0.45719999999999994"></use>
                        <use href="#fuel" x="0.30479999999999996" y="0.6095999999999999"></use>
                        <use href="#fuel" x="0.30479999999999996" y="0.7619999999999999"></use>
                        <use href="#fuel" x="0.45719999999999994" y="0"></use>
                        <use href="#fuel" x="0.45719999999999994" y="0.15239999999999998"></use>
                        <use href="#fuel" x="0.45719999999999994" y="0.30479999999999996"></use>
                        <use href="#fuel" x="0.45719999999999994" y="0.45719999999999994"></use>
                        <use href="#fuel" x="0.45719999999999994" y="0.6095999999999999"></use>
                        <use href="#fuel" x="0.45719999999999994" y="0.7619999999999999"></use>
                    </g>
                </g>
                <g transform="translate(8.2705 4.0346)">
                    <use href="#blueRampTrench"></use>
                    <g transform="scale(1 -1)">
                        <use href="#blueRampTrench"></use>
                    </g>
                    <rect x="-4.24215" y="-0.5969" width="1.1945589999999995" height="1.1938"
                        fill="currentColor" filter="url(#dark)"></rect>
                    <polygon
                        points="-3.033074,0 -3.340112,-0.527908 -3.949688,-0.527908 -4.254476,0 -3.949688,0.527908 -3.340112,0.527908"
                        stroke="gray" fill="transparent" stroke-width="0.0254"></polygon>
                    <circle r="0.2" stroke="gray" stroke-width="0.02" fill="transparent"
                        cx="-3.645694" cy="0"></circle>
                    <circle r="0.1" stroke="gray" stroke-width="0.02" fill="transparent"
                        cx="-3.645694" cy="0"></circle>
                    <rect x="-8.271493" y="-0.784225" width="1.1455549999999999"
                        height="0.9905999999999999" fill="black"></rect>
                    <line x1="-7.208488" y1="-0.885825" x2="-7.208488" y2="0.307975"
                        stroke="currentColor" stroke-width="0.042164"></line>
                    <rect x="-7.252938" y="0.12065000000000001" height="0.0381" width="0.0889"
                        fill="currentColor"></rect>
                    <rect x="-7.252938" y="-0.7366" height="0.0381" width="0.0889"
                        fill="currentColor"></rect>
                </g>
                <line x1="0" y1="0.259556" x2="-0.2" y2="0.259556" stroke="white"
                    stroke-width="0.0254"></line>
                <line x1="0" y1="1.072356" x2="-0.2" y2="1.072356" stroke="white"
                    stroke-width="0.0254"></line>
                <g transform="translate(-0.15239999999999998 0.285)">
                    <use href="#fuel" x="0" y="0"></use>
                    <use href="#fuel" x="0" y="0.15239999999999998"></use>
                    <use href="#fuel" x="0" y="0.30479999999999996"></use>
                    <use href="#fuel" x="0" y="0.45719999999999994"></use>
                    <use href="#fuel" x="0" y="0.6095999999999999"></use>
                </g>
            </g>
        </defs>
        <g id="tape">
            <line id="centerline" x1="8.2705" x2="8.2705" y1="0" y2="8.0692" stroke="white"
                stroke-width="0.0508"></line>
            <line id="midline" x1="0" x2="16.541" y1="4.0346" y2="4.0346" stroke="black"
                stroke-width="0.1016"></line>
        </g>
        <use x="0" y="0" width="16.541" height="8.0692" href="#blueSide" color="#1c1c99ff"></use>
        <g id="redSide" transform="translate(16.541 8.0692) rotate(180)">
            <use x="0" y="0" width="16.541" height="8.0692" href="#blueSide" color="#9e2323ff"></use>
        </g>
        <rect id="wall" x="-0.0254" y="-0.0254" width="16.5918" height="8.120000000000001"
            stroke="white" stroke-width="0.0508" fill="transparent"></rect>

    </g>
  <g transform="scale(1 -1) translate(0 -8.0692)">
    <line x1="4.4284" y1="0.5944" x2="4.4413" y2="0.5915" stroke="hsl(180.44, 100%, 50%)" stroke-width="0.05"/>
    <line x1="4.4413" y1="0.5915" x2="4.4789" y2="0.5833" stroke="hsl(163.93, 100%, 50%)" stroke-width="0.05"/>
    <line x1="4.4789" y1="0.5833" x2="4.5387" y2="0.5706" stroke="hsl(145.86, 100%, 50%)" stroke-width="0.05"/>
    <line x1="4.5387" y1="0.5706" x2="4.6179" y2="0.5538" stroke="hsl(126.10, 100%, 50%)" stroke-width="0.05"/>
    <line x1="4.6179" y1="0.5538" x2="4.7143" y2="0.5338" stroke="hsl(111.37, 100%, 50%)" stroke-width="0.05"/>
    <line x1="4.7143" y1="0.5338" x2="4.8260" y2="0.5113" stroke="hsl(100.54, 100%, 50%)" stroke-width="0.05"/>
    <line x1="4.8260" y1="0.5113" x2="4.9516" y2="0.4867" stroke="hsl(92.63, 100%, 50%)" stroke-width="0.05"/>
    <line x1="4.9516" y1="0.4867" x2="5.0900" y2="0.4608" stroke="hsl(81.79, 100%, 50%)" stroke-width="0.05"/>
    <line x1="5.0900" y1="0.4608" x2="5.2392" y2="0.4341" stroke="hsl(65.92, 100%, 50%)" stroke-width="0.05"/>
    <line x1="5.2392" y1="0.4341" x2="5.3972" y2="0.4073" stroke="hsl(54.98, 100%, 50%)" stroke-width="0.05"/>
    <line x1="5.3972" y1="0.4073" x2="5.5625" y2="0.3809" stroke="hsl(45.26, 100%, 50%)" stroke-width="0.05"/>
    <line x1="5.5625" y1="0.3809" x2="5.7336" y2="0.3556" stroke="hsl(34.63, 100%, 50%)" stroke-width="0.05"/>
    <line x1="5.7336" y1="0.3556" x2="5.9089" y2="0.3317" stroke="hsl(26.37, 100%, 50%)" stroke-width="0.05"/>
    <line x1="5.9089" y1="0.3317" x2="6.0872" y2="0.3094" stroke="hsl(20.95, 100%, 50%)" stroke-width="0.05"/>
    <line x1="6.0872" y1="0.3094" x2="6.2675" y2="0.2891" stroke="hsl(17.30, 100%, 50%)" stroke-width="0.05"/>
    <line x1="6.2675" y1="0.2891" x2="6.4488" y2="0.2709" stroke="hsl(16.39, 100%, 50%)" stroke-width="0.05"/>
    <line x1="6.4488" y1="0.2709" x2="6.6307" y2="0.2552" stroke="hsl(17.62, 100%, 50%)" stroke-width="0.05"/>
    <line x1="6.6307" y1="0.2552" x2="6.8128" y2="0.2422" stroke="hsl(20.18, 100%, 50%)" stroke-width="0.05"/>
    <line x1="6.8128" y1="0.2422" x2="6.9948" y2="0.2325" stroke="hsl(23.93, 100%, 50%)" stroke-width="0.05"/>
    <line x1="6.9948" y1="0.2325" x2="7.1762" y2="0.2266" stroke="hsl(29.09, 100%, 50%)" stroke-width="0.05"/>
    <line x1="7.1762" y1="0.2266" x2="7.3567" y2="0.2255" stroke="hsl(37.15, 100%, 50%)" stroke-width="0.05"/>
    <line x1="7.3567" y1="0.2255" x2="7.5356" y2="0.2302" stroke="hsl(46.15, 100%, 50%)" stroke-width="0.05"/>
    <line x1="7.5356" y1="0.2302" x2="7.7123" y2="0.2422" stroke="hsl(57.11, 100%, 50%)" stroke-width="0.05"/>
    <line x1="7.7123" y1="0.2422" x2="7.8858" y2="0.2628" stroke="hsl(68.59, 100%, 50%)" stroke-width="0.05"/>
    <line x1="7.8858" y1="0.2628" x2="8.0549" y2="0.2933" stroke="hsl(80.43, 100%, 50%)" stroke-width="0.05"/>
    <line x1="8.0549" y1="0.2933" x2="8.2181" y2="0.3351" stroke="hsl(91.89, 100%, 50%)" stroke-width="0.05"/>
    <line x1="8.2181" y1="0.3351" x2="8.3740" y2="0.3891" stroke="hsl(103.08, 100%, 50%)" stroke-width="0.05"/>
    <line x1="8.3740" y1="0.3891" x2="8.5206" y2="0.4560" stroke="hsl(115.07, 100%, 50%)" stroke-width="0.05"/>
    <line x1="8.5206" y1="0.4560" x2="8.6552" y2="0.5362" stroke="hsl(128.96, 100%, 50%)" stroke-width="0.05"/>
    <line x1="8.6552" y1="0.5362" x2="8.7988" y2="0.6528" stroke="hsl(152.31, 100%, 50%)" stroke-width="0.05"/>
    <line x1="8.7988" y1="0.6528" x2="8.9098" y2="0.7872" stroke="hsl(185.60, 100%, 50%)" stroke-width="0.05"/>
    <line x1="8.9098" y1="0.7872" x2="8.9936" y2="0.9351" stroke="hsl(90.00, 100%, 50%)" stroke-width="0.05"/>
    <line x1="8.9936" y1="0.9351" x2="9.0641" y2="1.0948" stroke="hsl(72.29, 100%, 50%)" stroke-width="0.05"/>
    <line x1="9.0641" y1="1.0948" x2="9.1259" y2="1.2674" stroke="hsl(69.86, 100%, 50%)" stroke-width="0.05"/>
    <line x1="9.1259" y1="1.2674" x2="9.1805" y2="1.4532" stroke="hsl(66.93, 100%, 50%)" stroke-width="0.05"/>
    <line x1="9.1805" y1="1.4532" x2="9.2274" y2="1.6511" stroke="hsl(62.33, 100%, 50%)" stroke-width="0.05"/>
    <line x1="9.2274" y1="1.6511" x2="9.2653" y2="1.8588" stroke="hsl(58.50, 100%, 50%)" stroke-width="0.05"/>
    <line x1="9.2653" y1="1.8588" x2="9.2940" y2="2.0740" stroke="hsl(49.00, 100%, 50%)" stroke-width="0.05"/>
    <line x1="9.2940" y1="2.0740" x2="9.3149" y2="2.2944" stroke="hsl(35.98, 100%, 50%)" stroke-width="0.05"/>
    <line x1="9.3149" y1="2.2944" x2="9.3300" y2="2.5184" stroke="hsl(26.63, 100%, 50%)" stroke-width="0.05"/>
    <line x1="9.3300" y1="2.5184" x2="9.3405" y2="2.7450" stroke="hsl(19.72, 100%, 50%)" stroke-width="0.05"/>
    <line x1="9.3405" y1="2.7450" x2="9.3477" y2="2.9733" stroke="hsl(14.90, 100%, 50%)" stroke-width="0.05"/>
    <line x1="9.3477" y1="2.9733" x2="9.3522" y2="3.2028" stroke="hsl(11.99, 100%, 50%)" stroke-width="0.05"/>
    <line x1="9.3522" y1="3.2028" x2="9.3543" y2="3.4330" stroke="hsl(10.17, 100%, 50%)" stroke-width="0.05"/>
    <line x1="9.3543" y1="3.4330" x2="9.3541" y2="3.6634" stroke="hsl(10.72, 100%, 50%)" stroke-width="0.05"/>
    <line x1="9.3541" y1="3.6634" x2="9.3515" y2="3.8937" stroke="hsl(11.06, 100%, 50%)" stroke-width="0.05"/>
    <line x1="9.3515" y1="3.8937" x2="9.3462" y2="4.1235" stroke="hsl(14.67, 100%, 50%)" stroke-width="0.05"/>
    <line x1="9.3462" y1="4.1235" x2="9.3373" y2="4.3525" stroke="hsl(18.44, 100%, 50%)" stroke-width="0.05"/>
    <line x1="9.3373" y1="4.3525" x2="9.3239" y2="4.5800" stroke="hsl(24.41, 100%, 50%)" stroke-width="0.05"/>
    <line x1="9.3239" y1="4.5800" x2="9.3046" y2="4.8054" stroke="hsl(31.71, 100%, 50%)" stroke-width="0.05"/>
    <line x1="9.3046" y1="4.8054" x2="9.2778" y2="5.0278" stroke="hsl(41.47, 100%, 50%)" stroke-width="0.05"/>
    <line x1="9.2778" y1="5.0278" x2="9.2414" y2="5.2462" stroke="hsl(53.04, 100%, 50%)" stroke-width="0.05"/>
    <line x1="9.2414" y1="5.2462" x2="9.1930" y2="5.4587" stroke="hsl(67.70, 100%, 50%)" stroke-width="0.05"/>
    <line x1="9.1930" y1="5.4587" x2="9.1299" y2="5.6632" stroke="hsl(84.02, 100%, 50%)" stroke-width="0.05"/>
    <line x1="9.1299" y1="5.6632" x2="9.0494" y2="5.8565" stroke="hsl(103.42, 100%, 50%)" stroke-width="0.05"/>
    <line x1="9.0494" y1="5.8565" x2="8.9495" y2="6.0337" stroke="hsl(125.24, 100%, 50%)" stroke-width="0.05"/>
    <line x1="8.9495" y1="6.0337" x2="8.8302" y2="6.1882" stroke="hsl(146.07, 100%, 50%)" stroke-width="0.05"/>
    <line x1="8.8302" y1="6.1882" x2="8.6940" y2="6.3141" stroke="hsl(155.39, 100%, 50%)" stroke-width="0.05"/>
    <line x1="8.6940" y1="6.3141" x2="8.5928" y2="6.3845" stroke="hsl(117.09, 100%, 50%)" stroke-width="0.05"/>
    <line x1="8.5928" y1="6.3845" x2="8.4875" y2="6.4424" stroke="hsl(133.84, 100%, 50%)" stroke-width="0.05"/>
    <line x1="8.4875" y1="6.4424" x2="8.3785" y2="6.4895" stroke="hsl(85.42, 100%, 50%)" stroke-width="0.05"/>
    <line x1="8.3785" y1="6.4895" x2="8.2661" y2="6.5291" stroke="hsl(73.06, 100%, 50%)" stroke-width="0.05"/>
    <line x1="8.2661" y1="6.5291" x2="8.1507" y2="6.5623" stroke="hsl(61.29, 100%, 50%)" stroke-width="0.05"/>
    <line x1="8.1507" y1="6.5623" x2="8.0329" y2="6.5902" stroke="hsl(51.76, 100%, 50%)" stroke-width="0.05"/>
    <line x1="8.0329" y1="6.5902" x2="7.9136" y2="6.6132" stroke="hsl(44.91, 100%, 50%)" stroke-width="0.05"/>
    <line x1="7.9136" y1="6.6132" x2="7.7936" y2="6.6319" stroke="hsl(39.04, 100%, 50%)" stroke-width="0.05"/>
    <line x1="7.7936" y1="6.6319" x2="7.6735" y2="6.6467" stroke="hsl(35.06, 100%, 50%)" stroke-width="0.05"/>
    <line x1="7.6735" y1="6.6467" x2="7.5543" y2="6.6582" stroke="hsl(32.74, 100%, 50%)" stroke-width="0.05"/>
    <line x1="7.5543" y1="6.6582" x2="7.4364" y2="6.6665" stroke="hsl(32.04, 100%, 50%)" stroke-width="0.05"/>
    <line x1="7.4364" y1="6.6665" x2="7.3206" y2="6.6722" stroke="hsl(33.43, 100%, 50%)" stroke-width="0.05"/>
    <line x1="7.3206" y1="6.6722" x2="7.2076" y2="6.6754" stroke="hsl(36.48, 100%, 50%)" stroke-width="0.05"/>
    <line x1="7.2076" y1="6.6754" x2="7.0980" y2="6.6766" stroke="hsl(41.38, 100%, 50%)" stroke-width="0.05"/>
    <line x1="7.0980" y1="6.6766" x2="6.9928" y2="6.6757" stroke="hsl(51.46, 100%, 50%)" stroke-width="0.05"/>
    <line x1="6.9928" y1="6.6757" x2="6.8935" y2="6.6729" stroke="hsl(66.77, 100%, 50%)" stroke-width="0.05"/>
    <line x1="6.8935" y1="6.6729" x2="6.8019" y2="6.6685" stroke="hsl(85.54, 100%, 50%)" stroke-width="0.05"/>
    <line x1="6.8019" y1="6.6685" x2="6.7203" y2="6.6631" stroke="hsl(105.33, 100%, 50%)" stroke-width="0.05"/>
    <line x1="6.7203" y1="6.6631" x2="6.6507" y2="6.6574" stroke="hsl(125.66, 100%, 50%)" stroke-width="0.05"/>
    <line x1="6.6507" y1="6.6574" x2="6.5950" y2="6.6520" stroke="hsl(141.44, 100%, 50%)" stroke-width="0.05"/>
    <line x1="6.5950" y1="6.6520" x2="6.5548" y2="6.6476" stroke="hsl(152.69, 100%, 50%)" stroke-width="0.05"/>
    <line x1="6.5548" y1="6.6476" x2="6.5305" y2="6.6447" stroke="hsl(155.74, 100%, 50%)" stroke-width="0.05"/>
    <line x1="6.5305" y1="6.6447" x2="6.5224" y2="6.6437" stroke="hsl(155.77, 100%, 50%)" stroke-width="0.05"/>
    <polygon points="4.8348,1.0008 4.8348,0.1880 4.0221,0.1880 4.0221,1.0008" fill="rgba(0,0,0,0.12)" stroke="#000000" stroke-width="0.04"/><circle cx="4.4284" cy="0.5944" r="0.03" fill="#ffffff" stroke="#000000" stroke-width="0.015"/><polygon points="4.9223,0.5944 4.8473,0.6294 4.8473,0.5594" fill="#ffffff" stroke="#000000" stroke-width="0.02"/>
    <polygon points="8.2488,0.9426 9.0616,0.9426 9.0616,0.1298 8.2488,0.1298" fill="rgba(0,0,0,0.12)" stroke="#000000" stroke-width="0.04"/><circle cx="8.6552" cy="0.5362" r="0.03" fill="#ffffff" stroke="#000000" stroke-width="0.015"/><polygon points="8.6552,1.0301 8.6202,0.9551 8.6902,0.9551" fill="#ffffff" stroke="#000000" stroke-width="0.02"/>
    <polygon points="8.2999,6.7324 9.1123,6.7082 9.0881,5.8958 8.2756,5.9200" fill="rgba(0,0,0,0.12)" stroke="#000000" stroke-width="0.04"/><circle cx="8.6940" cy="6.3141" r="0.03" fill="#ffffff" stroke="#000000" stroke-width="0.015"/><polygon points="8.7087,6.8078 8.6715,6.7339 8.7415,6.7318" fill="#ffffff" stroke="#000000" stroke-width="0.02"/>
    <polygon points="6.6647,6.0868 5.9656,6.5015 6.3802,7.2006 7.0793,6.7859" fill="rgba(0,0,0,0.12)" stroke="#000000" stroke-width="0.04"/><circle cx="6.5224" cy="6.6437" r="0.03" fill="#ffffff" stroke="#000000" stroke-width="0.015"/><polygon points="6.2705,6.2189 6.3389,6.2656 6.2786,6.3013" fill="#ffffff" stroke="#000000" stroke-width="0.02"/>
  </g>
  <text x="-0.4" y="-0.15" font-size="0.32" font-family="monospace" fill="white" stroke="black" stroke-width="0.02" paint-order="stroke fill">PR  swerve-base-medium-dt · sweep_auto</text>
</svg>
