<svg xmlns="http://www.w3.org/2000/svg" viewBox="-0.5 -0.5 17.541 9.0692" width="2631" height="1360">
  <g id="field" transform="scale(1 -1) translate(0 -8.0692)">
        <defs>
            <filter id="dark">
                <feComponentTransfer>
                    <feFuncR type="linear" slope="0.5"></feFuncR>
                    <feFuncG type="linear" slope="0.5"></feFuncG>
                    <feFuncB type="linear" slope="0.5"></feFuncB>
                </feComponentTransfer>
            </filter>
            <circle id="fuel" cx="0.07619999999999999" cy="0.07619999999999999"
                r="0.07505699999999998" fill="#B1902F"></circle>
            <g id="blueRampTrench">
                <rect height="0.3055620000000001" width="1.193852" x="-4.2426200000000005"
                    y="2.450338" fill="currentColor" filter="url(#dark)"></rect>
                <rect x="-4.208718" y="0.5940749999999999" width="0.563024" height="1.856263"
                    fill="currentColor"></rect>
                <rect x="-3.645694" y="0.5940749999999999" width="0.563024" height="1.856263"
                    fill="currentColor"></rect>
                <line x1="-3.645694" y1="0.5940749999999999" x2="-3.645694" y2="2.450338"
                    stroke="black" stroke-width="0.01"></line>
                <line x1="-3.645694" y1="2.7559" x2="-3.645694" y2="4.0346"
                    stroke="currentColor" stroke-width="0.1524"></line>
            </g>
            <g id="blueSide">
                <g transform="translate(7.3561000000000005 4.0600000000000005)">
                    <use href="#fuel" x="0" y="0"></use>
                    <use href="#fuel" x="0" y="0.15239999999999998"></use>
                    <use href="#fuel" x="0" y="0.30479999999999996"></use>
                    <use href="#fuel" x="0" y="0.45719999999999994"></use>
                    <use href="#fuel" x="0" y="0.6095999999999999"></use>
                    <use href="#fuel" x="0" y="0.7619999999999999"></use>
                    <use href="#fuel" x="0" y="0.9143999999999999"></use>
                    <use href="#fuel" x="0" y="1.0667999999999997"></use>
                    <use href="#fuel" x="0" y="1.2191999999999998"></use>
                    <use href="#fuel" x="0" y="1.3716"></use>
                    <use href="#fuel" x="0" y="1.5239999999999998"></use>
                    <use href="#fuel" x="0" y="1.6763999999999997"></use>
                    <use href="#fuel" x="0" y="1.8287999999999998"></use>
                    <use href="#fuel" x="0" y="1.9811999999999999"></use>
                    <use href="#fuel" x="0" y="2.1335999999999995"></use>
                    <use href="#fuel" x="0.15239999999999998" y="0"></use>
                    <use href="#fuel" x="0.15239999999999998" y="0.15239999999999998"></use>
                    <use href="#fuel" x="0.15239999999999998" y="0.30479999999999996"></use>
                    <use href="#fuel" x="0.15239999999999998" y="0.45719999999999994"></use>
                    <use href="#fuel" x="0.15239999999999998" y="0.6095999999999999"></use>
                    <use href="#fuel" x="0.15239999999999998" y="0.7619999999999999"></use>
                    <use href="#fuel" x="0.15239999999999998" y="0.9143999999999999"></use>
                    <use href="#fuel" x="0.15239999999999998" y="1.0667999999999997"></use>
                    <use href="#fuel" x="0.15239999999999998" y="1.2191999999999998"></use>
                    <use href="#fuel" x="0.15239999999999998" y="1.3716"></use>
                    <use href="#fuel" x="0.15239999999999998" y="1.5239999999999998"></use>
                    <use href="#fuel" x="0.15239999999999998" y="1.6763999999999997"></use>
                    <use href="#fuel" x="0.15239999999999998" y="1.8287999999999998"></use>
                    <use href="#fuel" x="0.15239999999999998" y="1.9811999999999999"></use>
                    <use href="#fuel" x="0.15239999999999998" y="2.1335999999999995"></use>
                    <use href="#fuel" x="0.30479999999999996" y="0"></use>
                    <use href="#fuel" x="0.30479999999999996" y="0.15239999999999998"></use>
                    <use href="#fuel" x="0.30479999999999996" y="0.30479999999999996"></use>
                    <use href="#fuel" x="0.30479999999999996" y="0.45719999999999994"></use>
                    <use href="#fuel" x="0.30479999999999996" y="0.6095999999999999"></use>
                    <use href="#fuel" x="0.30479999999999996" y="0.7619999999999999"></use>
                    <use href="#fuel" x="0.30479999999999996" y="0.9143999999999999"></use>
                    <use href="#fuel" x="0.30479999999999996" y="1.0667999999999997"></use>
                    <use href="#fuel" x="0.30479999999999996" y="1.2191999999999998"></use>
                    <use href="#fuel" x="0.30479999999999996" y="1.3716"></use>
                    <use href="#fuel" x="0.30479999999999996" y="1.5239999999999998"></use>
                    <use href="#fuel" x="0.30479999999999996" y="1.6763999999999997"></use>
                    <use href="#fuel" x="0.30479999999999996" y="1.8287999999999998"></use>
                    <use href="#fuel" x="0.30479999999999996" y="1.9811999999999999"></use>
                    <use href="#fuel" x="0.30479999999999996" y="2.1335999999999995"></use>
                    <use href="#fuel" x="0.45719999999999994" y="0"></use>
                    <use href="#fuel" x="0.45719999999999994" y="0.15239999999999998"></use>
                    <use href="#fuel" x="0.45719999999999994" y="0.30479999999999996"></use>
                    <use href="#fuel" x="0.45719999999999994" y="0.45719999999999994"></use>
                    <use href="#fuel" x="0.45719999999999994" y="0.6095999999999999"></use>
                    <use href="#fuel" x="0.45719999999999994" y="0.7619999999999999"></use>
                    <use href="#fuel" x="0.45719999999999994" y="0.9143999999999999"></use>
                    <use href="#fuel" x="0.45719999999999994" y="1.0667999999999997"></use>
                    <use href="#fuel" x="0.45719999999999994" y="1.2191999999999998"></use>
                    <use href="#fuel" x="0.45719999999999994" y="1.3716"></use>
                    <use href="#fuel" x="0.45719999999999994" y="1.5239999999999998"></use>
                    <use href="#fuel" x="0.45719999999999994" y="1.6763999999999997"></use>
                    <use href="#fuel" x="0.45719999999999994" y="1.8287999999999998"></use>
                    <use href="#fuel" x="0.45719999999999994" y="1.9811999999999999"></use>
                    <use href="#fuel" x="0.45719999999999994" y="2.1335999999999995"></use>
                    <use href="#fuel" x="0.6095999999999999" y="0"></use>
                    <use href="#fuel" x="0.6095999999999999" y="0.15239999999999998"></use>
                    <use href="#fuel" x="0.6095999999999999" y="0.30479999999999996"></use>
                    <use href="#fuel" x="0.6095999999999999" y="0.45719999999999994"></use>
                    <use href="#fuel" x="0.6095999999999999" y="0.6095999999999999"></use>
                    <use href="#fuel" x="0.6095999999999999" y="0.7619999999999999"></use>
                    <use href="#fuel" x="0.6095999999999999" y="0.9143999999999999"></use>
                    <use href="#fuel" x="0.6095999999999999" y="1.0667999999999997"></use>
                    <use href="#fuel" x="0.6095999999999999" y="1.2191999999999998"></use>
                    <use href="#fuel" x="0.6095999999999999" y="1.3716"></use>
                    <use href="#fuel" x="0.6095999999999999" y="1.5239999999999998"></use>
                    <use href="#fuel" x="0.6095999999999999" y="1.6763999999999997"></use>
                    <use href="#fuel" x="0.6095999999999999" y="1.8287999999999998"></use>
                    <use href="#fuel" x="0.6095999999999999" y="1.9811999999999999"></use>
                    <use href="#fuel" x="0.6095999999999999" y="2.1335999999999995"></use>
                    <use href="#fuel" x="0.7619999999999999" y="0"></use>
                    <use href="#fuel" x="0.7619999999999999" y="0.15239999999999998"></use>
                    <use href="#fuel" x="0.7619999999999999" y="0.30479999999999996"></use>
                    <use href="#fuel" x="0.7619999999999999" y="0.45719999999999994"></use>
                    <use href="#fuel" x="0.7619999999999999" y="0.6095999999999999"></use>
                    <use href="#fuel" x="0.7619999999999999" y="0.7619999999999999"></use>
                    <use href="#fuel" x="0.7619999999999999" y="0.9143999999999999"></use>
                    <use href="#fuel" x="0.7619999999999999" y="1.0667999999999997"></use>
                    <use href="#fuel" x="0.7619999999999999" y="1.2191999999999998"></use>
                    <use href="#fuel" x="0.7619999999999999" y="1.3716"></use>
                    <use href="#fuel" x="0.7619999999999999" y="1.5239999999999998"></use>
                    <use href="#fuel" x="0.7619999999999999" y="1.6763999999999997"></use>
                    <use href="#fuel" x="0.7619999999999999" y="1.8287999999999998"></use>
                    <use href="#fuel" x="0.7619999999999999" y="1.9811999999999999"></use>
                    <use href="#fuel" x="0.7619999999999999" y="2.1335999999999995"></use>
                    <use href="#fuel" x="0.9143999999999999" y="0"></use>
                    <use href="#fuel" x="0.9143999999999999" y="0.15239999999999998"></use>
                    <use href="#fuel" x="0.9143999999999999" y="0.30479999999999996"></use>
                    <use href="#fuel" x="0.9143999999999999" y="0.45719999999999994"></use>
                    <use href="#fuel" x="0.9143999999999999" y="0.6095999999999999"></use>
                    <use href="#fuel" x="0.9143999999999999" y="0.7619999999999999"></use>
                    <use href="#fuel" x="0.9143999999999999" y="0.9143999999999999"></use>
                    <use href="#fuel" x="0.9143999999999999" y="1.0667999999999997"></use>
                    <use href="#fuel" x="0.9143999999999999" y="1.2191999999999998"></use>
                    <use href="#fuel" x="0.9143999999999999" y="1.3716"></use>
                    <use href="#fuel" x="0.9143999999999999" y="1.5239999999999998"></use>
                    <use href="#fuel" x="0.9143999999999999" y="1.6763999999999997"></use>
                    <use href="#fuel" x="0.9143999999999999" y="1.8287999999999998"></use>
                    <use href="#fuel" x="0.9143999999999999" y="1.9811999999999999"></use>
                    <use href="#fuel" x="0.9143999999999999" y="2.1335999999999995"></use>
                    <use href="#fuel" x="1.0667999999999997" y="0"></use>
                    <use href="#fuel" x="1.0667999999999997" y="0.15239999999999998"></use>
                    <use href="#fuel" x="1.0667999999999997" y="0.30479999999999996"></use>
                    <use href="#fuel" x="1.0667999999999997" y="0.45719999999999994"></use>
                    <use href="#fuel" x="1.0667999999999997" y="0.6095999999999999"></use>
                    <use href="#fuel" x="1.0667999999999997" y="0.7619999999999999"></use>
                    <use href="#fuel" x="1.0667999999999997" y="0.9143999999999999"></use>
                    <use href="#fuel" x="1.0667999999999997" y="1.0667999999999997"></use>
                    <use href="#fuel" x="1.0667999999999997" y="1.2191999999999998"></use>
                    <use href="#fuel" x="1.0667999999999997" y="1.3716"></use>
                    <use href="#fuel" x="1.0667999999999997" y="1.5239999999999998"></use>
                    <use href="#fuel" x="1.0667999999999997" y="1.6763999999999997"></use>
                    <use href="#fuel" x="1.0667999999999997" y="1.8287999999999998"></use>
                    <use href="#fuel" x="1.0667999999999997" y="1.9811999999999999"></use>
                    <use href="#fuel" x="1.0667999999999997" y="2.1335999999999995"></use>
                    <use href="#fuel" x="1.2191999999999998" y="0"></use>
                    <use href="#fuel" x="1.2191999999999998" y="0.15239999999999998"></use>
                    <use href="#fuel" x="1.2191999999999998" y="0.30479999999999996"></use>
                    <use href="#fuel" x="1.2191999999999998" y="0.45719999999999994"></use>
                    <use href="#fuel" x="1.2191999999999998" y="0.6095999999999999"></use>
                    <use href="#fuel" x="1.2191999999999998" y="0.7619999999999999"></use>
                    <use href="#fuel" x="1.2191999999999998" y="0.9143999999999999"></use>
                    <use href="#fuel" x="1.2191999999999998" y="1.0667999999999997"></use>
                    <use href="#fuel" x="1.2191999999999998" y="1.2191999999999998"></use>
                    <use href="#fuel" x="1.2191999999999998" y="1.3716"></use>
                    <use href="#fuel" x="1.2191999999999998" y="1.5239999999999998"></use>
                    <use href="#fuel" x="1.2191999999999998" y="1.6763999999999997"></use>
                    <use href="#fuel" x="1.2191999999999998" y="1.8287999999999998"></use>
                    <use href="#fuel" x="1.2191999999999998" y="1.9811999999999999"></use>
                    <use href="#fuel" x="1.2191999999999998" y="2.1335999999999995"></use>
                    <use href="#fuel" x="1.3716" y="0"></use>
                    <use href="#fuel" x="1.3716" y="0.15239999999999998"></use>
                    <use href="#fuel" x="1.3716" y="0.30479999999999996"></use>
                    <use href="#fuel" x="1.3716" y="0.45719999999999994"></use>
                    <use href="#fuel" x="1.3716" y="0.6095999999999999"></use>
                    <use href="#fuel" x="1.3716" y="0.7619999999999999"></use>
                    <use href="#fuel" x="1.3716" y="0.9143999999999999"></use>
                    <use href="#fuel" x="1.3716" y="1.0667999999999997"></use>
                    <use href="#fuel" x="1.3716" y="1.2191999999999998"></use>
                    <use href="#fuel" x="1.3716" y="1.3716"></use>
                    <use href="#fuel" x="1.3716" y="1.5239999999999998"></use>
                    <use href="#fuel" x="1.3716" y="1.6763999999999997"></use>
                    <use href="#fuel" x="1.3716" y="1.8287999999999998"></use>
                    <use href="#fuel" x="1.3716" y="1.9811999999999999"></use>
                    <use href="#fuel" x="1.3716" y="2.1335999999999995"></use>
                    <use href="#fuel" x="1.5239999999999998" y="0"></use>
                    <use href="#fuel" x="1.5239999999999998" y="0.15239999999999998"></use>
                    <use href="#fuel" x="1.5239999999999998" y="0.30479999999999996"></use>
                    <use href="#fuel" x="1.5239999999999998" y="0.45719999999999994"></use>
                    <use href="#fuel" x="1.5239999999999998" y="0.6095999999999999"></use>
                    <use href="#fuel" x="1.5239999999999998" y="0.7619999999999999"></use>
                    <use href="#fuel" x="1.5239999999999998" y="0.9143999999999999"></use>
                    <use href="#fuel" x="1.5239999999999998" y="1.0667999999999997"></use>
                    <use href="#fuel" x="1.5239999999999998" y="1.2191999999999998"></use>
                    <use href="#fuel" x="1.5239999999999998" y="1.3716"></use>
                    <use href="#fuel" x="1.5239999999999998" y="1.5239999999999998"></use>
                    <use href="#fuel" x="1.5239999999999998" y="1.6763999999999997"></use>
                    <use href="#fuel" x="1.5239999999999998" y="1.8287999999999998"></use>
                    <use href="#fuel" x="1.5239999999999998" y="1.9811999999999999"></use>
                    <use href="#fuel" x="1.5239999999999998" y="2.1335999999999995"></use>
                    <use href="#fuel" x="1.6763999999999997" y="0"></use>
                    <use href="#fuel" x="1.6763999999999997" y="0.15239999999999998"></use>
                    <use href="#fuel" x="1.6763999999999997" y="0.30479999999999996"></use>
                    <use href="#fuel" x="1.6763999999999997" y="0.45719999999999994"></use>
                    <use href="#fuel" x="1.6763999999999997" y="0.6095999999999999"></use>
                    <use href="#fuel" x="1.6763999999999997" y="0.7619999999999999"></use>
                    <use href="#fuel" x="1.6763999999999997" y="0.9143999999999999"></use>
                    <use href="#fuel" x="1.6763999999999997" y="1.0667999999999997"></use>
                    <use href="#fuel" x="1.6763999999999997" y="1.2191999999999998"></use>
                    <use href="#fuel" x="1.6763999999999997" y="1.3716"></use>
                    <use href="#fuel" x="1.6763999999999997" y="1.5239999999999998"></use>
                    <use href="#fuel" x="1.6763999999999997" y="1.6763999999999997"></use>
                    <use href="#fuel" x="1.6763999999999997" y="1.8287999999999998"></use>
                    <use href="#fuel" x="1.6763999999999997" y="1.9811999999999999"></use>
                    <use href="#fuel" x="1.6763999999999997" y="2.1335999999999995"></use>
                </g>
                <line x1="4.003326" x2="4.003326" y1="0" y2="8.0692" stroke="currentColor"
                    stroke-width="0.0508"></line>
                <g>
                    <rect x="0" y="5.431631" width="0.609" height="0.0762" fill="currentColor"></rect>
                    <rect x="0" y="6.422231" width="0.609" height="0.0762" fill="currentColor"></rect>
                    <rect x="0.609" y="5.431631" width="0.0762" height="1.0668"
                        fill="currentColor"></rect>
                    <g transform="translate(0 5.507831)">
                        <use href="#fuel" x="0" y="0"></use>
                        <use href="#fuel" x="0" y="0.15239999999999998"></use>
                        <use href="#fuel" x="0" y="0.30479999999999996"></use>
                        <use href="#fuel" x="0" y="0.45719999999999994"></use>
                        <use href="#fuel" x="0" y="0.6095999999999999"></use>
                        <use href="#fuel" x="0" y="0.7619999999999999"></use>
                        <use href="#fuel" x="0.15239999999999998" y="0"></use>
                        <use href="#fuel" x="0.15239999999999998" y="0.15239999999999998"></use>
                        <use href="#fuel" x="0.15239999999999998" y="0.30479999999999996"></use>
                        <use href="#fuel" x="0.15239999999999998" y="0.45719999999999994"></use>
                        <use href="#fuel" x="0.15239999999999998" y="0.6095999999999999"></use>
                        <use href="#fuel" x="0.15239999999999998" y="0.7619999999999999"></use>
                        <use href="#fuel" x="0.30479999999999996" y="0"></use>
                        <use href="#fuel" x="0.30479999999999996" y="0.15239999999999998"></use>
                        <use href="#fuel" x="0.30479999999999996" y="0.30479999999999996"></use>
                        <use href="#fuel" x="0.30479999999999996" y="0.45719999999999994"></use>
                        <use href="#fuel" x="0.30479999999999996" y="0.6095999999999999"></use>
                        <use href="#fuel" x="0.30479999999999996" y="0.7619999999999999"></use>
                        <use href="#fuel" x="0.45719999999999994" y="0"></use>
                        <use href="#fuel" x="0.45719999999999994" y="0.15239999999999998"></use>
                        <use href="#fuel" x="0.45719999999999994" y="0.30479999999999996"></use>
                        <use href="#fuel" x="0.45719999999999994" y="0.45719999999999994"></use>
                        <use href="#fuel" x="0.45719999999999994" y="0.6095999999999999"></use>
                        <use href="#fuel" x="0.45719999999999994" y="0.7619999999999999"></use>
                    </g>
                </g>
                <g transform="translate(8.2705 4.0346)">
                    <use href="#blueRampTrench"></use>
                    <g transform="scale(1 -1)">
                        <use href="#blueRampTrench"></use>
                    </g>
                    <rect x="-4.24215" y="-0.5969" width="1.1945589999999995" height="1.1938"
                        fill="currentColor" filter="url(#dark)"></rect>
                    <polygon
                        points="-3.033074,0 -3.340112,-0.527908 -3.949688,-0.527908 -4.254476,0 -3.949688,0.527908 -3.340112,0.527908"
                        stroke="gray" fill="transparent" stroke-width="0.0254"></polygon>
                    <circle r="0.2" stroke="gray" stroke-width="0.02" fill="transparent"
                        cx="-3.645694" cy="0"></circle>
                    <circle r="0.1" stroke="gray" stroke-width="0.02" fill="transparent"
                        cx="-3.645694" cy="0"></circle>
                    <rect x="-8.271493" y="-0.784225" width="1.1455549999999999"
                        height="0.9905999999999999" fill="black"></rect>
                    <line x1="-7.208488" y1="-0.885825" x2="-7.208488" y2="0.307975"
                        stroke="currentColor" stroke-width="0.042164"></line>
                    <rect x="-7.252938" y="0.12065000000000001" height="0.0381" width="0.0889"
                        fill="currentColor"></rect>
                    <rect x="-7.252938" y="-0.7366" height="0.0381" width="0.0889"
                        fill="currentColor"></rect>
                </g>
                <line x1="0" y1="0.259556" x2="-0.2" y2="0.259556" stroke="white"
                    stroke-width="0.0254"></line>
                <line x1="0" y1="1.072356" x2="-0.2" y2="1.072356" stroke="white"
                    stroke-width="0.0254"></line>
                <g transform="translate(-0.15239999999999998 0.285)">
                    <use href="#fuel" x="0" y="0"></use>
                    <use href="#fuel" x="0" y="0.15239999999999998"></use>
                    <use href="#fuel" x="0" y="0.30479999999999996"></use>
                    <use href="#fuel" x="0" y="0.45719999999999994"></use>
                    <use href="#fuel" x="0" y="0.6095999999999999"></use>
                </g>
            </g>
        </defs>
        <g id="tape">
            <line id="centerline" x1="8.2705" x2="8.2705" y1="0" y2="8.0692" stroke="white"
                stroke-width="0.0508"></line>
            <line id="midline" x1="0" x2="16.541" y1="4.0346" y2="4.0346" stroke="black"
                stroke-width="0.1016"></line>
        </g>
        <use x="0" y="0" width="16.541" height="8.0692" href="#blueSide" color="#1c1c99ff"></use>
        <g id="redSide" transform="translate(16.541 8.0692) rotate(180)">
            <use x="0" y="0" width="16.541" height="8.0692" href="#blueSide" color="#9e2323ff"></use>
        </g>
        <rect id="wall" x="-0.0254" y="-0.0254" width="16.5918" height="8.120000000000001"
            stroke="white" stroke-width="0.0508" fill="transparent"></rect>

    </g>
  <g transform="scale(1 -1) translate(0 -8.0692)">
    <line x1="4.4284" y1="0.5944" x2="4.4414" y2="0.5926" stroke="hsl(183.89, 100%, 50%)" stroke-width="0.05"/>
    <line x1="4.4414" y1="0.5926" x2="4.4786" y2="0.5873" stroke="hsl(160.93, 100%, 50%)" stroke-width="0.05"/>
    <line x1="4.4786" y1="0.5873" x2="4.5376" y2="0.5793" stroke="hsl(147.60, 100%, 50%)" stroke-width="0.05"/>
    <line x1="4.5376" y1="0.5793" x2="4.6163" y2="0.5688" stroke="hsl(131.06, 100%, 50%)" stroke-width="0.05"/>
    <line x1="4.6163" y1="0.5688" x2="4.7125" y2="0.5565" stroke="hsl(117.64, 100%, 50%)" stroke-width="0.05"/>
    <line x1="4.7125" y1="0.5565" x2="4.8246" y2="0.5424" stroke="hsl(106.81, 100%, 50%)" stroke-width="0.05"/>
    <line x1="4.8246" y1="0.5424" x2="4.9512" y2="0.5268" stroke="hsl(97.92, 100%, 50%)" stroke-width="0.05"/>
    <line x1="4.9512" y1="0.5268" x2="5.0905" y2="0.5099" stroke="hsl(81.81, 100%, 50%)" stroke-width="0.05"/>
    <line x1="5.0905" y1="0.5099" x2="5.2402" y2="0.4920" stroke="hsl(65.72, 100%, 50%)" stroke-width="0.05"/>
    <line x1="5.2402" y1="0.4920" x2="5.3985" y2="0.4735" stroke="hsl(55.20, 100%, 50%)" stroke-width="0.05"/>
    <line x1="5.3985" y1="0.4735" x2="5.5640" y2="0.4546" stroke="hsl(45.28, 100%, 50%)" stroke-width="0.05"/>
    <line x1="5.5640" y1="0.4546" x2="5.7350" y2="0.4355" stroke="hsl(33.66, 100%, 50%)" stroke-width="0.05"/>
    <line x1="5.7350" y1="0.4355" x2="5.9102" y2="0.4163" stroke="hsl(24.42, 100%, 50%)" stroke-width="0.05"/>
    <line x1="5.9102" y1="0.4163" x2="6.0884" y2="0.3972" stroke="hsl(18.22, 100%, 50%)" stroke-width="0.05"/>
    <line x1="6.0884" y1="0.3972" x2="6.2690" y2="0.3781" stroke="hsl(15.15, 100%, 50%)" stroke-width="0.05"/>
    <line x1="6.2690" y1="0.3781" x2="6.4516" y2="0.3593" stroke="hsl(12.98, 100%, 50%)" stroke-width="0.05"/>
    <line x1="6.4516" y1="0.3593" x2="6.6357" y2="0.3408" stroke="hsl(9.12, 100%, 50%)" stroke-width="0.05"/>
    <line x1="6.6357" y1="0.3408" x2="6.8187" y2="0.3255" stroke="hsl(48.35, 100%, 50%)" stroke-width="0.05"/>
    <line x1="6.8187" y1="0.3255" x2="7.0012" y2="0.3139" stroke="hsl(17.84, 100%, 50%)" stroke-width="0.05"/>
    <line x1="7.0012" y1="0.3139" x2="7.1856" y2="0.3033" stroke="hsl(12.51, 100%, 50%)" stroke-width="0.05"/>
    <line x1="7.1856" y1="0.3033" x2="7.3690" y2="0.2961" stroke="hsl(47.35, 100%, 50%)" stroke-width="0.05"/>
    <line x1="7.3690" y1="0.2961" x2="7.5506" y2="0.2938" stroke="hsl(27.80, 100%, 50%)" stroke-width="0.05"/>
    <line x1="7.5506" y1="0.2938" x2="7.7318" y2="0.2954" stroke="hsl(28.11, 100%, 50%)" stroke-width="0.05"/>
    <line x1="7.7318" y1="0.2954" x2="7.9125" y2="0.3014" stroke="hsl(33.85, 100%, 50%)" stroke-width="0.05"/>
    <line x1="7.9125" y1="0.3014" x2="8.0912" y2="0.3133" stroke="hsl(54.06, 100%, 50%)" stroke-width="0.05"/>
    <line x1="8.0912" y1="0.3133" x2="8.2599" y2="0.3390" stroke="hsl(187.15, 100%, 50%)" stroke-width="0.05"/>
    <line x1="8.2599" y1="0.3390" x2="8.4115" y2="0.3856" stroke="hsl(193.06, 100%, 50%)" stroke-width="0.05"/>
    <line x1="8.4115" y1="0.3856" x2="8.5441" y2="0.4522" stroke="hsl(194.72, 100%, 50%)" stroke-width="0.05"/>
    <line x1="8.5441" y1="0.4522" x2="8.6552" y2="0.5362" stroke="hsl(194.98, 100%, 50%)" stroke-width="0.05"/>
    <line x1="8.6552" y1="0.5362" x2="8.7568" y2="0.6549" stroke="hsl(195.13, 100%, 50%)" stroke-width="0.05"/>
    <line x1="8.7568" y1="0.6549" x2="8.8206" y2="0.7860" stroke="hsl(195.02, 100%, 50%)" stroke-width="0.05"/>
    <line x1="8.8206" y1="0.7860" x2="8.8636" y2="0.9306" stroke="hsl(93.46, 100%, 50%)" stroke-width="0.05"/>
    <line x1="8.8636" y1="0.9306" x2="8.9043" y2="1.0933" stroke="hsl(85.18, 100%, 50%)" stroke-width="0.05"/>
    <line x1="8.9043" y1="1.0933" x2="8.9422" y2="1.2726" stroke="hsl(77.35, 100%, 50%)" stroke-width="0.05"/>
    <line x1="8.9422" y1="1.2726" x2="8.9763" y2="1.4664" stroke="hsl(69.19, 100%, 50%)" stroke-width="0.05"/>
    <line x1="8.9763" y1="1.4664" x2="9.0050" y2="1.6724" stroke="hsl(61.47, 100%, 50%)" stroke-width="0.05"/>
    <line x1="9.0050" y1="1.6724" x2="9.0293" y2="1.8874" stroke="hsl(35.79, 100%, 50%)" stroke-width="0.05"/>
    <line x1="9.0293" y1="1.8874" x2="9.0513" y2="2.1073" stroke="hsl(17.23, 100%, 50%)" stroke-width="0.05"/>
    <line x1="9.0513" y1="2.1073" x2="9.0726" y2="2.3297" stroke="hsl(7.69, 100%, 50%)" stroke-width="0.05"/>
    <line x1="9.0726" y1="2.3297" x2="9.0935" y2="2.5531" stroke="hsl(3.24, 100%, 50%)" stroke-width="0.05"/>
    <line x1="9.0935" y1="2.5531" x2="9.1104" y2="2.7745" stroke="hsl(44.00, 100%, 50%)" stroke-width="0.05"/>
    <line x1="9.1104" y1="2.7745" x2="9.1225" y2="2.9951" stroke="hsl(18.66, 100%, 50%)" stroke-width="0.05"/>
    <line x1="9.1225" y1="2.9951" x2="9.1298" y2="3.2155" stroke="hsl(39.59, 100%, 50%)" stroke-width="0.05"/>
    <line x1="9.1298" y1="3.2155" x2="9.1322" y2="3.4357" stroke="hsl(21.05, 100%, 50%)" stroke-width="0.05"/>
    <line x1="9.1322" y1="3.4357" x2="9.1327" y2="3.6585" stroke="hsl(10.21, 100%, 50%)" stroke-width="0.05"/>
    <line x1="9.1327" y1="3.6585" x2="9.1324" y2="3.8826" stroke="hsl(4.70, 100%, 50%)" stroke-width="0.05"/>
    <line x1="9.1324" y1="3.8826" x2="9.1316" y2="4.1072" stroke="hsl(2.13, 100%, 50%)" stroke-width="0.05"/>
    <line x1="9.1316" y1="4.1072" x2="9.1287" y2="4.3305" stroke="hsl(24.97, 100%, 50%)" stroke-width="0.05"/>
    <line x1="9.1287" y1="4.3305" x2="9.1230" y2="4.5532" stroke="hsl(11.07, 100%, 50%)" stroke-width="0.05"/>
    <line x1="9.1230" y1="4.5532" x2="9.1128" y2="4.7739" stroke="hsl(46.13, 100%, 50%)" stroke-width="0.05"/>
    <line x1="9.1128" y1="4.7739" x2="9.0968" y2="4.9932" stroke="hsl(22.01, 100%, 50%)" stroke-width="0.05"/>
    <line x1="9.0968" y1="4.9932" x2="9.0782" y2="5.2148" stroke="hsl(12.09, 100%, 50%)" stroke-width="0.05"/>
    <line x1="9.0782" y1="5.2148" x2="9.0583" y2="5.4377" stroke="hsl(6.11, 100%, 50%)" stroke-width="0.05"/>
    <line x1="9.0583" y1="5.4377" x2="9.0317" y2="5.6553" stroke="hsl(83.98, 100%, 50%)" stroke-width="0.05"/>
    <line x1="9.0317" y1="5.6553" x2="8.9837" y2="5.8541" stroke="hsl(192.45, 100%, 50%)" stroke-width="0.05"/>
    <line x1="8.9837" y1="5.8541" x2="8.9087" y2="6.0308" stroke="hsl(148.16, 100%, 50%)" stroke-width="0.05"/>
    <line x1="8.9087" y1="6.0308" x2="8.8112" y2="6.1869" stroke="hsl(149.37, 100%, 50%)" stroke-width="0.05"/>
    <line x1="8.8112" y1="6.1869" x2="8.6940" y2="6.3141" stroke="hsl(193.48, 100%, 50%)" stroke-width="0.05"/>
    <line x1="8.6940" y1="6.3141" x2="8.6044" y2="6.3828" stroke="hsl(144.46, 100%, 50%)" stroke-width="0.05"/>
    <line x1="8.6044" y1="6.3828" x2="8.5089" y2="6.4409" stroke="hsl(111.79, 100%, 50%)" stroke-width="0.05"/>
    <line x1="8.5089" y1="6.4409" x2="8.4076" y2="6.4899" stroke="hsl(111.10, 100%, 50%)" stroke-width="0.05"/>
    <line x1="8.4076" y1="6.4899" x2="8.3014" y2="6.5295" stroke="hsl(109.93, 100%, 50%)" stroke-width="0.05"/>
    <line x1="8.3014" y1="6.5295" x2="8.1906" y2="6.5620" stroke="hsl(68.80, 100%, 50%)" stroke-width="0.05"/>
    <line x1="8.1906" y1="6.5620" x2="8.0761" y2="6.5898" stroke="hsl(57.21, 100%, 50%)" stroke-width="0.05"/>
    <line x1="8.0761" y1="6.5898" x2="7.9593" y2="6.6127" stroke="hsl(55.89, 100%, 50%)" stroke-width="0.05"/>
    <line x1="7.9593" y1="6.6127" x2="7.8412" y2="6.6304" stroke="hsl(55.87, 100%, 50%)" stroke-width="0.05"/>
    <line x1="7.8412" y1="6.6304" x2="7.7223" y2="6.6428" stroke="hsl(56.13, 100%, 50%)" stroke-width="0.05"/>
    <line x1="7.7223" y1="6.6428" x2="7.6031" y2="6.6498" stroke="hsl(56.42, 100%, 50%)" stroke-width="0.05"/>
    <line x1="7.6031" y1="6.6498" x2="7.4834" y2="6.6514" stroke="hsl(56.52, 100%, 50%)" stroke-width="0.05"/>
    <line x1="7.4834" y1="6.6514" x2="7.3621" y2="6.6494" stroke="hsl(37.04, 100%, 50%)" stroke-width="0.05"/>
    <line x1="7.3621" y1="6.6494" x2="7.2379" y2="6.6461" stroke="hsl(31.32, 100%, 50%)" stroke-width="0.05"/>
    <line x1="7.2379" y1="6.6461" x2="7.1131" y2="6.6437" stroke="hsl(32.55, 100%, 50%)" stroke-width="0.05"/>
    <line x1="7.1131" y1="6.6437" x2="6.9935" y2="6.6428" stroke="hsl(85.13, 100%, 50%)" stroke-width="0.05"/>
    <line x1="6.9935" y1="6.6428" x2="6.8829" y2="6.6419" stroke="hsl(105.10, 100%, 50%)" stroke-width="0.05"/>
    <line x1="6.8829" y1="6.6419" x2="6.7849" y2="6.6397" stroke="hsl(158.20, 100%, 50%)" stroke-width="0.05"/>
    <line x1="6.7849" y1="6.6397" x2="6.7030" y2="6.6362" stroke="hsl(180.03, 100%, 50%)" stroke-width="0.05"/>
    <line x1="6.7030" y1="6.6362" x2="6.6374" y2="6.6342" stroke="hsl(160.40, 100%, 50%)" stroke-width="0.05"/>
    <line x1="6.6374" y1="6.6342" x2="6.5862" y2="6.6356" stroke="hsl(150.29, 100%, 50%)" stroke-width="0.05"/>
    <line x1="6.5862" y1="6.6356" x2="6.5500" y2="6.6394" stroke="hsl(168.02, 100%, 50%)" stroke-width="0.05"/>
    <line x1="6.5500" y1="6.6394" x2="6.5292" y2="6.6426" stroke="hsl(154.56, 100%, 50%)" stroke-width="0.05"/>
    <line x1="6.5292" y1="6.6426" x2="6.5224" y2="6.6437" stroke="hsl(141.95, 100%, 50%)" stroke-width="0.05"/>
    <polygon points="4.8348,1.0008 4.8348,0.1880 4.0221,0.1880 4.0221,1.0008" fill="rgba(0,0,0,0.12)" stroke="#000000" stroke-width="0.04"/><circle cx="4.4284" cy="0.5944" r="0.03" fill="#ffffff" stroke="#000000" stroke-width="0.015"/><polygon points="4.9223,0.5944 4.8473,0.6294 4.8473,0.5594" fill="#ffffff" stroke="#000000" stroke-width="0.02"/>
    <polygon points="8.2488,0.9426 9.0616,0.9426 9.0616,0.1298 8.2488,0.1298" fill="rgba(0,0,0,0.12)" stroke="#000000" stroke-width="0.04"/><circle cx="8.6552" cy="0.5362" r="0.03" fill="#ffffff" stroke="#000000" stroke-width="0.015"/><polygon points="8.6552,1.0301 8.6202,0.9551 8.6902,0.9551" fill="#ffffff" stroke="#000000" stroke-width="0.02"/>
    <polygon points="8.2999,6.7324 9.1123,6.7082 9.0881,5.8958 8.2756,5.9200" fill="rgba(0,0,0,0.12)" stroke="#000000" stroke-width="0.04"/><circle cx="8.6940" cy="6.3141" r="0.03" fill="#ffffff" stroke="#000000" stroke-width="0.015"/><polygon points="8.7087,6.8078 8.6715,6.7339 8.7415,6.7318" fill="#ffffff" stroke="#000000" stroke-width="0.02"/>
    <polygon points="6.6647,6.0868 5.9656,6.5015 6.3802,7.2006 7.0793,6.7859" fill="rgba(0,0,0,0.12)" stroke="#000000" stroke-width="0.04"/><circle cx="6.5224" cy="6.6437" r="0.03" fill="#ffffff" stroke="#000000" stroke-width="0.015"/><polygon points="6.2705,6.2189 6.3389,6.2656 6.2786,6.3013" fill="#ffffff" stroke="#000000" stroke-width="0.02"/>
  </g>
  <text x="-0.4" y="-0.15" font-size="0.32" font-family="monospace" fill="white" stroke="black" stroke-width="0.02" paint-order="stroke fill">BASE  swerve-base-medium-dt · sweep_auto</text>
</svg>
