<svg xmlns="http://www.w3.org/2000/svg" viewBox="-0.5 -0.5 17.541 9.0692" width="2631" height="1360">
  <g id="field" transform="scale(1 -1) translate(0 -8.0692)">
        <defs>
            <filter id="dark">
                <feComponentTransfer>
                    <feFuncR type="linear" slope="0.5"></feFuncR>
                    <feFuncG type="linear" slope="0.5"></feFuncG>
                    <feFuncB type="linear" slope="0.5"></feFuncB>
                </feComponentTransfer>
            </filter>
            <circle id="fuel" cx="0.07619999999999999" cy="0.07619999999999999"
                r="0.07505699999999998" fill="#B1902F"></circle>
            <g id="blueRampTrench">
                <rect height="0.3055620000000001" width="1.193852" x="-4.2426200000000005"
                    y="2.450338" fill="currentColor" filter="url(#dark)"></rect>
                <rect x="-4.208718" y="0.5940749999999999" width="0.563024" height="1.856263"
                    fill="currentColor"></rect>
                <rect x="-3.645694" y="0.5940749999999999" width="0.563024" height="1.856263"
                    fill="currentColor"></rect>
                <line x1="-3.645694" y1="0.5940749999999999" x2="-3.645694" y2="2.450338"
                    stroke="black" stroke-width="0.01"></line>
                <line x1="-3.645694" y1="2.7559" x2="-3.645694" y2="4.0346"
                    stroke="currentColor" stroke-width="0.1524"></line>
            </g>
            <g id="blueSide">
                <g transform="translate(7.3561000000000005 4.0600000000000005)">
                    <use href="#fuel" x="0" y="0"></use>
                    <use href="#fuel" x="0" y="0.15239999999999998"></use>
                    <use href="#fuel" x="0" y="0.30479999999999996"></use>
                    <use href="#fuel" x="0" y="0.45719999999999994"></use>
                    <use href="#fuel" x="0" y="0.6095999999999999"></use>
                    <use href="#fuel" x="0" y="0.7619999999999999"></use>
                    <use href="#fuel" x="0" y="0.9143999999999999"></use>
                    <use href="#fuel" x="0" y="1.0667999999999997"></use>
                    <use href="#fuel" x="0" y="1.2191999999999998"></use>
                    <use href="#fuel" x="0" y="1.3716"></use>
                    <use href="#fuel" x="0" y="1.5239999999999998"></use>
                    <use href="#fuel" x="0" y="1.6763999999999997"></use>
                    <use href="#fuel" x="0" y="1.8287999999999998"></use>
                    <use href="#fuel" x="0" y="1.9811999999999999"></use>
                    <use href="#fuel" x="0" y="2.1335999999999995"></use>
                    <use href="#fuel" x="0.15239999999999998" y="0"></use>
                    <use href="#fuel" x="0.15239999999999998" y="0.15239999999999998"></use>
                    <use href="#fuel" x="0.15239999999999998" y="0.30479999999999996"></use>
                    <use href="#fuel" x="0.15239999999999998" y="0.45719999999999994"></use>
                    <use href="#fuel" x="0.15239999999999998" y="0.6095999999999999"></use>
                    <use href="#fuel" x="0.15239999999999998" y="0.7619999999999999"></use>
                    <use href="#fuel" x="0.15239999999999998" y="0.9143999999999999"></use>
                    <use href="#fuel" x="0.15239999999999998" y="1.0667999999999997"></use>
                    <use href="#fuel" x="0.15239999999999998" y="1.2191999999999998"></use>
                    <use href="#fuel" x="0.15239999999999998" y="1.3716"></use>
                    <use href="#fuel" x="0.15239999999999998" y="1.5239999999999998"></use>
                    <use href="#fuel" x="0.15239999999999998" y="1.6763999999999997"></use>
                    <use href="#fuel" x="0.15239999999999998" y="1.8287999999999998"></use>
                    <use href="#fuel" x="0.15239999999999998" y="1.9811999999999999"></use>
                    <use href="#fuel" x="0.15239999999999998" y="2.1335999999999995"></use>
                    <use href="#fuel" x="0.30479999999999996" y="0"></use>
                    <use href="#fuel" x="0.30479999999999996" y="0.15239999999999998"></use>
                    <use href="#fuel" x="0.30479999999999996" y="0.30479999999999996"></use>
                    <use href="#fuel" x="0.30479999999999996" y="0.45719999999999994"></use>
                    <use href="#fuel" x="0.30479999999999996" y="0.6095999999999999"></use>
                    <use href="#fuel" x="0.30479999999999996" y="0.7619999999999999"></use>
                    <use href="#fuel" x="0.30479999999999996" y="0.9143999999999999"></use>
                    <use href="#fuel" x="0.30479999999999996" y="1.0667999999999997"></use>
                    <use href="#fuel" x="0.30479999999999996" y="1.2191999999999998"></use>
                    <use href="#fuel" x="0.30479999999999996" y="1.3716"></use>
                    <use href="#fuel" x="0.30479999999999996" y="1.5239999999999998"></use>
                    <use href="#fuel" x="0.30479999999999996" y="1.6763999999999997"></use>
                    <use href="#fuel" x="0.30479999999999996" y="1.8287999999999998"></use>
                    <use href="#fuel" x="0.30479999999999996" y="1.9811999999999999"></use>
                    <use href="#fuel" x="0.30479999999999996" y="2.1335999999999995"></use>
                    <use href="#fuel" x="0.45719999999999994" y="0"></use>
                    <use href="#fuel" x="0.45719999999999994" y="0.15239999999999998"></use>
                    <use href="#fuel" x="0.45719999999999994" y="0.30479999999999996"></use>
                    <use href="#fuel" x="0.45719999999999994" y="0.45719999999999994"></use>
                    <use href="#fuel" x="0.45719999999999994" y="0.6095999999999999"></use>
                    <use href="#fuel" x="0.45719999999999994" y="0.7619999999999999"></use>
                    <use href="#fuel" x="0.45719999999999994" y="0.9143999999999999"></use>
                    <use href="#fuel" x="0.45719999999999994" y="1.0667999999999997"></use>
                    <use href="#fuel" x="0.45719999999999994" y="1.2191999999999998"></use>
                    <use href="#fuel" x="0.45719999999999994" y="1.3716"></use>
                    <use href="#fuel" x="0.45719999999999994" y="1.5239999999999998"></use>
                    <use href="#fuel" x="0.45719999999999994" y="1.6763999999999997"></use>
                    <use href="#fuel" x="0.45719999999999994" y="1.8287999999999998"></use>
                    <use href="#fuel" x="0.45719999999999994" y="1.9811999999999999"></use>
                    <use href="#fuel" x="0.45719999999999994" y="2.1335999999999995"></use>
                    <use href="#fuel" x="0.6095999999999999" y="0"></use>
                    <use href="#fuel" x="0.6095999999999999" y="0.15239999999999998"></use>
                    <use href="#fuel" x="0.6095999999999999" y="0.30479999999999996"></use>
                    <use href="#fuel" x="0.6095999999999999" y="0.45719999999999994"></use>
                    <use href="#fuel" x="0.6095999999999999" y="0.6095999999999999"></use>
                    <use href="#fuel" x="0.6095999999999999" y="0.7619999999999999"></use>
                    <use href="#fuel" x="0.6095999999999999" y="0.9143999999999999"></use>
                    <use href="#fuel" x="0.6095999999999999" y="1.0667999999999997"></use>
                    <use href="#fuel" x="0.6095999999999999" y="1.2191999999999998"></use>
                    <use href="#fuel" x="0.6095999999999999" y="1.3716"></use>
                    <use href="#fuel" x="0.6095999999999999" y="1.5239999999999998"></use>
                    <use href="#fuel" x="0.6095999999999999" y="1.6763999999999997"></use>
                    <use href="#fuel" x="0.6095999999999999" y="1.8287999999999998"></use>
                    <use href="#fuel" x="0.6095999999999999" y="1.9811999999999999"></use>
                    <use href="#fuel" x="0.6095999999999999" y="2.1335999999999995"></use>
                    <use href="#fuel" x="0.7619999999999999" y="0"></use>
                    <use href="#fuel" x="0.7619999999999999" y="0.15239999999999998"></use>
                    <use href="#fuel" x="0.7619999999999999" y="0.30479999999999996"></use>
                    <use href="#fuel" x="0.7619999999999999" y="0.45719999999999994"></use>
                    <use href="#fuel" x="0.7619999999999999" y="0.6095999999999999"></use>
                    <use href="#fuel" x="0.7619999999999999" y="0.7619999999999999"></use>
                    <use href="#fuel" x="0.7619999999999999" y="0.9143999999999999"></use>
                    <use href="#fuel" x="0.7619999999999999" y="1.0667999999999997"></use>
                    <use href="#fuel" x="0.7619999999999999" y="1.2191999999999998"></use>
                    <use href="#fuel" x="0.7619999999999999" y="1.3716"></use>
                    <use href="#fuel" x="0.7619999999999999" y="1.5239999999999998"></use>
                    <use href="#fuel" x="0.7619999999999999" y="1.6763999999999997"></use>
                    <use href="#fuel" x="0.7619999999999999" y="1.8287999999999998"></use>
                    <use href="#fuel" x="0.7619999999999999" y="1.9811999999999999"></use>
                    <use href="#fuel" x="0.7619999999999999" y="2.1335999999999995"></use>
                    <use href="#fuel" x="0.9143999999999999" y="0"></use>
                    <use href="#fuel" x="0.9143999999999999" y="0.15239999999999998"></use>
                    <use href="#fuel" x="0.9143999999999999" y="0.30479999999999996"></use>
                    <use href="#fuel" x="0.9143999999999999" y="0.45719999999999994"></use>
                    <use href="#fuel" x="0.9143999999999999" y="0.6095999999999999"></use>
                    <use href="#fuel" x="0.9143999999999999" y="0.7619999999999999"></use>
                    <use href="#fuel" x="0.9143999999999999" y="0.9143999999999999"></use>
                    <use href="#fuel" x="0.9143999999999999" y="1.0667999999999997"></use>
                    <use href="#fuel" x="0.9143999999999999" y="1.2191999999999998"></use>
                    <use href="#fuel" x="0.9143999999999999" y="1.3716"></use>
                    <use href="#fuel" x="0.9143999999999999" y="1.5239999999999998"></use>
                    <use href="#fuel" x="0.9143999999999999" y="1.6763999999999997"></use>
                    <use href="#fuel" x="0.9143999999999999" y="1.8287999999999998"></use>
                    <use href="#fuel" x="0.9143999999999999" y="1.9811999999999999"></use>
                    <use href="#fuel" x="0.9143999999999999" y="2.1335999999999995"></use>
                    <use href="#fuel" x="1.0667999999999997" y="0"></use>
                    <use href="#fuel" x="1.0667999999999997" y="0.15239999999999998"></use>
                    <use href="#fuel" x="1.0667999999999997" y="0.30479999999999996"></use>
                    <use href="#fuel" x="1.0667999999999997" y="0.45719999999999994"></use>
                    <use href="#fuel" x="1.0667999999999997" y="0.6095999999999999"></use>
                    <use href="#fuel" x="1.0667999999999997" y="0.7619999999999999"></use>
                    <use href="#fuel" x="1.0667999999999997" y="0.9143999999999999"></use>
                    <use href="#fuel" x="1.0667999999999997" y="1.0667999999999997"></use>
                    <use href="#fuel" x="1.0667999999999997" y="1.2191999999999998"></use>
                    <use href="#fuel" x="1.0667999999999997" y="1.3716"></use>
                    <use href="#fuel" x="1.0667999999999997" y="1.5239999999999998"></use>
                    <use href="#fuel" x="1.0667999999999997" y="1.6763999999999997"></use>
                    <use href="#fuel" x="1.0667999999999997" y="1.8287999999999998"></use>
                    <use href="#fuel" x="1.0667999999999997" y="1.9811999999999999"></use>
                    <use href="#fuel" x="1.0667999999999997" y="2.1335999999999995"></use>
                    <use href="#fuel" x="1.2191999999999998" y="0"></use>
                    <use href="#fuel" x="1.2191999999999998" y="0.15239999999999998"></use>
                    <use href="#fuel" x="1.2191999999999998" y="0.30479999999999996"></use>
                    <use href="#fuel" x="1.2191999999999998" y="0.45719999999999994"></use>
                    <use href="#fuel" x="1.2191999999999998" y="0.6095999999999999"></use>
                    <use href="#fuel" x="1.2191999999999998" y="0.7619999999999999"></use>
                    <use href="#fuel" x="1.2191999999999998" y="0.9143999999999999"></use>
                    <use href="#fuel" x="1.2191999999999998" y="1.0667999999999997"></use>
                    <use href="#fuel" x="1.2191999999999998" y="1.2191999999999998"></use>
                    <use href="#fuel" x="1.2191999999999998" y="1.3716"></use>
                    <use href="#fuel" x="1.2191999999999998" y="1.5239999999999998"></use>
                    <use href="#fuel" x="1.2191999999999998" y="1.6763999999999997"></use>
                    <use href="#fuel" x="1.2191999999999998" y="1.8287999999999998"></use>
                    <use href="#fuel" x="1.2191999999999998" y="1.9811999999999999"></use>
                    <use href="#fuel" x="1.2191999999999998" y="2.1335999999999995"></use>
                    <use href="#fuel" x="1.3716" y="0"></use>
                    <use href="#fuel" x="1.3716" y="0.15239999999999998"></use>
                    <use href="#fuel" x="1.3716" y="0.30479999999999996"></use>
                    <use href="#fuel" x="1.3716" y="0.45719999999999994"></use>
                    <use href="#fuel" x="1.3716" y="0.6095999999999999"></use>
                    <use href="#fuel" x="1.3716" y="0.7619999999999999"></use>
                    <use href="#fuel" x="1.3716" y="0.9143999999999999"></use>
                    <use href="#fuel" x="1.3716" y="1.0667999999999997"></use>
                    <use href="#fuel" x="1.3716" y="1.2191999999999998"></use>
                    <use href="#fuel" x="1.3716" y="1.3716"></use>
                    <use href="#fuel" x="1.3716" y="1.5239999999999998"></use>
                    <use href="#fuel" x="1.3716" y="1.6763999999999997"></use>
                    <use href="#fuel" x="1.3716" y="1.8287999999999998"></use>
                    <use href="#fuel" x="1.3716" y="1.9811999999999999"></use>
                    <use href="#fuel" x="1.3716" y="2.1335999999999995"></use>
                    <use href="#fuel" x="1.5239999999999998" y="0"></use>
                    <use href="#fuel" x="1.5239999999999998" y="0.15239999999999998"></use>
                    <use href="#fuel" x="1.5239999999999998" y="0.30479999999999996"></use>
                    <use href="#fuel" x="1.5239999999999998" y="0.45719999999999994"></use>
                    <use href="#fuel" x="1.5239999999999998" y="0.6095999999999999"></use>
                    <use href="#fuel" x="1.5239999999999998" y="0.7619999999999999"></use>
                    <use href="#fuel" x="1.5239999999999998" y="0.9143999999999999"></use>
                    <use href="#fuel" x="1.5239999999999998" y="1.0667999999999997"></use>
                    <use href="#fuel" x="1.5239999999999998" y="1.2191999999999998"></use>
                    <use href="#fuel" x="1.5239999999999998" y="1.3716"></use>
                    <use href="#fuel" x="1.5239999999999998" y="1.5239999999999998"></use>
                    <use href="#fuel" x="1.5239999999999998" y="1.6763999999999997"></use>
                    <use href="#fuel" x="1.5239999999999998" y="1.8287999999999998"></use>
                    <use href="#fuel" x="1.5239999999999998" y="1.9811999999999999"></use>
                    <use href="#fuel" x="1.5239999999999998" y="2.1335999999999995"></use>
                    <use href="#fuel" x="1.6763999999999997" y="0"></use>
                    <use href="#fuel" x="1.6763999999999997" y="0.15239999999999998"></use>
                    <use href="#fuel" x="1.6763999999999997" y="0.30479999999999996"></use>
                    <use href="#fuel" x="1.6763999999999997" y="0.45719999999999994"></use>
                    <use href="#fuel" x="1.6763999999999997" y="0.6095999999999999"></use>
                    <use href="#fuel" x="1.6763999999999997" y="0.7619999999999999"></use>
                    <use href="#fuel" x="1.6763999999999997" y="0.9143999999999999"></use>
                    <use href="#fuel" x="1.6763999999999997" y="1.0667999999999997"></use>
                    <use href="#fuel" x="1.6763999999999997" y="1.2191999999999998"></use>
                    <use href="#fuel" x="1.6763999999999997" y="1.3716"></use>
                    <use href="#fuel" x="1.6763999999999997" y="1.5239999999999998"></use>
                    <use href="#fuel" x="1.6763999999999997" y="1.6763999999999997"></use>
                    <use href="#fuel" x="1.6763999999999997" y="1.8287999999999998"></use>
                    <use href="#fuel" x="1.6763999999999997" y="1.9811999999999999"></use>
                    <use href="#fuel" x="1.6763999999999997" y="2.1335999999999995"></use>
                </g>
                <line x1="4.003326" x2="4.003326" y1="0" y2="8.0692" stroke="currentColor"
                    stroke-width="0.0508"></line>
                <g>
                    <rect x="0" y="5.431631" width="0.609" height="0.0762" fill="currentColor"></rect>
                    <rect x="0" y="6.422231" width="0.609" height="0.0762" fill="currentColor"></rect>
                    <rect x="0.609" y="5.431631" width="0.0762" height="1.0668"
                        fill="currentColor"></rect>
                    <g transform="translate(0 5.507831)">
                        <use href="#fuel" x="0" y="0"></use>
                        <use href="#fuel" x="0" y="0.15239999999999998"></use>
                        <use href="#fuel" x="0" y="0.30479999999999996"></use>
                        <use href="#fuel" x="0" y="0.45719999999999994"></use>
                        <use href="#fuel" x="0" y="0.6095999999999999"></use>
                        <use href="#fuel" x="0" y="0.7619999999999999"></use>
                        <use href="#fuel" x="0.15239999999999998" y="0"></use>
                        <use href="#fuel" x="0.15239999999999998" y="0.15239999999999998"></use>
                        <use href="#fuel" x="0.15239999999999998" y="0.30479999999999996"></use>
                        <use href="#fuel" x="0.15239999999999998" y="0.45719999999999994"></use>
                        <use href="#fuel" x="0.15239999999999998" y="0.6095999999999999"></use>
                        <use href="#fuel" x="0.15239999999999998" y="0.7619999999999999"></use>
                        <use href="#fuel" x="0.30479999999999996" y="0"></use>
                        <use href="#fuel" x="0.30479999999999996" y="0.15239999999999998"></use>
                        <use href="#fuel" x="0.30479999999999996" y="0.30479999999999996"></use>
                        <use href="#fuel" x="0.30479999999999996" y="0.45719999999999994"></use>
                        <use href="#fuel" x="0.30479999999999996" y="0.6095999999999999"></use>
                        <use href="#fuel" x="0.30479999999999996" y="0.7619999999999999"></use>
                        <use href="#fuel" x="0.45719999999999994" y="0"></use>
                        <use href="#fuel" x="0.45719999999999994" y="0.15239999999999998"></use>
                        <use href="#fuel" x="0.45719999999999994" y="0.30479999999999996"></use>
                        <use href="#fuel" x="0.45719999999999994" y="0.45719999999999994"></use>
                        <use href="#fuel" x="0.45719999999999994" y="0.6095999999999999"></use>
                        <use href="#fuel" x="0.45719999999999994" y="0.7619999999999999"></use>
                    </g>
                </g>
                <g transform="translate(8.2705 4.0346)">
                    <use href="#blueRampTrench"></use>
                    <g transform="scale(1 -1)">
                        <use href="#blueRampTrench"></use>
                    </g>
                    <rect x="-4.24215" y="-0.5969" width="1.1945589999999995" height="1.1938"
                        fill="currentColor" filter="url(#dark)"></rect>
                    <polygon
                        points="-3.033074,0 -3.340112,-0.527908 -3.949688,-0.527908 -4.254476,0 -3.949688,0.527908 -3.340112,0.527908"
                        stroke="gray" fill="transparent" stroke-width="0.0254"></polygon>
                    <circle r="0.2" stroke="gray" stroke-width="0.02" fill="transparent"
                        cx="-3.645694" cy="0"></circle>
                    <circle r="0.1" stroke="gray" stroke-width="0.02" fill="transparent"
                        cx="-3.645694" cy="0"></circle>
                    <rect x="-8.271493" y="-0.784225" width="1.1455549999999999"
                        height="0.9905999999999999" fill="black"></rect>
                    <line x1="-7.208488" y1="-0.885825" x2="-7.208488" y2="0.307975"
                        stroke="currentColor" stroke-width="0.042164"></line>
                    <rect x="-7.252938" y="0.12065000000000001" height="0.0381" width="0.0889"
                        fill="currentColor"></rect>
                    <rect x="-7.252938" y="-0.7366" height="0.0381" width="0.0889"
                        fill="currentColor"></rect>
                </g>
                <line x1="0" y1="0.259556" x2="-0.2" y2="0.259556" stroke="white"
                    stroke-width="0.0254"></line>
                <line x1="0" y1="1.072356" x2="-0.2" y2="1.072356" stroke="white"
                    stroke-width="0.0254"></line>
                <g transform="translate(-0.15239999999999998 0.285)">
                    <use href="#fuel" x="0" y="0"></use>
                    <use href="#fuel" x="0" y="0.15239999999999998"></use>
                    <use href="#fuel" x="0" y="0.30479999999999996"></use>
                    <use href="#fuel" x="0" y="0.45719999999999994"></use>
                    <use href="#fuel" x="0" y="0.6095999999999999"></use>
                </g>
            </g>
        </defs>
        <g id="tape">
            <line id="centerline" x1="8.2705" x2="8.2705" y1="0" y2="8.0692" stroke="white"
                stroke-width="0.0508"></line>
            <line id="midline" x1="0" x2="16.541" y1="4.0346" y2="4.0346" stroke="black"
                stroke-width="0.1016"></line>
        </g>
        <use x="0" y="0" width="16.541" height="8.0692" href="#blueSide" color="#1c1c99ff"></use>
        <g id="redSide" transform="translate(16.541 8.0692) rotate(180)">
            <use x="0" y="0" width="16.541" height="8.0692" href="#blueSide" color="#9e2323ff"></use>
        </g>
        <rect id="wall" x="-0.0254" y="-0.0254" width="16.5918" height="8.120000000000001"
            stroke="white" stroke-width="0.0508" fill="transparent"></rect>

    </g>
  <g transform="scale(1 -1) translate(0 -8.0692)">
    <line x1="4.4284" y1="0.5944" x2="4.4643" y2="0.5881" stroke="hsl(135.93, 100%, 50%)" stroke-width="0.05"/>
    <line x1="4.4643" y1="0.5881" x2="4.5660" y2="0.5707" stroke="hsl(114.04, 100%, 50%)" stroke-width="0.05"/>
    <line x1="4.5660" y1="0.5707" x2="4.7232" y2="0.5447" stroke="hsl(95.47, 100%, 50%)" stroke-width="0.05"/>
    <line x1="4.7232" y1="0.5447" x2="4.9276" y2="0.5120" stroke="hsl(82.74, 100%, 50%)" stroke-width="0.05"/>
    <line x1="4.9276" y1="0.5120" x2="5.1734" y2="0.4738" stroke="hsl(73.17, 100%, 50%)" stroke-width="0.05"/>
    <line x1="5.1734" y1="0.4738" x2="5.4539" y2="0.4319" stroke="hsl(57.47, 100%, 50%)" stroke-width="0.05"/>
    <line x1="5.4539" y1="0.4319" x2="5.7618" y2="0.3884" stroke="hsl(45.14, 100%, 50%)" stroke-width="0.05"/>
    <line x1="5.7618" y1="0.3884" x2="6.0901" y2="0.3457" stroke="hsl(31.49, 100%, 50%)" stroke-width="0.05"/>
    <line x1="6.0901" y1="0.3457" x2="6.4319" y2="0.3061" stroke="hsl(20.85, 100%, 50%)" stroke-width="0.05"/>
    <line x1="6.4319" y1="0.3061" x2="6.7799" y2="0.2750" stroke="hsl(23.85, 100%, 50%)" stroke-width="0.05"/>
    <line x1="6.7799" y1="0.2750" x2="7.1290" y2="0.2571" stroke="hsl(25.79, 100%, 50%)" stroke-width="0.05"/>
    <line x1="7.1290" y1="0.2571" x2="7.4783" y2="0.2530" stroke="hsl(25.88, 100%, 50%)" stroke-width="0.05"/>
    <line x1="7.4783" y1="0.2530" x2="7.8206" y2="0.2693" stroke="hsl(56.70, 100%, 50%)" stroke-width="0.05"/>
    <line x1="7.8206" y1="0.2693" x2="8.1510" y2="0.3129" stroke="hsl(55.39, 100%, 50%)" stroke-width="0.05"/>
    <line x1="8.1510" y1="0.3129" x2="8.4419" y2="0.3998" stroke="hsl(169.15, 100%, 50%)" stroke-width="0.05"/>
    <line x1="8.4419" y1="0.3998" x2="8.6552" y2="0.5362" stroke="hsl(177.94, 100%, 50%)" stroke-width="0.05"/>
    <line x1="8.6552" y1="0.5362" x2="8.8341" y2="0.7613" stroke="hsl(104.93, 100%, 50%)" stroke-width="0.05"/>
    <line x1="8.8341" y1="0.7613" x2="8.9500" y2="1.0321" stroke="hsl(73.81, 100%, 50%)" stroke-width="0.05"/>
    <line x1="8.9500" y1="1.0321" x2="9.0357" y2="1.3521" stroke="hsl(65.58, 100%, 50%)" stroke-width="0.05"/>
    <line x1="9.0357" y1="1.3521" x2="9.1089" y2="1.7247" stroke="hsl(58.18, 100%, 50%)" stroke-width="0.05"/>
    <line x1="9.1089" y1="1.7247" x2="9.1664" y2="2.1369" stroke="hsl(40.06, 100%, 50%)" stroke-width="0.05"/>
    <line x1="9.1664" y1="2.1369" x2="9.2039" y2="2.5698" stroke="hsl(28.52, 100%, 50%)" stroke-width="0.05"/>
    <line x1="9.2039" y1="2.5698" x2="9.2263" y2="3.0140" stroke="hsl(15.99, 100%, 50%)" stroke-width="0.05"/>
    <line x1="9.2263" y1="3.0140" x2="9.2388" y2="3.4654" stroke="hsl(14.33, 100%, 50%)" stroke-width="0.05"/>
    <line x1="9.2388" y1="3.4654" x2="9.2391" y2="3.9189" stroke="hsl(14.12, 100%, 50%)" stroke-width="0.05"/>
    <line x1="9.2391" y1="3.9189" x2="9.2270" y2="4.3731" stroke="hsl(14.11, 100%, 50%)" stroke-width="0.05"/>
    <line x1="9.2270" y1="4.3731" x2="9.2019" y2="4.8266" stroke="hsl(15.80, 100%, 50%)" stroke-width="0.05"/>
    <line x1="9.2019" y1="4.8266" x2="9.1593" y2="5.2756" stroke="hsl(25.81, 100%, 50%)" stroke-width="0.05"/>
    <line x1="9.1593" y1="5.2756" x2="9.0723" y2="5.6967" stroke="hsl(94.98, 100%, 50%)" stroke-width="0.05"/>
    <line x1="9.0723" y1="5.6967" x2="8.9154" y2="6.0474" stroke="hsl(134.26, 100%, 50%)" stroke-width="0.05"/>
    <line x1="8.9154" y1="6.0474" x2="8.6940" y2="6.3141" stroke="hsl(108.10, 100%, 50%)" stroke-width="0.05"/>
    <line x1="8.6940" y1="6.3141" x2="8.5290" y2="6.4410" stroke="hsl(108.10, 100%, 50%)" stroke-width="0.05"/>
    <line x1="8.5290" y1="6.4410" x2="8.3481" y2="6.5353" stroke="hsl(105.16, 100%, 50%)" stroke-width="0.05"/>
    <line x1="8.3481" y1="6.5353" x2="8.1556" y2="6.6045" stroke="hsl(57.62, 100%, 50%)" stroke-width="0.05"/>
    <line x1="8.1556" y1="6.6045" x2="7.9547" y2="6.6558" stroke="hsl(58.95, 100%, 50%)" stroke-width="0.05"/>
    <line x1="7.9547" y1="6.6558" x2="7.7473" y2="6.6880" stroke="hsl(59.59, 100%, 50%)" stroke-width="0.05"/>
    <line x1="7.7473" y1="6.6880" x2="7.5346" y2="6.7007" stroke="hsl(59.73, 100%, 50%)" stroke-width="0.05"/>
    <line x1="7.5346" y1="6.7007" x2="7.3148" y2="6.7004" stroke="hsl(32.35, 100%, 50%)" stroke-width="0.05"/>
    <line x1="7.3148" y1="6.7004" x2="7.0883" y2="6.6967" stroke="hsl(13.25, 100%, 50%)" stroke-width="0.05"/>
    <line x1="7.0883" y1="6.6967" x2="6.8790" y2="6.6890" stroke="hsl(116.06, 100%, 50%)" stroke-width="0.05"/>
    <line x1="6.8790" y1="6.6890" x2="6.7185" y2="6.6734" stroke="hsl(174.29, 100%, 50%)" stroke-width="0.05"/>
    <line x1="6.7185" y1="6.6734" x2="6.6092" y2="6.6561" stroke="hsl(129.30, 100%, 50%)" stroke-width="0.05"/>
    <line x1="6.6092" y1="6.6561" x2="6.5440" y2="6.6463" stroke="hsl(133.39, 100%, 50%)" stroke-width="0.05"/>
    <line x1="6.5440" y1="6.6463" x2="6.5224" y2="6.6437" stroke="hsl(127.24, 100%, 50%)" stroke-width="0.05"/>
    <polygon points="4.8348,1.0008 4.8348,0.1880 4.0221,0.1880 4.0221,1.0008" fill="rgba(0,0,0,0.12)" stroke="#000000" stroke-width="0.04"/><circle cx="4.4284" cy="0.5944" r="0.03" fill="#ffffff" stroke="#000000" stroke-width="0.015"/><polygon points="4.9223,0.5944 4.8473,0.6294 4.8473,0.5594" fill="#ffffff" stroke="#000000" stroke-width="0.02"/>
    <polygon points="8.2488,0.9426 9.0616,0.9426 9.0616,0.1298 8.2488,0.1298" fill="rgba(0,0,0,0.12)" stroke="#000000" stroke-width="0.04"/><circle cx="8.6552" cy="0.5362" r="0.03" fill="#ffffff" stroke="#000000" stroke-width="0.015"/><polygon points="8.6552,1.0301 8.6202,0.9551 8.6902,0.9551" fill="#ffffff" stroke="#000000" stroke-width="0.02"/>
    <polygon points="8.2999,6.7324 9.1123,6.7082 9.0881,5.8958 8.2756,5.9200" fill="rgba(0,0,0,0.12)" stroke="#000000" stroke-width="0.04"/><circle cx="8.6940" cy="6.3141" r="0.03" fill="#ffffff" stroke="#000000" stroke-width="0.015"/><polygon points="8.7087,6.8078 8.6715,6.7339 8.7415,6.7318" fill="#ffffff" stroke="#000000" stroke-width="0.02"/>
    <polygon points="6.6647,6.0868 5.9656,6.5015 6.3802,7.2006 7.0793,6.7859" fill="rgba(0,0,0,0.12)" stroke="#000000" stroke-width="0.04"/><circle cx="6.5224" cy="6.6437" r="0.03" fill="#ffffff" stroke="#000000" stroke-width="0.015"/><polygon points="6.2705,6.2189 6.3389,6.2656 6.2786,6.3013" fill="#ffffff" stroke="#000000" stroke-width="0.02"/>
  </g>
  <text x="-0.4" y="-0.15" font-size="0.32" font-family="monospace" fill="white" stroke="black" stroke-width="0.02" paint-order="stroke fill">PR  swerve-heavy-high-dt · sweep_auto</text>
</svg>
