<svg xmlns="http://www.w3.org/2000/svg" viewBox="-0.5 -0.5 17.541 9.0692" width="2631" height="1360">
  <g id="field" transform="scale(1 -1) translate(0 -8.0692)">
        <defs>
            <filter id="dark">
                <feComponentTransfer>
                    <feFuncR type="linear" slope="0.5"></feFuncR>
                    <feFuncG type="linear" slope="0.5"></feFuncG>
                    <feFuncB type="linear" slope="0.5"></feFuncB>
                </feComponentTransfer>
            </filter>
            <circle id="fuel" cx="0.07619999999999999" cy="0.07619999999999999"
                r="0.07505699999999998" fill="#B1902F"></circle>
            <g id="blueRampTrench">
                <rect height="0.3055620000000001" width="1.193852" x="-4.2426200000000005"
                    y="2.450338" fill="currentColor" filter="url(#dark)"></rect>
                <rect x="-4.208718" y="0.5940749999999999" width="0.563024" height="1.856263"
                    fill="currentColor"></rect>
                <rect x="-3.645694" y="0.5940749999999999" width="0.563024" height="1.856263"
                    fill="currentColor"></rect>
                <line x1="-3.645694" y1="0.5940749999999999" x2="-3.645694" y2="2.450338"
                    stroke="black" stroke-width="0.01"></line>
                <line x1="-3.645694" y1="2.7559" x2="-3.645694" y2="4.0346"
                    stroke="currentColor" stroke-width="0.1524"></line>
            </g>
            <g id="blueSide">
                <g transform="translate(7.3561000000000005 4.0600000000000005)">
                    <use href="#fuel" x="0" y="0"></use>
                    <use href="#fuel" x="0" y="0.15239999999999998"></use>
                    <use href="#fuel" x="0" y="0.30479999999999996"></use>
                    <use href="#fuel" x="0" y="0.45719999999999994"></use>
                    <use href="#fuel" x="0" y="0.6095999999999999"></use>
                    <use href="#fuel" x="0" y="0.7619999999999999"></use>
                    <use href="#fuel" x="0" y="0.9143999999999999"></use>
                    <use href="#fuel" x="0" y="1.0667999999999997"></use>
                    <use href="#fuel" x="0" y="1.2191999999999998"></use>
                    <use href="#fuel" x="0" y="1.3716"></use>
                    <use href="#fuel" x="0" y="1.5239999999999998"></use>
                    <use href="#fuel" x="0" y="1.6763999999999997"></use>
                    <use href="#fuel" x="0" y="1.8287999999999998"></use>
                    <use href="#fuel" x="0" y="1.9811999999999999"></use>
                    <use href="#fuel" x="0" y="2.1335999999999995"></use>
                    <use href="#fuel" x="0.15239999999999998" y="0"></use>
                    <use href="#fuel" x="0.15239999999999998" y="0.15239999999999998"></use>
                    <use href="#fuel" x="0.15239999999999998" y="0.30479999999999996"></use>
                    <use href="#fuel" x="0.15239999999999998" y="0.45719999999999994"></use>
                    <use href="#fuel" x="0.15239999999999998" y="0.6095999999999999"></use>
                    <use href="#fuel" x="0.15239999999999998" y="0.7619999999999999"></use>
                    <use href="#fuel" x="0.15239999999999998" y="0.9143999999999999"></use>
                    <use href="#fuel" x="0.15239999999999998" y="1.0667999999999997"></use>
                    <use href="#fuel" x="0.15239999999999998" y="1.2191999999999998"></use>
                    <use href="#fuel" x="0.15239999999999998" y="1.3716"></use>
                    <use href="#fuel" x="0.15239999999999998" y="1.5239999999999998"></use>
                    <use href="#fuel" x="0.15239999999999998" y="1.6763999999999997"></use>
                    <use href="#fuel" x="0.15239999999999998" y="1.8287999999999998"></use>
                    <use href="#fuel" x="0.15239999999999998" y="1.9811999999999999"></use>
                    <use href="#fuel" x="0.15239999999999998" y="2.1335999999999995"></use>
                    <use href="#fuel" x="0.30479999999999996" y="0"></use>
                    <use href="#fuel" x="0.30479999999999996" y="0.15239999999999998"></use>
                    <use href="#fuel" x="0.30479999999999996" y="0.30479999999999996"></use>
                    <use href="#fuel" x="0.30479999999999996" y="0.45719999999999994"></use>
                    <use href="#fuel" x="0.30479999999999996" y="0.6095999999999999"></use>
                    <use href="#fuel" x="0.30479999999999996" y="0.7619999999999999"></use>
                    <use href="#fuel" x="0.30479999999999996" y="0.9143999999999999"></use>
                    <use href="#fuel" x="0.30479999999999996" y="1.0667999999999997"></use>
                    <use href="#fuel" x="0.30479999999999996" y="1.2191999999999998"></use>
                    <use href="#fuel" x="0.30479999999999996" y="1.3716"></use>
                    <use href="#fuel" x="0.30479999999999996" y="1.5239999999999998"></use>
                    <use href="#fuel" x="0.30479999999999996" y="1.6763999999999997"></use>
                    <use href="#fuel" x="0.30479999999999996" y="1.8287999999999998"></use>
                    <use href="#fuel" x="0.30479999999999996" y="1.9811999999999999"></use>
                    <use href="#fuel" x="0.30479999999999996" y="2.1335999999999995"></use>
                    <use href="#fuel" x="0.45719999999999994" y="0"></use>
                    <use href="#fuel" x="0.45719999999999994" y="0.15239999999999998"></use>
                    <use href="#fuel" x="0.45719999999999994" y="0.30479999999999996"></use>
                    <use href="#fuel" x="0.45719999999999994" y="0.45719999999999994"></use>
                    <use href="#fuel" x="0.45719999999999994" y="0.6095999999999999"></use>
                    <use href="#fuel" x="0.45719999999999994" y="0.7619999999999999"></use>
                    <use href="#fuel" x="0.45719999999999994" y="0.9143999999999999"></use>
                    <use href="#fuel" x="0.45719999999999994" y="1.0667999999999997"></use>
                    <use href="#fuel" x="0.45719999999999994" y="1.2191999999999998"></use>
                    <use href="#fuel" x="0.45719999999999994" y="1.3716"></use>
                    <use href="#fuel" x="0.45719999999999994" y="1.5239999999999998"></use>
                    <use href="#fuel" x="0.45719999999999994" y="1.6763999999999997"></use>
                    <use href="#fuel" x="0.45719999999999994" y="1.8287999999999998"></use>
                    <use href="#fuel" x="0.45719999999999994" y="1.9811999999999999"></use>
                    <use href="#fuel" x="0.45719999999999994" y="2.1335999999999995"></use>
                    <use href="#fuel" x="0.6095999999999999" y="0"></use>
                    <use href="#fuel" x="0.6095999999999999" y="0.15239999999999998"></use>
                    <use href="#fuel" x="0.6095999999999999" y="0.30479999999999996"></use>
                    <use href="#fuel" x="0.6095999999999999" y="0.45719999999999994"></use>
                    <use href="#fuel" x="0.6095999999999999" y="0.6095999999999999"></use>
                    <use href="#fuel" x="0.6095999999999999" y="0.7619999999999999"></use>
                    <use href="#fuel" x="0.6095999999999999" y="0.9143999999999999"></use>
                    <use href="#fuel" x="0.6095999999999999" y="1.0667999999999997"></use>
                    <use href="#fuel" x="0.6095999999999999" y="1.2191999999999998"></use>
                    <use href="#fuel" x="0.6095999999999999" y="1.3716"></use>
                    <use href="#fuel" x="0.6095999999999999" y="1.5239999999999998"></use>
                    <use href="#fuel" x="0.6095999999999999" y="1.6763999999999997"></use>
                    <use href="#fuel" x="0.6095999999999999" y="1.8287999999999998"></use>
                    <use href="#fuel" x="0.6095999999999999" y="1.9811999999999999"></use>
                    <use href="#fuel" x="0.6095999999999999" y="2.1335999999999995"></use>
                    <use href="#fuel" x="0.7619999999999999" y="0"></use>
                    <use href="#fuel" x="0.7619999999999999" y="0.15239999999999998"></use>
                    <use href="#fuel" x="0.7619999999999999" y="0.30479999999999996"></use>
                    <use href="#fuel" x="0.7619999999999999" y="0.45719999999999994"></use>
                    <use href="#fuel" x="0.7619999999999999" y="0.6095999999999999"></use>
                    <use href="#fuel" x="0.7619999999999999" y="0.7619999999999999"></use>
                    <use href="#fuel" x="0.7619999999999999" y="0.9143999999999999"></use>
                    <use href="#fuel" x="0.7619999999999999" y="1.0667999999999997"></use>
                    <use href="#fuel" x="0.7619999999999999" y="1.2191999999999998"></use>
                    <use href="#fuel" x="0.7619999999999999" y="1.3716"></use>
                    <use href="#fuel" x="0.7619999999999999" y="1.5239999999999998"></use>
                    <use href="#fuel" x="0.7619999999999999" y="1.6763999999999997"></use>
                    <use href="#fuel" x="0.7619999999999999" y="1.8287999999999998"></use>
                    <use href="#fuel" x="0.7619999999999999" y="1.9811999999999999"></use>
                    <use href="#fuel" x="0.7619999999999999" y="2.1335999999999995"></use>
                    <use href="#fuel" x="0.9143999999999999" y="0"></use>
                    <use href="#fuel" x="0.9143999999999999" y="0.15239999999999998"></use>
                    <use href="#fuel" x="0.9143999999999999" y="0.30479999999999996"></use>
                    <use href="#fuel" x="0.9143999999999999" y="0.45719999999999994"></use>
                    <use href="#fuel" x="0.9143999999999999" y="0.6095999999999999"></use>
                    <use href="#fuel" x="0.9143999999999999" y="0.7619999999999999"></use>
                    <use href="#fuel" x="0.9143999999999999" y="0.9143999999999999"></use>
                    <use href="#fuel" x="0.9143999999999999" y="1.0667999999999997"></use>
                    <use href="#fuel" x="0.9143999999999999" y="1.2191999999999998"></use>
                    <use href="#fuel" x="0.9143999999999999" y="1.3716"></use>
                    <use href="#fuel" x="0.9143999999999999" y="1.5239999999999998"></use>
                    <use href="#fuel" x="0.9143999999999999" y="1.6763999999999997"></use>
                    <use href="#fuel" x="0.9143999999999999" y="1.8287999999999998"></use>
                    <use href="#fuel" x="0.9143999999999999" y="1.9811999999999999"></use>
                    <use href="#fuel" x="0.9143999999999999" y="2.1335999999999995"></use>
                    <use href="#fuel" x="1.0667999999999997" y="0"></use>
                    <use href="#fuel" x="1.0667999999999997" y="0.15239999999999998"></use>
                    <use href="#fuel" x="1.0667999999999997" y="0.30479999999999996"></use>
                    <use href="#fuel" x="1.0667999999999997" y="0.45719999999999994"></use>
                    <use href="#fuel" x="1.0667999999999997" y="0.6095999999999999"></use>
                    <use href="#fuel" x="1.0667999999999997" y="0.7619999999999999"></use>
                    <use href="#fuel" x="1.0667999999999997" y="0.9143999999999999"></use>
                    <use href="#fuel" x="1.0667999999999997" y="1.0667999999999997"></use>
                    <use href="#fuel" x="1.0667999999999997" y="1.2191999999999998"></use>
                    <use href="#fuel" x="1.0667999999999997" y="1.3716"></use>
                    <use href="#fuel" x="1.0667999999999997" y="1.5239999999999998"></use>
                    <use href="#fuel" x="1.0667999999999997" y="1.6763999999999997"></use>
                    <use href="#fuel" x="1.0667999999999997" y="1.8287999999999998"></use>
                    <use href="#fuel" x="1.0667999999999997" y="1.9811999999999999"></use>
                    <use href="#fuel" x="1.0667999999999997" y="2.1335999999999995"></use>
                    <use href="#fuel" x="1.2191999999999998" y="0"></use>
                    <use href="#fuel" x="1.2191999999999998" y="0.15239999999999998"></use>
                    <use href="#fuel" x="1.2191999999999998" y="0.30479999999999996"></use>
                    <use href="#fuel" x="1.2191999999999998" y="0.45719999999999994"></use>
                    <use href="#fuel" x="1.2191999999999998" y="0.6095999999999999"></use>
                    <use href="#fuel" x="1.2191999999999998" y="0.7619999999999999"></use>
                    <use href="#fuel" x="1.2191999999999998" y="0.9143999999999999"></use>
                    <use href="#fuel" x="1.2191999999999998" y="1.0667999999999997"></use>
                    <use href="#fuel" x="1.2191999999999998" y="1.2191999999999998"></use>
                    <use href="#fuel" x="1.2191999999999998" y="1.3716"></use>
                    <use href="#fuel" x="1.2191999999999998" y="1.5239999999999998"></use>
                    <use href="#fuel" x="1.2191999999999998" y="1.6763999999999997"></use>
                    <use href="#fuel" x="1.2191999999999998" y="1.8287999999999998"></use>
                    <use href="#fuel" x="1.2191999999999998" y="1.9811999999999999"></use>
                    <use href="#fuel" x="1.2191999999999998" y="2.1335999999999995"></use>
                    <use href="#fuel" x="1.3716" y="0"></use>
                    <use href="#fuel" x="1.3716" y="0.15239999999999998"></use>
                    <use href="#fuel" x="1.3716" y="0.30479999999999996"></use>
                    <use href="#fuel" x="1.3716" y="0.45719999999999994"></use>
                    <use href="#fuel" x="1.3716" y="0.6095999999999999"></use>
                    <use href="#fuel" x="1.3716" y="0.7619999999999999"></use>
                    <use href="#fuel" x="1.3716" y="0.9143999999999999"></use>
                    <use href="#fuel" x="1.3716" y="1.0667999999999997"></use>
                    <use href="#fuel" x="1.3716" y="1.2191999999999998"></use>
                    <use href="#fuel" x="1.3716" y="1.3716"></use>
                    <use href="#fuel" x="1.3716" y="1.5239999999999998"></use>
                    <use href="#fuel" x="1.3716" y="1.6763999999999997"></use>
                    <use href="#fuel" x="1.3716" y="1.8287999999999998"></use>
                    <use href="#fuel" x="1.3716" y="1.9811999999999999"></use>
                    <use href="#fuel" x="1.3716" y="2.1335999999999995"></use>
                    <use href="#fuel" x="1.5239999999999998" y="0"></use>
                    <use href="#fuel" x="1.5239999999999998" y="0.15239999999999998"></use>
                    <use href="#fuel" x="1.5239999999999998" y="0.30479999999999996"></use>
                    <use href="#fuel" x="1.5239999999999998" y="0.45719999999999994"></use>
                    <use href="#fuel" x="1.5239999999999998" y="0.6095999999999999"></use>
                    <use href="#fuel" x="1.5239999999999998" y="0.7619999999999999"></use>
                    <use href="#fuel" x="1.5239999999999998" y="0.9143999999999999"></use>
                    <use href="#fuel" x="1.5239999999999998" y="1.0667999999999997"></use>
                    <use href="#fuel" x="1.5239999999999998" y="1.2191999999999998"></use>
                    <use href="#fuel" x="1.5239999999999998" y="1.3716"></use>
                    <use href="#fuel" x="1.5239999999999998" y="1.5239999999999998"></use>
                    <use href="#fuel" x="1.5239999999999998" y="1.6763999999999997"></use>
                    <use href="#fuel" x="1.5239999999999998" y="1.8287999999999998"></use>
                    <use href="#fuel" x="1.5239999999999998" y="1.9811999999999999"></use>
                    <use href="#fuel" x="1.5239999999999998" y="2.1335999999999995"></use>
                    <use href="#fuel" x="1.6763999999999997" y="0"></use>
                    <use href="#fuel" x="1.6763999999999997" y="0.15239999999999998"></use>
                    <use href="#fuel" x="1.6763999999999997" y="0.30479999999999996"></use>
                    <use href="#fuel" x="1.6763999999999997" y="0.45719999999999994"></use>
                    <use href="#fuel" x="1.6763999999999997" y="0.6095999999999999"></use>
                    <use href="#fuel" x="1.6763999999999997" y="0.7619999999999999"></use>
                    <use href="#fuel" x="1.6763999999999997" y="0.9143999999999999"></use>
                    <use href="#fuel" x="1.6763999999999997" y="1.0667999999999997"></use>
                    <use href="#fuel" x="1.6763999999999997" y="1.2191999999999998"></use>
                    <use href="#fuel" x="1.6763999999999997" y="1.3716"></use>
                    <use href="#fuel" x="1.6763999999999997" y="1.5239999999999998"></use>
                    <use href="#fuel" x="1.6763999999999997" y="1.6763999999999997"></use>
                    <use href="#fuel" x="1.6763999999999997" y="1.8287999999999998"></use>
                    <use href="#fuel" x="1.6763999999999997" y="1.9811999999999999"></use>
                    <use href="#fuel" x="1.6763999999999997" y="2.1335999999999995"></use>
                </g>
                <line x1="4.003326" x2="4.003326" y1="0" y2="8.0692" stroke="currentColor"
                    stroke-width="0.0508"></line>
                <g>
                    <rect x="0" y="5.431631" width="0.609" height="0.0762" fill="currentColor"></rect>
                    <rect x="0" y="6.422231" width="0.609" height="0.0762" fill="currentColor"></rect>
                    <rect x="0.609" y="5.431631" width="0.0762" height="1.0668"
                        fill="currentColor"></rect>
                    <g transform="translate(0 5.507831)">
                        <use href="#fuel" x="0" y="0"></use>
                        <use href="#fuel" x="0" y="0.15239999999999998"></use>
                        <use href="#fuel" x="0" y="0.30479999999999996"></use>
                        <use href="#fuel" x="0" y="0.45719999999999994"></use>
                        <use href="#fuel" x="0" y="0.6095999999999999"></use>
                        <use href="#fuel" x="0" y="0.7619999999999999"></use>
                        <use href="#fuel" x="0.15239999999999998" y="0"></use>
                        <use href="#fuel" x="0.15239999999999998" y="0.15239999999999998"></use>
                        <use href="#fuel" x="0.15239999999999998" y="0.30479999999999996"></use>
                        <use href="#fuel" x="0.15239999999999998" y="0.45719999999999994"></use>
                        <use href="#fuel" x="0.15239999999999998" y="0.6095999999999999"></use>
                        <use href="#fuel" x="0.15239999999999998" y="0.7619999999999999"></use>
                        <use href="#fuel" x="0.30479999999999996" y="0"></use>
                        <use href="#fuel" x="0.30479999999999996" y="0.15239999999999998"></use>
                        <use href="#fuel" x="0.30479999999999996" y="0.30479999999999996"></use>
                        <use href="#fuel" x="0.30479999999999996" y="0.45719999999999994"></use>
                        <use href="#fuel" x="0.30479999999999996" y="0.6095999999999999"></use>
                        <use href="#fuel" x="0.30479999999999996" y="0.7619999999999999"></use>
                        <use href="#fuel" x="0.45719999999999994" y="0"></use>
                        <use href="#fuel" x="0.45719999999999994" y="0.15239999999999998"></use>
                        <use href="#fuel" x="0.45719999999999994" y="0.30479999999999996"></use>
                        <use href="#fuel" x="0.45719999999999994" y="0.45719999999999994"></use>
                        <use href="#fuel" x="0.45719999999999994" y="0.6095999999999999"></use>
                        <use href="#fuel" x="0.45719999999999994" y="0.7619999999999999"></use>
                    </g>
                </g>
                <g transform="translate(8.2705 4.0346)">
                    <use href="#blueRampTrench"></use>
                    <g transform="scale(1 -1)">
                        <use href="#blueRampTrench"></use>
                    </g>
                    <rect x="-4.24215" y="-0.5969" width="1.1945589999999995" height="1.1938"
                        fill="currentColor" filter="url(#dark)"></rect>
                    <polygon
                        points="-3.033074,0 -3.340112,-0.527908 -3.949688,-0.527908 -4.254476,0 -3.949688,0.527908 -3.340112,0.527908"
                        stroke="gray" fill="transparent" stroke-width="0.0254"></polygon>
                    <circle r="0.2" stroke="gray" stroke-width="0.02" fill="transparent"
                        cx="-3.645694" cy="0"></circle>
                    <circle r="0.1" stroke="gray" stroke-width="0.02" fill="transparent"
                        cx="-3.645694" cy="0"></circle>
                    <rect x="-8.271493" y="-0.784225" width="1.1455549999999999"
                        height="0.9905999999999999" fill="black"></rect>
                    <line x1="-7.208488" y1="-0.885825" x2="-7.208488" y2="0.307975"
                        stroke="currentColor" stroke-width="0.042164"></line>
                    <rect x="-7.252938" y="0.12065000000000001" height="0.0381" width="0.0889"
                        fill="currentColor"></rect>
                    <rect x="-7.252938" y="-0.7366" height="0.0381" width="0.0889"
                        fill="currentColor"></rect>
                </g>
                <line x1="0" y1="0.259556" x2="-0.2" y2="0.259556" stroke="white"
                    stroke-width="0.0254"></line>
                <line x1="0" y1="1.072356" x2="-0.2" y2="1.072356" stroke="white"
                    stroke-width="0.0254"></line>
                <g transform="translate(-0.15239999999999998 0.285)">
                    <use href="#fuel" x="0" y="0"></use>
                    <use href="#fuel" x="0" y="0.15239999999999998"></use>
                    <use href="#fuel" x="0" y="0.30479999999999996"></use>
                    <use href="#fuel" x="0" y="0.45719999999999994"></use>
                    <use href="#fuel" x="0" y="0.6095999999999999"></use>
                </g>
            </g>
        </defs>
        <g id="tape">
            <line id="centerline" x1="8.2705" x2="8.2705" y1="0" y2="8.0692" stroke="white"
                stroke-width="0.0508"></line>
            <line id="midline" x1="0" x2="16.541" y1="4.0346" y2="4.0346" stroke="black"
                stroke-width="0.1016"></line>
        </g>
        <use x="0" y="0" width="16.541" height="8.0692" href="#blueSide" color="#1c1c99ff"></use>
        <g id="redSide" transform="translate(16.541 8.0692) rotate(180)">
            <use x="0" y="0" width="16.541" height="8.0692" href="#blueSide" color="#9e2323ff"></use>
        </g>
        <rect id="wall" x="-0.0254" y="-0.0254" width="16.5918" height="8.120000000000001"
            stroke="white" stroke-width="0.0508" fill="transparent"></rect>

    </g>
  <g transform="scale(1 -1) translate(0 -8.0692)">
    <line x1="0.4247" y1="1.3700" x2="0.4997" y2="1.3681" stroke="hsl(191.36, 100%, 50%)" stroke-width="0.05"/>
    <line x1="0.4997" y1="1.3681" x2="0.7077" y2="1.3630" stroke="hsl(147.26, 100%, 50%)" stroke-width="0.05"/>
    <line x1="0.7077" y1="1.3630" x2="1.0144" y2="1.3554" stroke="hsl(104.62, 100%, 50%)" stroke-width="0.05"/>
    <line x1="1.0144" y1="1.3554" x2="1.3941" y2="1.3462" stroke="hsl(81.21, 100%, 50%)" stroke-width="0.05"/>
    <line x1="1.3941" y1="1.3462" x2="1.8144" y2="1.3365" stroke="hsl(22.17, 100%, 50%)" stroke-width="0.05"/>
    <line x1="1.8144" y1="1.3365" x2="2.2479" y2="1.3262" stroke="hsl(11.66, 100%, 50%)" stroke-width="0.05"/>
    <line x1="2.2479" y1="1.3262" x2="2.6860" y2="1.3152" stroke="hsl(0.38, 100%, 50%)" stroke-width="0.05"/>
    <line x1="2.6860" y1="1.3152" x2="3.1247" y2="1.3041" stroke="hsl(1.52, 100%, 50%)" stroke-width="0.05"/>
    <line x1="3.1247" y1="1.3041" x2="3.5641" y2="1.2929" stroke="hsl(0.31, 100%, 50%)" stroke-width="0.05"/>
    <line x1="3.5641" y1="1.2929" x2="4.0038" y2="1.2816" stroke="hsl(0.28, 100%, 50%)" stroke-width="0.05"/>
    <line x1="4.0038" y1="1.2816" x2="4.4437" y2="1.2704" stroke="hsl(0.25, 100%, 50%)" stroke-width="0.05"/>
    <line x1="4.4437" y1="1.2704" x2="4.8771" y2="1.2573" stroke="hsl(17.42, 100%, 50%)" stroke-width="0.05"/>
    <line x1="4.8771" y1="1.2573" x2="5.3094" y2="1.2421" stroke="hsl(13.91, 100%, 50%)" stroke-width="0.05"/>
    <line x1="5.3094" y1="1.2421" x2="5.7474" y2="1.2268" stroke="hsl(0.77, 100%, 50%)" stroke-width="0.05"/>
    <line x1="5.7474" y1="1.2268" x2="6.1865" y2="1.2114" stroke="hsl(2.02, 100%, 50%)" stroke-width="0.05"/>
    <line x1="6.1865" y1="1.2114" x2="6.6217" y2="1.2021" stroke="hsl(19.42, 100%, 50%)" stroke-width="0.05"/>
    <line x1="6.6217" y1="1.2021" x2="7.0577" y2="1.1985" stroke="hsl(13.59, 100%, 50%)" stroke-width="0.05"/>
    <line x1="7.0577" y1="1.1985" x2="7.4919" y2="1.1873" stroke="hsl(26.00, 100%, 50%)" stroke-width="0.05"/>
    <line x1="7.4919" y1="1.1873" x2="7.9255" y2="1.1684" stroke="hsl(16.35, 100%, 50%)" stroke-width="0.05"/>
    <line x1="7.9255" y1="1.1684" x2="8.3621" y2="1.1525" stroke="hsl(12.26, 100%, 50%)" stroke-width="0.05"/>
    <line x1="8.3621" y1="1.1525" x2="8.7990" y2="1.1398" stroke="hsl(9.35, 100%, 50%)" stroke-width="0.05"/>
    <line x1="8.7990" y1="1.1398" x2="9.2380" y2="1.1276" stroke="hsl(4.41, 100%, 50%)" stroke-width="0.05"/>
    <line x1="9.2380" y1="1.1276" x2="9.6769" y2="1.1162" stroke="hsl(3.35, 100%, 50%)" stroke-width="0.05"/>
    <line x1="9.6769" y1="1.1162" x2="10.1158" y2="1.1060" stroke="hsl(4.43, 100%, 50%)" stroke-width="0.05"/>
    <line x1="10.1158" y1="1.1060" x2="10.5546" y2="1.0969" stroke="hsl(2.93, 100%, 50%)" stroke-width="0.05"/>
    <line x1="10.5546" y1="1.0969" x2="10.9945" y2="1.0876" stroke="hsl(0.24, 100%, 50%)" stroke-width="0.05"/>
    <line x1="10.9945" y1="1.0876" x2="11.4335" y2="1.0795" stroke="hsl(3.34, 100%, 50%)" stroke-width="0.05"/>
    <line x1="11.4335" y1="1.0795" x2="11.8726" y2="1.0722" stroke="hsl(2.52, 100%, 50%)" stroke-width="0.05"/>
    <line x1="11.8726" y1="1.0722" x2="12.3079" y2="1.0710" stroke="hsl(19.85, 100%, 50%)" stroke-width="0.05"/>
    <line x1="12.3079" y1="1.0710" x2="12.7427" y2="1.0764" stroke="hsl(11.37, 100%, 50%)" stroke-width="0.05"/>
    <line x1="12.7427" y1="1.0764" x2="13.1821" y2="1.0825" stroke="hsl(0.66, 100%, 50%)" stroke-width="0.05"/>
    <line x1="13.1821" y1="1.0825" x2="13.6210" y2="1.0899" stroke="hsl(3.05, 100%, 50%)" stroke-width="0.05"/>
    <line x1="13.6210" y1="1.0899" x2="14.0543" y2="1.1051" stroke="hsl(21.36, 100%, 50%)" stroke-width="0.05"/>
    <line x1="14.0543" y1="1.1051" x2="14.4791" y2="1.1364" stroke="hsl(25.67, 100%, 50%)" stroke-width="0.05"/>
    <line x1="14.4791" y1="1.1364" x2="14.8752" y2="1.2044" stroke="hsl(94.30, 100%, 50%)" stroke-width="0.05"/>
    <line x1="14.8752" y1="1.2044" x2="15.1934" y2="1.3045" stroke="hsl(135.45, 100%, 50%)" stroke-width="0.05"/>
    <line x1="15.1934" y1="1.3045" x2="15.3831" y2="1.4184" stroke="hsl(193.44, 100%, 50%)" stroke-width="0.05"/>
    <line x1="15.3831" y1="1.4184" x2="15.4394" y2="1.5305" stroke="hsl(164.62, 100%, 50%)" stroke-width="0.05"/>
    <line x1="15.4394" y1="1.5305" x2="15.4322" y2="1.6602" stroke="hsl(163.84, 100%, 50%)" stroke-width="0.05"/>
    <line x1="15.4322" y1="1.6602" x2="15.3630" y2="1.7932" stroke="hsl(129.41, 100%, 50%)" stroke-width="0.05"/>
    <line x1="15.3630" y1="1.7932" x2="15.2406" y2="1.9359" stroke="hsl(122.89, 100%, 50%)" stroke-width="0.05"/>
    <line x1="15.2406" y1="1.9359" x2="15.0734" y2="2.0901" stroke="hsl(95.03, 100%, 50%)" stroke-width="0.05"/>
    <line x1="15.0734" y1="2.0901" x2="14.8751" y2="2.2582" stroke="hsl(63.60, 100%, 50%)" stroke-width="0.05"/>
    <line x1="14.8751" y1="2.2582" x2="14.6539" y2="2.4351" stroke="hsl(50.38, 100%, 50%)" stroke-width="0.05"/>
    <line x1="14.6539" y1="2.4351" x2="14.4155" y2="2.6167" stroke="hsl(33.19, 100%, 50%)" stroke-width="0.05"/>
    <line x1="14.4155" y1="2.6167" x2="14.1644" y2="2.8002" stroke="hsl(26.04, 100%, 50%)" stroke-width="0.05"/>
    <line x1="14.1644" y1="2.8002" x2="13.9038" y2="2.9855" stroke="hsl(19.38, 100%, 50%)" stroke-width="0.05"/>
    <line x1="13.9038" y1="2.9855" x2="13.6393" y2="3.1614" stroke="hsl(48.51, 100%, 50%)" stroke-width="0.05"/>
    <line x1="13.6393" y1="3.1614" x2="13.3706" y2="3.3269" stroke="hsl(19.36, 100%, 50%)" stroke-width="0.05"/>
    <line x1="13.3706" y1="3.3269" x2="13.0972" y2="3.4825" stroke="hsl(45.79, 100%, 50%)" stroke-width="0.05"/>
    <line x1="13.0972" y1="3.4825" x2="12.8188" y2="3.6269" stroke="hsl(20.68, 100%, 50%)" stroke-width="0.05"/>
    <line x1="12.8188" y1="3.6269" x2="12.4952" y2="3.7816" stroke="hsl(29.52, 100%, 50%)" stroke-width="0.05"/>
    <line x1="12.4952" y1="3.7816" x2="12.1635" y2="3.9287" stroke="hsl(21.28, 100%, 50%)" stroke-width="0.05"/>
    <line x1="12.1635" y1="3.9287" x2="11.8276" y2="4.0679" stroke="hsl(30.27, 100%, 50%)" stroke-width="0.05"/>
    <line x1="11.8276" y1="4.0679" x2="11.4882" y2="4.2001" stroke="hsl(19.16, 100%, 50%)" stroke-width="0.05"/>
    <line x1="11.4882" y1="4.2001" x2="11.1463" y2="4.3256" stroke="hsl(30.43, 100%, 50%)" stroke-width="0.05"/>
    <line x1="11.1463" y1="4.3256" x2="10.8033" y2="4.4444" stroke="hsl(14.39, 100%, 50%)" stroke-width="0.05"/>
    <line x1="10.8033" y1="4.4444" x2="10.4556" y2="4.5646" stroke="hsl(3.43, 100%, 50%)" stroke-width="0.05"/>
    <line x1="10.4556" y1="4.5646" x2="10.1064" y2="4.6853" stroke="hsl(2.34, 100%, 50%)" stroke-width="0.05"/>
    <line x1="10.1064" y1="4.6853" x2="9.7588" y2="4.8001" stroke="hsl(23.47, 100%, 50%)" stroke-width="0.05"/>
    <line x1="9.7588" y1="4.8001" x2="9.4100" y2="4.9101" stroke="hsl(13.06, 100%, 50%)" stroke-width="0.05"/>
    <line x1="9.4100" y1="4.9101" x2="9.0600" y2="5.0166" stroke="hsl(18.65, 100%, 50%)" stroke-width="0.05"/>
    <line x1="9.0600" y1="5.0166" x2="8.7086" y2="5.1194" stroke="hsl(12.67, 100%, 50%)" stroke-width="0.05"/>
    <line x1="8.7086" y1="5.1194" x2="8.3570" y2="5.2163" stroke="hsl(27.67, 100%, 50%)" stroke-width="0.05"/>
    <line x1="8.3570" y1="5.2163" x2="8.0046" y2="5.3061" stroke="hsl(13.53, 100%, 50%)" stroke-width="0.05"/>
    <line x1="8.0046" y1="5.3061" x2="7.6472" y2="5.3960" stroke="hsl(4.86, 100%, 50%)" stroke-width="0.05"/>
    <line x1="7.6472" y1="5.3960" x2="7.2918" y2="5.4780" stroke="hsl(30.49, 100%, 50%)" stroke-width="0.05"/>
    <line x1="7.2918" y1="5.4780" x2="6.9351" y2="5.5514" stroke="hsl(17.21, 100%, 50%)" stroke-width="0.05"/>
    <line x1="6.9351" y1="5.5514" x2="6.5768" y2="5.6167" stroke="hsl(28.62, 100%, 50%)" stroke-width="0.05"/>
    <line x1="6.5768" y1="5.6167" x2="6.2245" y2="5.6624" stroke="hsl(45.29, 100%, 50%)" stroke-width="0.05"/>
    <line x1="6.2245" y1="5.6624" x2="5.8967" y2="5.6564" stroke="hsl(161.28, 100%, 50%)" stroke-width="0.05"/>
    <line x1="5.8967" y1="5.6564" x2="5.6433" y2="5.5900" stroke="hsl(143.90, 100%, 50%)" stroke-width="0.05"/>
    <line x1="5.6433" y1="5.5900" x2="5.4151" y2="5.4790" stroke="hsl(94.75, 100%, 50%)" stroke-width="0.05"/>
    <line x1="5.4151" y1="5.4790" x2="5.1889" y2="5.3417" stroke="hsl(51.96, 100%, 50%)" stroke-width="0.05"/>
    <line x1="5.1889" y1="5.3417" x2="4.9497" y2="5.1900" stroke="hsl(38.51, 100%, 50%)" stroke-width="0.05"/>
    <line x1="4.9497" y1="5.1900" x2="4.7110" y2="5.0251" stroke="hsl(42.75, 100%, 50%)" stroke-width="0.05"/>
    <line x1="4.7110" y1="5.0251" x2="4.4866" y2="4.8473" stroke="hsl(47.21, 100%, 50%)" stroke-width="0.05"/>
    <line x1="4.4866" y1="4.8473" x2="4.2681" y2="4.6577" stroke="hsl(29.67, 100%, 50%)" stroke-width="0.05"/>
    <line x1="4.2681" y1="4.6577" x2="4.0446" y2="4.4581" stroke="hsl(22.50, 100%, 50%)" stroke-width="0.05"/>
    <line x1="4.0446" y1="4.4581" x2="3.8158" y2="4.2528" stroke="hsl(14.27, 100%, 50%)" stroke-width="0.05"/>
    <line x1="3.8158" y1="4.2528" x2="3.5824" y2="4.0423" stroke="hsl(19.23, 100%, 50%)" stroke-width="0.05"/>
    <line x1="3.5824" y1="4.0423" x2="3.3558" y2="3.8250" stroke="hsl(45.43, 100%, 50%)" stroke-width="0.05"/>
    <line x1="3.3558" y1="3.8250" x2="3.1486" y2="3.6017" stroke="hsl(49.51, 100%, 50%)" stroke-width="0.05"/>
    <line x1="3.1486" y1="3.6017" x2="2.9757" y2="3.3793" stroke="hsl(112.97, 100%, 50%)" stroke-width="0.05"/>
    <line x1="2.9757" y1="3.3793" x2="2.8577" y2="3.1679" stroke="hsl(148.35, 100%, 50%)" stroke-width="0.05"/>
    <line x1="2.8577" y1="3.1679" x2="2.8099" y2="2.9749" stroke="hsl(189.53, 100%, 50%)" stroke-width="0.05"/>
    <line x1="2.8099" y1="2.9749" x2="2.8367" y2="2.8109" stroke="hsl(185.48, 100%, 50%)" stroke-width="0.05"/>
    <line x1="2.8367" y1="2.8109" x2="2.9977" y2="2.6260" stroke="hsl(163.41, 100%, 50%)" stroke-width="0.05"/>
    <line x1="2.9977" y1="2.6260" x2="3.2609" y2="2.5333" stroke="hsl(153.77, 100%, 50%)" stroke-width="0.05"/>
    <line x1="3.2609" y1="2.5333" x2="3.6033" y2="2.5070" stroke="hsl(101.14, 100%, 50%)" stroke-width="0.05"/>
    <line x1="3.6033" y1="2.5070" x2="4.0275" y2="2.4916" stroke="hsl(77.91, 100%, 50%)" stroke-width="0.05"/>
    <line x1="4.0275" y1="2.4916" x2="4.4992" y2="2.4862" stroke="hsl(27.10, 100%, 50%)" stroke-width="0.05"/>
    <line x1="4.4992" y1="2.4862" x2="4.9779" y2="2.4845" stroke="hsl(11.29, 100%, 50%)" stroke-width="0.05"/>
    <line x1="4.9779" y1="2.4845" x2="5.4542" y2="2.4843" stroke="hsl(5.64, 100%, 50%)" stroke-width="0.05"/>
    <line x1="5.4542" y1="2.4843" x2="5.9319" y2="2.4847" stroke="hsl(2.57, 100%, 50%)" stroke-width="0.05"/>
    <line x1="5.9319" y1="2.4847" x2="6.4090" y2="2.4853" stroke="hsl(1.26, 100%, 50%)" stroke-width="0.05"/>
    <line x1="6.4090" y1="2.4853" x2="6.8864" y2="2.4859" stroke="hsl(0.58, 100%, 50%)" stroke-width="0.05"/>
    <line x1="6.8864" y1="2.4859" x2="7.3636" y2="2.4867" stroke="hsl(0.26, 100%, 50%)" stroke-width="0.05"/>
    <line x1="7.3636" y1="2.4867" x2="7.8409" y2="2.4874" stroke="hsl(0.08, 100%, 50%)" stroke-width="0.05"/>
    <line x1="7.8409" y1="2.4874" x2="8.3182" y2="2.4881" stroke="hsl(0.08, 100%, 50%)" stroke-width="0.05"/>
    <line x1="8.3182" y1="2.4881" x2="8.7955" y2="2.4888" stroke="hsl(0.22, 100%, 50%)" stroke-width="0.05"/>
    <line x1="8.7955" y1="2.4888" x2="9.2145" y2="2.4939" stroke="hsl(126.84, 100%, 50%)" stroke-width="0.05"/>
    <line x1="9.2145" y1="2.4939" x2="9.4850" y2="2.5010" stroke="hsl(195.33, 100%, 50%)" stroke-width="0.05"/>
    <line x1="9.4850" y1="2.5010" x2="9.5752" y2="2.5034" stroke="hsl(195.44, 100%, 50%)" stroke-width="0.05"/>
    <polygon points="0.9989,1.3943 0.4490,0.7957 -0.1496,1.3456 0.4003,1.9442" fill="rgba(0,0,0,0.12)" stroke="#000000" stroke-width="0.04"/><circle cx="0.4247" cy="1.3700" r="0.03" fill="#ffffff" stroke="#000000" stroke-width="0.015"/><polygon points="0.7884,1.0358 0.7568,1.1123 0.7095,1.0608" fill="#ffffff" stroke="#000000" stroke-width="0.02"/>
    <polygon points="14.9060,1.7389 15.7036,1.8955 15.8603,1.0980 15.0627,0.9413" fill="rgba(0,0,0,0.12)" stroke="#000000" stroke-width="0.04"/><circle cx="15.3831" cy="1.4184" r="0.03" fill="#ffffff" stroke="#000000" stroke-width="0.015"/><polygon points="15.2879,1.9031 15.2681,1.8227 15.3367,1.8362" fill="#ffffff" stroke="#000000" stroke-width="0.02"/>
    <polygon points="12.9232,3.0617 12.2537,3.5225 12.7145,4.1921 13.3840,3.7312" fill="rgba(0,0,0,0.12)" stroke="#000000" stroke-width="0.04"/><circle cx="12.8188" cy="3.6269" r="0.03" fill="#ffffff" stroke="#000000" stroke-width="0.015"/><polygon points="12.5388,3.2200 12.6102,3.2620 12.5525,3.3017" fill="#ffffff" stroke="#000000" stroke-width="0.02"/>
    <polygon points="6.4348,5.4546 5.6949,5.1183 5.3585,5.8582 6.0985,6.1946" fill="rgba(0,0,0,0.12)" stroke="#000000" stroke-width="0.04"/><circle cx="5.8967" cy="5.6564" r="0.03" fill="#ffffff" stroke="#000000" stroke-width="0.015"/><polygon points="6.1010,5.2068 6.1019,5.2896 6.0381,5.2606" fill="#ffffff" stroke="#000000" stroke-width="0.02"/>
    <polygon points="2.3930,3.1763 3.2020,3.2546 3.2803,2.4456 2.4713,2.3673" fill="rgba(0,0,0,0.12)" stroke="#000000" stroke-width="0.04"/><circle cx="2.8367" cy="2.8109" r="0.03" fill="#ffffff" stroke="#000000" stroke-width="0.015"/><polygon points="2.7891,3.3025 2.7615,3.2245 2.8312,3.2313" fill="#ffffff" stroke="#000000" stroke-width="0.02"/>
    <polygon points="9.1354,2.8734 9.9452,2.9432 10.0150,2.1334 9.2052,2.0636" fill="rgba(0,0,0,0.12)" stroke="#000000" stroke-width="0.04"/><circle cx="9.5752" cy="2.5034" r="0.03" fill="#ffffff" stroke="#000000" stroke-width="0.015"/><polygon points="9.5328,2.9955 9.5044,2.9177 9.5741,2.9237" fill="#ffffff" stroke="#000000" stroke-width="0.02"/>
  </g>
  <text x="-0.4" y="-0.15" font-size="0.32" font-family="monospace" fill="white" stroke="black" stroke-width="0.02" paint-order="stroke fill">PR  swerve-base-high-dt · full_field_sweeper</text>
</svg>
